<?xml version="1.0" encoding="utf-8" ?>
<svg baseProfile="full" height="183.21976461447775" version="1.1" width="956.6024806443602" xmlns="http://www.w3.org/2000/svg" xmlns:ev="http://www.w3.org/2001/xml-events" xmlns:xlink="http://www.w3.org/1999/xlink"><defs /><rect fill="white" height="183.21976461447775" width="956.6024806443602" x="0" y="0" /><path d="M 25.0,68.27758310362697 " fill="rgb(94,204,42)" stroke="rgb(94,204,42)" stroke-width="2" /><path d="M 117.56072998046875,45.74550388380885 " fill="rgb(142,239,141)" stroke="rgb(142,239,141)" stroke-width="2" /><path d="M +117.56072998046875,45.74550388380885 L 117.53340581897646,45.61107293702662 " fill="rgb(142,239,141)" stroke="rgb(142,239,141)" stroke-width="2" /><path d="M +117.53340581897646,45.61107293702662 L 118.61060532275587,45.452802116051316 " fill="rgb(142,239,141)" stroke="rgb(142,239,141)" stroke-width="2" /><path d="M +118.61060532275587,45.452802116051316 L 114.90181150380522,46.04193829931319 " fill="rgb(142,239,141)" stroke="rgb(142,239,141)" stroke-width="2" /><path d="M +114.90181150380522,46.04193829931319 L 109.55475928727537,49.00448792614043 " fill="rgb(142,239,141)" stroke="rgb(142,239,141)" stroke-width="2" /><path d="M +109.55475928727537,49.00448792614043 L 103.35162701550871,53.24603312648833 " fill="rgb(142,239,141)" stroke="rgb(142,239,141)" stroke-width="2" /><path d="M +103.35162701550871,53.24603312648833 L 96.04519846383482,61.417486602440476 " fill="rgb(142,239,141)" stroke="rgb(142,239,141)" stroke-width="2" /><path d="M +96.04519846383482,61.417486602440476 L 93.56107088271528,72.2223495785147 " fill="rgb(142,239,141)" stroke="rgb(142,239,141)" stroke-width="2" /><path d="M +93.56107088271528,72.2223495785147 L 93.37573579046875,82.44655006565154 " fill="rgb(142,239,141)" stroke="rgb(142,239,141)" stroke-width="2" /><path d="M +93.37573579046875,82.44655006565154 L 98.53611639235169,94.2541539017111 " fill="rgb(142,239,141)" stroke="rgb(142,239,141)" stroke-width="2" /><path d="M +98.53611639235169,94.2541539017111 L 105.31427493784577,104.84681361354887 " fill="rgb(142,239,141)" stroke="rgb(142,239,141)" stroke-width="2" /><path d="M +105.31427493784577,104.84681361354887 L 113.97867313120514,114.39077072776854 " fill="rgb(142,239,141)" stroke="rgb(142,239,141)" stroke-width="2" /><path d="M +113.97867313120514,114.39077072776854 L 122.44562319014221,124.76228409446776 " fill="rgb(142,239,141)" stroke="rgb(142,239,141)" stroke-width="2" /><path d="M +122.44562319014221,124.76228409446776 L 128.35881283972412,133.18431430496275 " fill="rgb(142,239,141)" stroke="rgb(142,239,141)" stroke-width="2" /><path d="M +128.35881283972412,133.18431430496275 L 131.20446315500885,140.28700524009764 " fill="rgb(142,239,141)" stroke="rgb(142,239,141)" stroke-width="2" /><path d="M +131.20446315500885,140.28700524009764 L 131.9054919341579,145.04791968502104 " fill="rgb(142,239,141)" stroke="rgb(142,239,141)" stroke-width="2" /><path d="M +131.9054919341579,145.04791968502104 L 130.7486673304811,148.85020815767348 " fill="rgb(142,239,141)" stroke="rgb(142,239,141)" stroke-width="2" /><path d="M +130.7486673304811,148.85020815767348 L 125.13733109924942,152.75719159282744 " fill="rgb(142,239,141)" stroke="rgb(142,239,141)" stroke-width="2" /><path d="M +125.13733109924942,152.75719159282744 L 117.61632463429123,156.6272568050772 " fill="rgb(142,239,141)" stroke="rgb(142,239,141)" stroke-width="2" /><path d="M +117.61632463429123,156.6272568050772 L 108.44015678856522,158.21976461447775 " fill="rgb(142,239,141)" stroke="rgb(142,239,141)" stroke-width="2" /><path d="M +108.44015678856522,158.21976461447775 L 97.93640694115311,157.05148295499384 " fill="rgb(142,239,141)" stroke="rgb(142,239,141)" stroke-width="2" /><path d="M +97.93640694115311,157.05148295499384 L 88.49967202637345,155.04513979889452 " fill="rgb(142,239,141)" stroke="rgb(142,239,141)" stroke-width="2" /><path d="M +88.49967202637345,155.04513979889452 L 80.58579465840012,151.91492528654635 " fill="rgb(142,239,141)" stroke="rgb(142,239,141)" stroke-width="2" /><path d="M +80.58579465840012,151.91492528654635 L 75.8042903849855,149.55456689931452 " fill="rgb(142,239,141)" stroke="rgb(142,239,141)" stroke-width="2" /><path d="M 181.22701606247574,90.73970274068415 " fill="rgb(125,167,68)" stroke="rgb(125,167,68)" stroke-width="2" /><path d="M +181.22701606247574,90.73970274068415 L 175.79595109913498,88.7918743584305 " fill="rgb(125,167,68)" stroke="rgb(125,167,68)" stroke-width="2" /><path d="M +175.79595109913498,88.7918743584305 L 170.12534639332443,89.23132670111954 " fill="rgb(125,167,68)" stroke="rgb(125,167,68)" stroke-width="2" /><path d="M +170.12534639332443,89.23132670111954 L 163.19340190384537,90.88523727841675 " fill="rgb(125,167,68)" stroke="rgb(125,167,68)" stroke-width="2" /><path d="M +163.19340190384537,90.88523727841675 L 155.92437526676804,93.95197701640427 " fill="rgb(125,167,68)" stroke="rgb(125,167,68)" stroke-width="2" /><path d="M +155.92437526676804,93.95197701640427 L 148.2379378983751,99.42371261306107 " fill="rgb(125,167,68)" stroke="rgb(125,167,68)" stroke-width="2" /><path d="M +148.2379378983751,99.42371261306107 L 143.55997702572495,109.16555595584214 " fill="rgb(125,167,68)" stroke="rgb(125,167,68)" stroke-width="2" /><path d="M +143.55997702572495,109.16555595584214 L 141.4672008762136,120.10894012637436 " fill="rgb(125,167,68)" stroke="rgb(125,167,68)" stroke-width="2" /><path d="M +141.4672008762136,120.10894012637436 L 142.50125682447106,127.06330073066056 " fill="rgb(125,167,68)" stroke="rgb(125,167,68)" stroke-width="2" /><path d="M +142.50125682447106,127.06330073066056 L 147.81143403146416,134.48772084899247 " fill="rgb(125,167,68)" stroke="rgb(125,167,68)" stroke-width="2" /><path d="M +147.81143403146416,134.48772084899247 L 155.3943411121145,139.19454437680542 " fill="rgb(125,167,68)" stroke="rgb(125,167,68)" stroke-width="2" /><path d="M +155.3943411121145,139.19454437680542 L 165.1882497081533,142.5187895912677 " fill="rgb(125,167,68)" stroke="rgb(125,167,68)" stroke-width="2" /><path d="M +165.1882497081533,142.5187895912677 L 174.96135509107262,140.64439785666764 " fill="rgb(125,167,68)" stroke="rgb(125,167,68)" stroke-width="2" /><path d="M +174.96135509107262,140.64439785666764 L 185.36651647184044,137.58973968215287 " fill="rgb(125,167,68)" stroke="rgb(125,167,68)" stroke-width="2" /><path d="M +185.36651647184044,137.58973968215287 L 194.50012898538262,131.55278456397355 " fill="rgb(125,167,68)" stroke="rgb(125,167,68)" stroke-width="2" /><path d="M +194.50012898538262,131.55278456397355 L 201.63383877370507,124.39352464862168 " fill="rgb(125,167,68)" stroke="rgb(125,167,68)" stroke-width="2" /><path d="M +201.63383877370507,124.39352464862168 L 205.36333626601845,115.59254419989884 " fill="rgb(125,167,68)" stroke="rgb(125,167,68)" stroke-width="2" /><path d="M +205.36333626601845,115.59254419989884 L 205.90402273926884,106.64221775718033 " fill="rgb(125,167,68)" stroke="rgb(125,167,68)" stroke-width="2" /><path d="M +205.90402273926884,106.64221775718033 L 205.0315438816324,100.37768733687699 " fill="rgb(125,167,68)" stroke="rgb(125,167,68)" stroke-width="2" /><path d="M +205.0315438816324,100.37768733687699 L 201.56638166401535,93.25140488334 " fill="rgb(125,167,68)" stroke="rgb(125,167,68)" stroke-width="2" /><path d="M +201.56638166401535,93.25140488334 L 198.42447868082672,88.22682690806687 " fill="rgb(125,167,68)" stroke="rgb(125,167,68)" stroke-width="2" /><path d="M +198.42447868082672,88.22682690806687 L 195.19451817963272,85.03505659289658 " fill="rgb(125,167,68)" stroke="rgb(125,167,68)" stroke-width="2" /><path d="M 227.0327158877626,91.17898595519364 " fill="rgb(72,193,36)" stroke="rgb(72,193,36)" stroke-width="2" /><path d="M +227.0327158877626,91.17898595519364 L 226.65441966149956,90.96367134712636 " fill="rgb(72,193,36)" stroke="rgb(72,193,36)" stroke-width="2" /><path d="M +226.65441966149956,90.96367134712636 L 227.55145756993443,91.75702690146863 " fill="rgb(72,193,36)" stroke="rgb(72,193,36)" stroke-width="2" /><path d="M +227.55145756993443,91.75702690146863 L 227.53402994014323,92.11650165729225 " fill="rgb(72,193,36)" stroke="rgb(72,193,36)" stroke-width="2" /><path d="M +227.53402994014323,92.11650165729225 L 229.1293473634869,97.21107455901802 " fill="rgb(72,193,36)" stroke="rgb(72,193,36)" stroke-width="2" /><path d="M +229.1293473634869,97.21107455901802 L 229.99652900733054,105.60083660297096 " fill="rgb(72,193,36)" stroke="rgb(72,193,36)" stroke-width="2" /><path d="M +229.99652900733054,105.60083660297096 L 231.2301553133875,114.16053864173591 " fill="rgb(72,193,36)" stroke="rgb(72,193,36)" stroke-width="2" /><path d="M +231.2301553133875,114.16053864173591 L 233.49168279208243,124.9046382587403 " fill="rgb(72,193,36)" stroke="rgb(72,193,36)" stroke-width="2" /><path d="M +233.49168279208243,124.9046382587403 L 236.02535434998572,131.57283696345985 " fill="rgb(72,193,36)" stroke="rgb(72,193,36)" stroke-width="2" /><path d="M +236.02535434998572,131.57283696345985 L 238.28248375095427,136.41421827487648 " fill="rgb(72,193,36)" stroke="rgb(72,193,36)" stroke-width="2" /><path d="M +238.28248375095427,136.41421827487648 L 239.06115205027163,135.3012056928128 " fill="rgb(72,193,36)" stroke="rgb(72,193,36)" stroke-width="2" /><path d="M +239.06115205027163,135.3012056928128 L 239.31708273477852,133.69299205951393 " fill="rgb(72,193,36)" stroke="rgb(72,193,36)" stroke-width="2" /><path d="M +239.31708273477852,133.69299205951393 L 241.26291391439736,127.67128619365394 " fill="rgb(72,193,36)" stroke="rgb(72,193,36)" stroke-width="2" /><path d="M +241.26291391439736,127.67128619365394 L 243.9356624800712,118.94319745711982 " fill="rgb(72,193,36)" stroke="rgb(72,193,36)" stroke-width="2" /><path d="M +243.9356624800712,118.94319745711982 L 246.86303523369133,108.51795407943428 " fill="rgb(72,193,36)" stroke="rgb(72,193,36)" stroke-width="2" /><path d="M +246.86303523369133,108.51795407943428 L 250.46089080162346,97.3690268676728 " fill="rgb(72,193,36)" stroke="rgb(72,193,36)" stroke-width="2" /><path d="M +250.46089080162346,97.3690268676728 L 255.61609474010766,88.27856632880867 " fill="rgb(72,193,36)" stroke="rgb(72,193,36)" stroke-width="2" /><path d="M +255.61609474010766,88.27856632880867 L 261.0011669714004,83.30412927083671 " fill="rgb(72,193,36)" stroke="rgb(72,193,36)" stroke-width="2" /><path d="M +261.0011669714004,83.30412927083671 L 265.0622552353889,83.02196820266545 " fill="rgb(72,193,36)" stroke="rgb(72,193,36)" stroke-width="2" /><path d="M +265.0622552353889,83.02196820266545 L 267.8598764259368,84.15678520686924 " fill="rgb(72,193,36)" stroke="rgb(72,193,36)" stroke-width="2" /><path d="M +267.8598764259368,84.15678520686924 L 272.89506522007287,90.33377547748387 " fill="rgb(72,193,36)" stroke="rgb(72,193,36)" stroke-width="2" /><path d="M +272.89506522007287,90.33377547748387 L 276.74164143390954,99.97205992229283 " fill="rgb(72,193,36)" stroke="rgb(72,193,36)" stroke-width="2" /><path d="M +276.74164143390954,99.97205992229283 L 280.6400596816093,113.70879073627293 " fill="rgb(72,193,36)" stroke="rgb(72,193,36)" stroke-width="2" /><path d="M +280.6400596816093,113.70879073627293 L 282.4102617520839,124.496097760275 " fill="rgb(72,193,36)" stroke="rgb(72,193,36)" stroke-width="2" /><path d="M +282.4102617520839,124.496097760275 L 285.8580378908664,135.1770402956754 " fill="rgb(72,193,36)" stroke="rgb(72,193,36)" stroke-width="2" /><path d="M +285.8580378908664,135.1770402956754 L 286.3201513234526,138.3080901671201 " fill="rgb(72,193,36)" stroke="rgb(72,193,36)" stroke-width="2" /><path d="M +286.3201513234526,138.3080901671201 L 288.3135106507689,140.1620984543115 " fill="rgb(72,193,36)" stroke="rgb(72,193,36)" stroke-width="2" /><path d="M +288.3135106507689,140.1620984543115 L 288.0576132144779,137.2915602196008 " fill="rgb(72,193,36)" stroke="rgb(72,193,36)" stroke-width="2" /><path d="M +288.0576132144779,137.2915602196008 L 289.0210339333862,130.37913982756436 " fill="rgb(72,193,36)" stroke="rgb(72,193,36)" stroke-width="2" /><path d="M +289.0210339333862,130.37913982756436 L 290.61011522077024,118.83343999274075 " fill="rgb(72,193,36)" stroke="rgb(72,193,36)" stroke-width="2" /><path d="M +290.61011522077024,118.83343999274075 L 292.12575419805944,104.37522833235562 " fill="rgb(72,193,36)" stroke="rgb(72,193,36)" stroke-width="2" /><path d="M +292.12575419805944,104.37522833235562 L 294.9282131996006,90.19420449621975 " fill="rgb(72,193,36)" stroke="rgb(72,193,36)" stroke-width="2" /><path d="M +294.9282131996006,90.19420449621975 L 299.95154603384435,80.54347877390683 " fill="rgb(72,193,36)" stroke="rgb(72,193,36)" stroke-width="2" /><path d="M +299.95154603384435,80.54347877390683 L 304.6119551267475,74.27959566004574 " fill="rgb(72,193,36)" stroke="rgb(72,193,36)" stroke-width="2" /><path d="M +304.6119551267475,74.27959566004574 L 309.30505528114736,72.09256653673947 " fill="rgb(72,193,36)" stroke="rgb(72,193,36)" stroke-width="2" /><path d="M +309.30505528114736,72.09256653673947 L 313.7185065355152,72.34142010100186 " fill="rgb(72,193,36)" stroke="rgb(72,193,36)" stroke-width="2" /><path d="M +313.7185065355152,72.34142010100186 L 318.8649336900562,77.5146544445306 " fill="rgb(72,193,36)" stroke="rgb(72,193,36)" stroke-width="2" /><path d="M +318.8649336900562,77.5146544445306 L 323.5405398812145,87.11847786791623 " fill="rgb(72,193,36)" stroke="rgb(72,193,36)" stroke-width="2" /><path d="M +323.5405398812145,87.11847786791623 L 328.3640645351261,102.77147774584591 " fill="rgb(72,193,36)" stroke="rgb(72,193,36)" stroke-width="2" /><path d="M +328.3640645351261,102.77147774584591 L 331.4885516371578,117.43847851641476 " fill="rgb(72,193,36)" stroke="rgb(72,193,36)" stroke-width="2" /><path d="M +331.4885516371578,117.43847851641476 L 333.5308304335922,130.18254880793393 " fill="rgb(72,193,36)" stroke="rgb(72,193,36)" stroke-width="2" /><path d="M +333.5308304335922,130.18254880793393 L 337.39869027398527,140.12811069376767 " fill="rgb(72,193,36)" stroke="rgb(72,193,36)" stroke-width="2" /><path d="M +337.39869027398527,140.12811069376767 L 341.1717280652374,146.11869459040463 " fill="rgb(72,193,36)" stroke="rgb(72,193,36)" stroke-width="2" /><path d="M 367.93839066289365,121.96009044535458 " fill="rgb(107,195,56)" stroke="rgb(107,195,56)" stroke-width="2" /><path d="M +367.93839066289365,121.96009044535458 L 369.7495998349041,123.9360857475549 " fill="rgb(107,195,56)" stroke="rgb(107,195,56)" stroke-width="2" /><path d="M +369.7495998349041,123.9360857475549 L 375.8473081793636,125.33466865308583 " fill="rgb(107,195,56)" stroke="rgb(107,195,56)" stroke-width="2" /><path d="M +375.8473081793636,125.33466865308583 L 383.7999983038753,125.43921396136284 " fill="rgb(107,195,56)" stroke="rgb(107,195,56)" stroke-width="2" /><path d="M +383.7999983038753,125.43921396136284 L 391.8477739300579,122.74907574057579 " fill="rgb(107,195,56)" stroke="rgb(107,195,56)" stroke-width="2" /><path d="M +391.8477739300579,122.74907574057579 L 401.59131838940084,118.82574990391731 " fill="rgb(107,195,56)" stroke="rgb(107,195,56)" stroke-width="2" /><path d="M +401.59131838940084,118.82574990391731 L 411.5461756195873,114.54096540808678 " fill="rgb(107,195,56)" stroke="rgb(107,195,56)" stroke-width="2" /><path d="M +411.5461756195873,114.54096540808678 L 420.22225393913686,107.86783918738365 " fill="rgb(107,195,56)" stroke="rgb(107,195,56)" stroke-width="2" /><path d="M +420.22225393913686,107.86783918738365 L 425.9256262984127,100.07353588938713 " fill="rgb(107,195,56)" stroke="rgb(107,195,56)" stroke-width="2" /><path d="M +425.9256262984127,100.07353588938713 L 428.6346466746181,90.93968912959099 " fill="rgb(107,195,56)" stroke="rgb(107,195,56)" stroke-width="2" /><path d="M +428.6346466746181,90.93968912959099 L 428.20004402659833,82.61444792151451 " fill="rgb(107,195,56)" stroke="rgb(107,195,56)" stroke-width="2" /><path d="M +428.20004402659833,82.61444792151451 L 424.2463257815689,75.0993786752224 " fill="rgb(107,195,56)" stroke="rgb(107,195,56)" stroke-width="2" /><path d="M +424.2463257815689,75.0993786752224 L 417.17187016271055,70.82771077752113 " fill="rgb(107,195,56)" stroke="rgb(107,195,56)" stroke-width="2" /><path d="M +417.17187016271055,70.82771077752113 L 407.87280349992216,70.13810500502586 " fill="rgb(107,195,56)" stroke="rgb(107,195,56)" stroke-width="2" /><path d="M +407.87280349992216,70.13810500502586 L 396.74700169824064,72.25199282169342 " fill="rgb(107,195,56)" stroke="rgb(107,195,56)" stroke-width="2" /><path d="M +396.74700169824064,72.25199282169342 L 385.8031144645065,77.98609673976898 " fill="rgb(107,195,56)" stroke="rgb(107,195,56)" stroke-width="2" /><path d="M +385.8031144645065,77.98609673976898 L 377.09608941338956,86.08791708946228 " fill="rgb(107,195,56)" stroke="rgb(107,195,56)" stroke-width="2" /><path d="M +377.09608941338956,86.08791708946228 L 371.114502241835,94.57670986652374 " fill="rgb(107,195,56)" stroke="rgb(107,195,56)" stroke-width="2" /><path d="M +371.114502241835,94.57670986652374 L 368.9228883292526,106.14481985569 " fill="rgb(107,195,56)" stroke="rgb(107,195,56)" stroke-width="2" /><path d="M +368.9228883292526,106.14481985569 L 371.53779744170606,116.91022336483002 " fill="rgb(107,195,56)" stroke="rgb(107,195,56)" stroke-width="2" /><path d="M +371.53779744170606,116.91022336483002 L 378.6391025688499,129.41833555698395 " fill="rgb(107,195,56)" stroke="rgb(107,195,56)" stroke-width="2" /><path d="M +378.6391025688499,129.41833555698395 L 389.78093205951154,138.42570304870605 " fill="rgb(107,195,56)" stroke="rgb(107,195,56)" stroke-width="2" /><path d="M +389.78093205951154,138.42570304870605 L 404.64124022983015,147.26417541503906 " fill="rgb(107,195,56)" stroke="rgb(107,195,56)" stroke-width="2" /><path d="M 513.9200621750206,25.0 " fill="rgb(39,225,181)" stroke="rgb(39,225,181)" stroke-width="2" /><path d="M +513.9200621750206,25.0 L 512.5756001379341,25.285661574453115 " fill="rgb(39,225,181)" stroke="rgb(39,225,181)" stroke-width="2" /><path d="M +512.5756001379341,25.285661574453115 L 511.4279420580715,29.13042252883315 " fill="rgb(39,225,181)" stroke="rgb(39,225,181)" stroke-width="2" /><path d="M +511.4279420580715,29.13042252883315 L 509.68476979993284,38.56317764148116 " fill="rgb(39,225,181)" stroke="rgb(39,225,181)" stroke-width="2" /><path d="M +509.68476979993284,38.56317764148116 L 507.4370707478374,50.24604445323348 " fill="rgb(39,225,181)" stroke="rgb(39,225,181)" stroke-width="2" /><path d="M +507.4370707478374,50.24604445323348 L 506.2767106946558,62.73165112361312 " fill="rgb(39,225,181)" stroke="rgb(39,225,181)" stroke-width="2" /><path d="M +506.2767106946558,62.73165112361312 L 506.0929925646633,77.63146763667464 " fill="rgb(39,225,181)" stroke="rgb(39,225,181)" stroke-width="2" /><path d="M +506.0929925646633,77.63146763667464 L 504.99625011347234,92.33216172084212 " fill="rgb(39,225,181)" stroke="rgb(39,225,181)" stroke-width="2" /><path d="M +504.99625011347234,92.33216172084212 L 504.81117143295705,106.48276215419173 " fill="rgb(39,225,181)" stroke="rgb(39,225,181)" stroke-width="2" /><path d="M +504.81117143295705,106.48276215419173 L 505.5686458107084,118.78988629207015 " fill="rgb(39,225,181)" stroke="rgb(39,225,181)" stroke-width="2" /><path d="M +505.5686458107084,118.78988629207015 L 507.3680270370096,127.75548880919814 " fill="rgb(39,225,181)" stroke="rgb(39,225,181)" stroke-width="2" /><path d="M 491.1116648372263,87.04530185088515 " fill="rgb(22,153,33)" stroke="rgb(22,153,33)" stroke-width="2" /><path d="M +491.1116648372263,87.04530185088515 L 491.8021140154451,88.27554179355502 " fill="rgb(22,153,33)" stroke="rgb(22,153,33)" stroke-width="2" /><path d="M +491.8021140154451,88.27554179355502 L 494.60274077020586,88.32581819035113 " fill="rgb(22,153,33)" stroke="rgb(22,153,33)" stroke-width="2" /><path d="M +494.60274077020586,88.32581819035113 L 500.4918847139925,86.31364838220179 " fill="rgb(22,153,33)" stroke="rgb(22,153,33)" stroke-width="2" /><path d="M +500.4918847139925,86.31364838220179 L 509.69382918439806,83.9544101152569 " fill="rgb(22,153,33)" stroke="rgb(22,153,33)" stroke-width="2" /><path d="M +509.69382918439806,83.9544101152569 L 520.3620318230242,81.00405321456492 " fill="rgb(22,153,33)" stroke="rgb(22,153,33)" stroke-width="2" /><path d="M +520.3620318230242,81.00405321456492 L 530.3233561571687,77.53251449204981 " fill="rgb(22,153,33)" stroke="rgb(22,153,33)" stroke-width="2" /><path d="M +530.3233561571687,77.53251449204981 L 540.5470213945955,74.23767850734293 " fill="rgb(22,153,33)" stroke="rgb(22,153,33)" stroke-width="2" /><path d="M +540.5470213945955,74.23767850734293 L 549.5062664803118,72.23224685527384 " fill="rgb(22,153,33)" stroke="rgb(22,153,33)" stroke-width="2" /><path d="M +549.5062664803118,72.23224685527384 L 557.4751607235521,71.30542532540858 " fill="rgb(22,153,33)" stroke="rgb(22,153,33)" stroke-width="2" /><path d="M +557.4751607235521,71.30542532540858 L 563.2169482763857,70.43261886574328 " fill="rgb(22,153,33)" stroke="rgb(22,153,33)" stroke-width="2" /><path d="M +563.2169482763857,70.43261886574328 L 568.7441877182573,71.97836519218981 " fill="rgb(22,153,33)" stroke="rgb(22,153,33)" stroke-width="2" /><path d="M +568.7441877182573,71.97836519218981 L 573.0587185081095,74.16700915433466 " fill="rgb(22,153,33)" stroke="rgb(22,153,33)" stroke-width="2" /><path d="M 579.9319923575968,90.03815249539912 " fill="rgb(85,91,185)" stroke="rgb(85,91,185)" stroke-width="2" /><path d="M +579.9319923575968,90.03815249539912 L 580.0098084751517,91.78623021580279 " fill="rgb(85,91,185)" stroke="rgb(85,91,185)" stroke-width="2" /><path d="M +580.0098084751517,91.78623021580279 L 580.0833702739328,94.47855562902987 " fill="rgb(85,91,185)" stroke="rgb(85,91,185)" stroke-width="2" /><path d="M +580.0833702739328,94.47855562902987 L 579.9975219462067,99.3642068002373 " fill="rgb(85,91,185)" stroke="rgb(85,91,185)" stroke-width="2" /><path d="M 623.0953613016754,83.01022768951952 " fill="rgb(18,115,136)" stroke="rgb(18,115,136)" stroke-width="2" /><path d="M +623.0953613016754,83.01022768951952 L 623.1611646246165,84.78289634920657 " fill="rgb(18,115,136)" stroke="rgb(18,115,136)" stroke-width="2" /><path d="M +623.1611646246165,84.78289634920657 L 624.7579393815249,90.97868950106204 " fill="rgb(18,115,136)" stroke="rgb(18,115,136)" stroke-width="2" /><path d="M +624.7579393815249,90.97868950106204 L 626.402075542137,100.31080634333193 " fill="rgb(18,115,136)" stroke="rgb(18,115,136)" stroke-width="2" /><path d="M +626.402075542137,100.31080634333193 L 626.1293748114258,107.14187116362154 " fill="rgb(18,115,136)" stroke="rgb(18,115,136)" stroke-width="2" /><path d="M +626.1293748114258,107.14187116362154 L 628.0255721602589,114.8816201183945 " fill="rgb(18,115,136)" stroke="rgb(18,115,136)" stroke-width="2" /><path d="M +628.0255721602589,114.8816201183945 L 629.7186039481312,120.00189752317965 " fill="rgb(18,115,136)" stroke="rgb(18,115,136)" stroke-width="2" /><path d="M +629.7186039481312,120.00189752317965 L 630.7143849227577,121.19406231679022 " fill="rgb(18,115,136)" stroke="rgb(18,115,136)" stroke-width="2" /><path d="M +630.7143849227577,121.19406231679022 L 636.5561252925545,119.94875148870051 " fill="rgb(18,115,136)" stroke="rgb(18,115,136)" stroke-width="2" /><path d="M +636.5561252925545,119.94875148870051 L 643.742170939222,113.07245866395533 " fill="rgb(18,115,136)" stroke="rgb(18,115,136)" stroke-width="2" /><path d="M +643.742170939222,113.07245866395533 L 651.6824144218117,103.20266441442072 " fill="rgb(18,115,136)" stroke="rgb(18,115,136)" stroke-width="2" /><path d="M +651.6824144218117,103.20266441442072 L 659.4936853740364,94.24441770650446 " fill="rgb(18,115,136)" stroke="rgb(18,115,136)" stroke-width="2" /><path d="M +659.4936853740364,94.24441770650446 L 664.7767806146294,88.59476164914668 " fill="rgb(18,115,136)" stroke="rgb(18,115,136)" stroke-width="2" /><path d="M +664.7767806146294,88.59476164914668 L 668.6004206631333,87.80364827252924 " fill="rgb(18,115,136)" stroke="rgb(18,115,136)" stroke-width="2" /><path d="M +668.6004206631333,87.80364827252924 L 671.4103436563164,89.98680950142443 " fill="rgb(18,115,136)" stroke="rgb(18,115,136)" stroke-width="2" /><path d="M +671.4103436563164,89.98680950142443 L 674.6339392755181,97.11762310005724 " fill="rgb(18,115,136)" stroke="rgb(18,115,136)" stroke-width="2" /><path d="M +674.6339392755181,97.11762310005724 L 676.7970907781273,102.80629039742053 " fill="rgb(18,115,136)" stroke="rgb(18,115,136)" stroke-width="2" /><path d="M +676.7970907781273,102.80629039742053 L 681.3616782519966,108.59626115299761 " fill="rgb(18,115,136)" stroke="rgb(18,115,136)" stroke-width="2" /><path d="M +681.3616782519966,108.59626115299761 L 686.284558782354,111.04075581766665 " fill="rgb(18,115,136)" stroke="rgb(18,115,136)" stroke-width="2" /><path d="M +686.284558782354,111.04075581766665 L 694.580212244764,113.51084233261645 " fill="rgb(18,115,136)" stroke="rgb(18,115,136)" stroke-width="2" /><path d="M +694.580212244764,113.51084233261645 L 702.5280219409615,111.41875610686839 " fill="rgb(18,115,136)" stroke="rgb(18,115,136)" stroke-width="2" /><path d="M +702.5280219409615,111.41875610686839 L 711.9477504584938,108.64522919990122 " fill="rgb(18,115,136)" stroke="rgb(18,115,136)" stroke-width="2" /><path d="M +711.9477504584938,108.64522919990122 L 721.9219929073006,103.2977067027241 " fill="rgb(18,115,136)" stroke="rgb(18,115,136)" stroke-width="2" /><path d="M +721.9219929073006,103.2977067027241 L 731.8914264533669,97.57049546577036 " fill="rgb(18,115,136)" stroke="rgb(18,115,136)" stroke-width="2" /><path d="M +731.8914264533669,97.57049546577036 L 741.2785959336907,92.34243021346629 " fill="rgb(18,115,136)" stroke="rgb(18,115,136)" stroke-width="2" /><path d="M +741.2785959336907,92.34243021346629 L 748.6655706260353,88.96750257350504 " fill="rgb(18,115,136)" stroke="rgb(18,115,136)" stroke-width="2" /><path d="M +748.6655706260353,88.96750257350504 L 754.7524035070091,90.61196715570986 " fill="rgb(18,115,136)" stroke="rgb(18,115,136)" stroke-width="2" /><path d="M +754.7524035070091,90.61196715570986 L 760.3035199735314,95.00164092518389 " fill="rgb(18,115,136)" stroke="rgb(18,115,136)" stroke-width="2" /><path d="M +760.3035199735314,95.00164092518389 L 764.9677175376564,101.86589122749865 " fill="rgb(18,115,136)" stroke="rgb(18,115,136)" stroke-width="2" /><path d="M +764.9677175376564,101.86589122749865 L 770.4792612884194,110.40699363686144 " fill="rgb(18,115,136)" stroke="rgb(18,115,136)" stroke-width="2" /><path d="M +770.4792612884194,110.40699363686144 L 778.5945952031761,118.81605208851397 " fill="rgb(18,115,136)" stroke="rgb(18,115,136)" stroke-width="2" /><path d="M +778.5945952031761,118.81605208851397 L 788.945463905111,124.62113440968096 " fill="rgb(18,115,136)" stroke="rgb(18,115,136)" stroke-width="2" /><path d="M +788.945463905111,124.62113440968096 L 802.3071420285851,127.93766231276095 " fill="rgb(18,115,136)" stroke="rgb(18,115,136)" stroke-width="2" /><path d="M 826.9049227330834,111.65597886778414 " fill="rgb(202,203,143)" stroke="rgb(202,203,143)" stroke-width="2" /><path d="M +826.9049227330834,111.65597886778414 L 825.1333740446717,111.84291143901646 " fill="rgb(202,203,143)" stroke="rgb(202,203,143)" stroke-width="2" /><path d="M +825.1333740446717,111.84291143901646 L 826.8283602688462,110.6240211892873 " fill="rgb(202,203,143)" stroke="rgb(202,203,143)" stroke-width="2" /><path d="M +826.8283602688462,110.6240211892873 L 834.1504719946533,108.2703356910497 " fill="rgb(202,203,143)" stroke="rgb(202,203,143)" stroke-width="2" /><path d="M +834.1504719946533,108.2703356910497 L 843.7093016598374,101.08265687711537 " fill="rgb(202,203,143)" stroke="rgb(202,203,143)" stroke-width="2" /><path d="M +843.7093016598374,101.08265687711537 L 855.25017590262,93.64872266538441 " fill="rgb(202,203,143)" stroke="rgb(202,203,143)" stroke-width="2" /><path d="M +855.25017590262,93.64872266538441 L 867.0799467060715,85.40739406831563 " fill="rgb(202,203,143)" stroke="rgb(202,203,143)" stroke-width="2" /><path d="M +867.0799467060715,85.40739406831563 L 876.1856469605118,76.83202375657856 " fill="rgb(202,203,143)" stroke="rgb(202,203,143)" stroke-width="2" /><path d="M +876.1856469605118,76.83202375657856 L 881.9382003042847,69.77747072465718 " fill="rgb(202,203,143)" stroke="rgb(202,203,143)" stroke-width="2" /><path d="M +881.9382003042847,69.77747072465718 L 883.7273363862187,64.51642920263112 " fill="rgb(202,203,143)" stroke="rgb(202,203,143)" stroke-width="2" /><path d="M +883.7273363862187,64.51642920263112 L 882.7131568733603,60.12752880342305 " fill="rgb(202,203,143)" stroke="rgb(202,203,143)" stroke-width="2" /><path d="M +882.7131568733603,60.12752880342305 L 877.0933240000159,56.84391398914158 " fill="rgb(202,203,143)" stroke="rgb(202,203,143)" stroke-width="2" /><path d="M +877.0933240000159,56.84391398914158 L 867.3860674444586,56.61913336254656 " fill="rgb(202,203,143)" stroke="rgb(202,203,143)" stroke-width="2" /><path d="M +867.3860674444586,56.61913336254656 L 856.7492216173559,61.78187728859484 " fill="rgb(202,203,143)" stroke="rgb(202,203,143)" stroke-width="2" /><path d="M +856.7492216173559,61.78187728859484 L 843.9836030546576,69.94696856476367 " fill="rgb(202,203,143)" stroke="rgb(202,203,143)" stroke-width="2" /><path d="M +843.9836030546576,69.94696856476367 L 831.8833082262427,80.50492168404162 " fill="rgb(202,203,143)" stroke="rgb(202,203,143)" stroke-width="2" /><path d="M +831.8833082262427,80.50492168404162 L 824.1148107592016,92.00996638275683 " fill="rgb(202,203,143)" stroke="rgb(202,203,143)" stroke-width="2" /><path d="M +824.1148107592016,92.00996638275683 L 823.131570154801,103.3371710870415 " fill="rgb(202,203,143)" stroke="rgb(202,203,143)" stroke-width="2" /><path d="M +823.131570154801,103.3371710870415 L 827.4386610928923,112.00593889690936 " fill="rgb(202,203,143)" stroke="rgb(202,203,143)" stroke-width="2" /><path d="M +827.4386610928923,112.00593889690936 L 835.5447175446898,118.3011180255562 " fill="rgb(202,203,143)" stroke="rgb(202,203,143)" stroke-width="2" /><path d="M +835.5447175446898,118.3011180255562 L 848.4749081078917,123.2112589571625 " fill="rgb(202,203,143)" stroke="rgb(202,203,143)" stroke-width="2" /><path d="M +848.4749081078917,123.2112589571625 L 863.9144136849791,124.83768434263766 " fill="rgb(202,203,143)" stroke="rgb(202,203,143)" stroke-width="2" /><path d="M +863.9144136849791,124.83768434263766 L 882.310923570767,124.80226051295176 " fill="rgb(202,203,143)" stroke="rgb(202,203,143)" stroke-width="2" /><path d="M +882.310923570767,124.80226051295176 L 900.6406381074339,121.66921179974452 " fill="rgb(202,203,143)" stroke="rgb(202,203,143)" stroke-width="2" /><path d="M +900.6406381074339,121.66921179974452 L 916.7759540025145,116.3766334601678 " fill="rgb(202,203,143)" stroke="rgb(202,203,143)" stroke-width="2" /><path d="M +916.7759540025145,116.3766334601678 L 931.6024806443602,110.46451669419184 " fill="rgb(202,203,143)" stroke="rgb(202,203,143)" stroke-width="2" /></svg>