<?xml version="1.0" encoding="utf-8" ?>
<svg baseProfile="full" height="350.60986729804426" version="1.1" width="760.0781696103513" xmlns="http://www.w3.org/2000/svg" xmlns:ev="http://www.w3.org/2001/xml-events" xmlns:xlink="http://www.w3.org/1999/xlink"><defs /><rect fill="white" height="350.60986729804426" width="760.0781696103513" x="0" y="0" /><path d="M 25.0,123.6114501953125 " fill="rgb(121,13,172)" stroke="rgb(121,13,172)" stroke-width="2" /><path d="M 101.14724159240723,25.0 " fill="rgb(120,27,85)" stroke="rgb(120,27,85)" stroke-width="2" /><path d="M +101.14724159240723,25.0 L 101.98929205536842,27.581782042980194 " fill="rgb(120,27,85)" stroke="rgb(120,27,85)" stroke-width="2" /><path d="M +101.98929205536842,27.581782042980194 L 102.28145686909556,34.7291174530983 " fill="rgb(120,27,85)" stroke="rgb(120,27,85)" stroke-width="2" /><path d="M +102.28145686909556,34.7291174530983 L 104.83177898451686,49.14111405611038 " fill="rgb(120,27,85)" stroke="rgb(120,27,85)" stroke-width="2" /><path d="M +104.83177898451686,49.14111405611038 L 108.8991048745811,69.06986147165298 " fill="rgb(120,27,85)" stroke="rgb(120,27,85)" stroke-width="2" /><path d="M +108.8991048745811,69.06986147165298 L 112.56542978808284,92.30158239603043 " fill="rgb(120,27,85)" stroke="rgb(120,27,85)" stroke-width="2" /><path d="M +112.56542978808284,92.30158239603043 L 117.16178862378001,116.42864137887955 " fill="rgb(120,27,85)" stroke="rgb(120,27,85)" stroke-width="2" /><path d="M +117.16178862378001,116.42864137887955 L 120.95970271155238,140.67048460245132 " fill="rgb(120,27,85)" stroke="rgb(120,27,85)" stroke-width="2" /><path d="M +120.95970271155238,140.67048460245132 L 124.55376027151942,162.02794700860977 " fill="rgb(120,27,85)" stroke="rgb(120,27,85)" stroke-width="2" /><path d="M +124.55376027151942,162.02794700860977 L 127.11134580895305,178.4128287434578 " fill="rgb(120,27,85)" stroke="rgb(120,27,85)" stroke-width="2" /><path d="M +127.11134580895305,178.4128287434578 L 128.92590207979083,188.16178768873215 " fill="rgb(120,27,85)" stroke="rgb(120,27,85)" stroke-width="2" /><path d="M +128.92590207979083,188.16178768873215 L 129.7651214711368,190.41279435157776 " fill="rgb(120,27,85)" stroke="rgb(120,27,85)" stroke-width="2" /><path d="M +129.7651214711368,190.41279435157776 L 130.015277415514,190.31592735089362 " fill="rgb(120,27,85)" stroke="rgb(120,27,85)" stroke-width="2" /><path d="M +130.015277415514,190.31592735089362 L 127.52477183938026,183.0829364899546 " fill="rgb(120,27,85)" stroke="rgb(120,27,85)" stroke-width="2" /><path d="M +127.52477183938026,183.0829364899546 L 123.47396895289421,171.17191144265234 " fill="rgb(120,27,85)" stroke="rgb(120,27,85)" stroke-width="2" /><path d="M +123.47396895289421,171.17191144265234 L 117.95313701033592,156.1726433876902 " fill="rgb(120,27,85)" stroke="rgb(120,27,85)" stroke-width="2" /><path d="M +117.95313701033592,156.1726433876902 L 110.60712084174156,139.7201902512461 " fill="rgb(120,27,85)" stroke="rgb(120,27,85)" stroke-width="2" /><path d="M +110.60712084174156,139.7201902512461 L 102.70721957087517,124.05107804574072 " fill="rgb(120,27,85)" stroke="rgb(120,27,85)" stroke-width="2" /><path d="M +102.70721957087517,124.05107804574072 L 96.1495028436184,108.67267319001257 " fill="rgb(120,27,85)" stroke="rgb(120,27,85)" stroke-width="2" /><path d="M +96.1495028436184,108.67267319001257 L 91.46323755383492,96.44367166794837 " fill="rgb(120,27,85)" stroke="rgb(120,27,85)" stroke-width="2" /><path d="M +91.46323755383492,96.44367166794837 L 89.02466267347336,84.52313491143286 " fill="rgb(120,27,85)" stroke="rgb(120,27,85)" stroke-width="2" /><path d="M +89.02466267347336,84.52313491143286 L 89.53525818884373,73.03983517922461 " fill="rgb(120,27,85)" stroke="rgb(120,27,85)" stroke-width="2" /><path d="M +89.53525818884373,73.03983517922461 L 93.53865332901478,65.29980846680701 " fill="rgb(120,27,85)" stroke="rgb(120,27,85)" stroke-width="2" /><path d="M +93.53865332901478,65.29980846680701 L 101.43724448978901,60.59067734517157 " fill="rgb(120,27,85)" stroke="rgb(120,27,85)" stroke-width="2" /><path d="M +101.43724448978901,60.59067734517157 L 113.04656393826008,59.370839232578874 " fill="rgb(120,27,85)" stroke="rgb(120,27,85)" stroke-width="2" /><path d="M +113.04656393826008,59.370839232578874 L 127.78845317661762,61.6911628190428 " fill="rgb(120,27,85)" stroke="rgb(120,27,85)" stroke-width="2" /><path d="M +127.78845317661762,61.6911628190428 L 142.87511117756367,66.42488860525191 " fill="rgb(120,27,85)" stroke="rgb(120,27,85)" stroke-width="2" /><path d="M +142.87511117756367,66.42488860525191 L 156.31306536495686,73.32594596780837 " fill="rgb(120,27,85)" stroke="rgb(120,27,85)" stroke-width="2" /><path d="M +156.31306536495686,73.32594596780837 L 165.39303191006184,83.06978904642165 " fill="rgb(120,27,85)" stroke="rgb(120,27,85)" stroke-width="2" /><path d="M +165.39303191006184,83.06978904642165 L 170.01070328056812,95.38015686906874 " fill="rgb(120,27,85)" stroke="rgb(120,27,85)" stroke-width="2" /><path d="M +170.01070328056812,95.38015686906874 L 168.67951072752476,107.00212323106825 " fill="rgb(120,27,85)" stroke="rgb(120,27,85)" stroke-width="2" /><path d="M +168.67951072752476,107.00212323106825 L 164.56959553062916,118.72521006502211 " fill="rgb(120,27,85)" stroke="rgb(120,27,85)" stroke-width="2" /><path d="M +164.56959553062916,118.72521006502211 L 158.32260437309742,126.54097699560225 " fill="rgb(120,27,85)" stroke="rgb(120,27,85)" stroke-width="2" /><path d="M +158.32260437309742,126.54097699560225 L 151.71030052006245,132.15207659639418 " fill="rgb(120,27,85)" stroke="rgb(120,27,85)" stroke-width="2" /><path d="M +151.71030052006245,132.15207659639418 L 146.01602919399738,135.68921410478652 " fill="rgb(120,27,85)" stroke="rgb(120,27,85)" stroke-width="2" /><path d="M +146.01602919399738,135.68921410478652 L 143.09851206839085,138.3099960628897 " fill="rgb(120,27,85)" stroke="rgb(120,27,85)" stroke-width="2" /><path d="M +143.09851206839085,138.3099960628897 L 143.93029555678368,138.5696532856673 " fill="rgb(120,27,85)" stroke="rgb(120,27,85)" stroke-width="2" /><path d="M +143.93029555678368,138.5696532856673 L 147.03347131609917,139.36433422379196 " fill="rgb(120,27,85)" stroke="rgb(120,27,85)" stroke-width="2" /><path d="M +147.03347131609917,139.36433422379196 L 155.04815384745598,141.1296411138028 " fill="rgb(120,27,85)" stroke="rgb(120,27,85)" stroke-width="2" /><path d="M +155.04815384745598,141.1296411138028 L 167.4071066081524,147.2268362622708 " fill="rgb(120,27,85)" stroke="rgb(120,27,85)" stroke-width="2" /><path d="M +167.4071066081524,147.2268362622708 L 180.49337074160576,152.66794162802398 " fill="rgb(120,27,85)" stroke="rgb(120,27,85)" stroke-width="2" /><path d="M +180.49337074160576,152.66794162802398 L 193.0668680369854,162.05366629175842 " fill="rgb(120,27,85)" stroke="rgb(120,27,85)" stroke-width="2" /><path d="M +193.0668680369854,162.05366629175842 L 202.8337101638317,173.57993858866394 " fill="rgb(120,27,85)" stroke="rgb(120,27,85)" stroke-width="2" /><path d="M +202.8337101638317,173.57993858866394 L 207.61474564671516,186.2841524463147 " fill="rgb(120,27,85)" stroke="rgb(120,27,85)" stroke-width="2" /><path d="M +207.61474564671516,186.2841524463147 L 207.3908618465066,197.44533675722778 " fill="rgb(120,27,85)" stroke="rgb(120,27,85)" stroke-width="2" /><path d="M +207.3908618465066,197.44533675722778 L 201.96143064647913,207.61675613932312 " fill="rgb(120,27,85)" stroke="rgb(120,27,85)" stroke-width="2" /><path d="M +201.96143064647913,207.61675613932312 L 191.76479253917933,216.0972477775067 " fill="rgb(120,27,85)" stroke="rgb(120,27,85)" stroke-width="2" /><path d="M +191.76479253917933,216.0972477775067 L 179.03680238872766,223.2648618798703 " fill="rgb(120,27,85)" stroke="rgb(120,27,85)" stroke-width="2" /><path d="M +179.03680238872766,223.2648618798703 L 164.32066354900599,224.92357972078025 " fill="rgb(120,27,85)" stroke="rgb(120,27,85)" stroke-width="2" /><path d="M +164.32066354900599,224.92357972078025 L 150.2986792102456,226.6272189002484 " fill="rgb(120,27,85)" stroke="rgb(120,27,85)" stroke-width="2" /><path d="M +150.2986792102456,226.6272189002484 L 137.67764005810022,227.09507605992258 " fill="rgb(120,27,85)" stroke="rgb(120,27,85)" stroke-width="2" /><path d="M 258.2117548957467,159.78532454930246 " fill="rgb(121,75,237)" stroke="rgb(121,75,237)" stroke-width="2" /><path d="M +258.2117548957467,159.78532454930246 L 258.1251342315227,158.76858755014837 " fill="rgb(121,75,237)" stroke="rgb(121,75,237)" stroke-width="2" /><path d="M +258.1251342315227,158.76858755014837 L 251.24372434802353,155.49896999262273 " fill="rgb(121,75,237)" stroke="rgb(121,75,237)" stroke-width="2" /><path d="M +251.24372434802353,155.49896999262273 L 243.89423382468522,155.65170341171324 " fill="rgb(121,75,237)" stroke="rgb(121,75,237)" stroke-width="2" /><path d="M +243.89423382468522,155.65170341171324 L 235.8023936767131,161.13473408855498 " fill="rgb(121,75,237)" stroke="rgb(121,75,237)" stroke-width="2" /><path d="M +235.8023936767131,161.13473408855498 L 227.70673883147538,166.52951114811003 " fill="rgb(121,75,237)" stroke="rgb(121,75,237)" stroke-width="2" /><path d="M +227.70673883147538,166.52951114811003 L 223.14374488778412,176.716313296929 " fill="rgb(121,75,237)" stroke="rgb(121,75,237)" stroke-width="2" /><path d="M +223.14374488778412,176.716313296929 L 222.13719901628792,189.1067396942526 " fill="rgb(121,75,237)" stroke="rgb(121,75,237)" stroke-width="2" /><path d="M +222.13719901628792,189.1067396942526 L 225.1122745592147,201.40392416156828 " fill="rgb(121,75,237)" stroke="rgb(121,75,237)" stroke-width="2" /><path d="M +225.1122745592147,201.40392416156828 L 233.21406033821404,214.42252629436553 " fill="rgb(121,75,237)" stroke="rgb(121,75,237)" stroke-width="2" /><path d="M +233.21406033821404,214.42252629436553 L 243.58283785171807,221.82661109603941 " fill="rgb(121,75,237)" stroke="rgb(121,75,237)" stroke-width="2" /><path d="M +243.58283785171807,221.82661109603941 L 256.2367227394134,223.79306190647185 " fill="rgb(121,75,237)" stroke="rgb(121,75,237)" stroke-width="2" /><path d="M +256.2367227394134,223.79306190647185 L 267.23495271988213,221.37108289636672 " fill="rgb(121,75,237)" stroke="rgb(121,75,237)" stroke-width="2" /><path d="M +267.23495271988213,221.37108289636672 L 275.80525604076684,214.49078821577132 " fill="rgb(121,75,237)" stroke="rgb(121,75,237)" stroke-width="2" /><path d="M +275.80525604076684,214.49078821577132 L 281.92608264274895,203.55777048505843 " fill="rgb(121,75,237)" stroke="rgb(121,75,237)" stroke-width="2" /><path d="M +281.92608264274895,203.55777048505843 L 284.6417259890586,190.02316021360457 " fill="rgb(121,75,237)" stroke="rgb(121,75,237)" stroke-width="2" /><path d="M +284.6417259890586,190.02316021360457 L 284.42155725322664,176.68279075063765 " fill="rgb(121,75,237)" stroke="rgb(121,75,237)" stroke-width="2" /><path d="M +284.42155725322664,176.68279075063765 L 280.57214505039155,165.21564268507063 " fill="rgb(121,75,237)" stroke="rgb(121,75,237)" stroke-width="2" /><path d="M +280.57214505039155,165.21564268507063 L 274.51245493255556,158.08530353941023 " fill="rgb(121,75,237)" stroke="rgb(121,75,237)" stroke-width="2" /><path d="M +274.51245493255556,158.08530353941023 L 267.63251609168947,154.39496927894652 " fill="rgb(121,75,237)" stroke="rgb(121,75,237)" stroke-width="2" /><path d="M +267.63251609168947,154.39496927894652 L 261.7773062642664,154.69104283489287 " fill="rgb(121,75,237)" stroke="rgb(121,75,237)" stroke-width="2" /><path d="M 320.52415913902223,155.68343535996974 " fill="rgb(99,191,109)" stroke="rgb(99,191,109)" stroke-width="2" /><path d="M +320.52415913902223,155.68343535996974 L 321.85541830025613,161.40084103681147 " fill="rgb(99,191,109)" stroke="rgb(99,191,109)" stroke-width="2" /><path d="M +321.85541830025613,161.40084103681147 L 323.2562411483377,171.2909020576626 " fill="rgb(99,191,109)" stroke="rgb(99,191,109)" stroke-width="2" /><path d="M +323.2562411483377,171.2909020576626 L 325.3394504543394,184.31153790093958 " fill="rgb(99,191,109)" stroke="rgb(99,191,109)" stroke-width="2" /><path d="M +325.3394504543394,184.31153790093958 L 327.09819874726236,197.88757697679102 " fill="rgb(99,191,109)" stroke="rgb(99,191,109)" stroke-width="2" /><path d="M +327.09819874726236,197.88757697679102 L 329.8274379130453,210.77291742898524 " fill="rgb(99,191,109)" stroke="rgb(99,191,109)" stroke-width="2" /><path d="M +329.8274379130453,210.77291742898524 L 332.8291510697454,220.56954042054713 " fill="rgb(99,191,109)" stroke="rgb(99,191,109)" stroke-width="2" /><path d="M +332.8291510697454,220.56954042054713 L 335.6873723026365,226.45778195001185 " fill="rgb(99,191,109)" stroke="rgb(99,191,109)" stroke-width="2" /><path d="M +335.6873723026365,226.45778195001185 L 338.51934394799173,226.48310818243772 " fill="rgb(99,191,109)" stroke="rgb(99,191,109)" stroke-width="2" /><path d="M +338.51934394799173,226.48310818243772 L 342.1057855244726,222.67781980801374 " fill="rgb(99,191,109)" stroke="rgb(99,191,109)" stroke-width="2" /><path d="M +342.1057855244726,222.67781980801374 L 346.66874579153955,213.0619961814955 " fill="rgb(99,191,109)" stroke="rgb(99,191,109)" stroke-width="2" /><path d="M +346.66874579153955,213.0619961814955 L 351.29254690371454,198.16627093125135 " fill="rgb(99,191,109)" stroke="rgb(99,191,109)" stroke-width="2" /><path d="M +351.29254690371454,198.16627093125135 L 359.6637665387243,182.663059909828 " fill="rgb(99,191,109)" stroke="rgb(99,191,109)" stroke-width="2" /><path d="M +359.6637665387243,182.663059909828 L 368.7534414883703,165.95383234787732 " fill="rgb(99,191,109)" stroke="rgb(99,191,109)" stroke-width="2" /><path d="M +368.7534414883703,165.95383234787732 L 378.8143931981176,154.32419367600232 " fill="rgb(99,191,109)" stroke="rgb(99,191,109)" stroke-width="2" /><path d="M +378.8143931981176,154.32419367600232 L 388.49498144350946,149.94610496331006 " fill="rgb(99,191,109)" stroke="rgb(99,191,109)" stroke-width="2" /><path d="M +388.49498144350946,149.94610496331006 L 396.31776741705835,149.7836414212361 " fill="rgb(99,191,109)" stroke="rgb(99,191,109)" stroke-width="2" /><path d="M +396.31776741705835,149.7836414212361 L 403.81218186579645,155.79814644996077 " fill="rgb(99,191,109)" stroke="rgb(99,191,109)" stroke-width="2" /><path d="M +403.81218186579645,155.79814644996077 L 410.5294572468847,168.34652157966048 " fill="rgb(99,191,109)" stroke="rgb(99,191,109)" stroke-width="2" /><path d="M +410.5294572468847,168.34652157966048 L 415.51124862395227,184.79595156852156 " fill="rgb(99,191,109)" stroke="rgb(99,191,109)" stroke-width="2" /><path d="M +415.51124862395227,184.79595156852156 L 419.5500724669546,203.85023208800703 " fill="rgb(99,191,109)" stroke="rgb(99,191,109)" stroke-width="2" /><path d="M +419.5500724669546,203.85023208800703 L 424.037968730554,220.69842787925154 " fill="rgb(99,191,109)" stroke="rgb(99,191,109)" stroke-width="2" /><path d="M +424.037968730554,220.69842787925154 L 428.8279145117849,233.80254598800093 " fill="rgb(99,191,109)" stroke="rgb(99,191,109)" stroke-width="2" /><path d="M +428.8279145117849,233.80254598800093 L 433.66550407372415,240.72377535048872 " fill="rgb(99,191,109)" stroke="rgb(99,191,109)" stroke-width="2" /><path d="M +433.66550407372415,240.72377535048872 L 438.43952558003366,242.76585074607283 " fill="rgb(99,191,109)" stroke="rgb(99,191,109)" stroke-width="2" /><path d="M 472.5381054636091,125.50363990012556 " fill="rgb(75,73,31)" stroke="rgb(75,73,31)" stroke-width="2" /><path d="M +472.5381054636091,125.50363990012556 L 471.8554614391178,128.17345085088164 " fill="rgb(75,73,31)" stroke="rgb(75,73,31)" stroke-width="2" /><path d="M +471.8554614391178,128.17345085088164 L 472.44501809589565,132.5890192622319 " fill="rgb(75,73,31)" stroke="rgb(75,73,31)" stroke-width="2" /><path d="M +472.44501809589565,132.5890192622319 L 472.30466121807694,140.8659532899037 " fill="rgb(75,73,31)" stroke="rgb(75,73,31)" stroke-width="2" /><path d="M +472.30466121807694,140.8659532899037 L 473.83456030860543,153.6529222363606 " fill="rgb(75,73,31)" stroke="rgb(75,73,31)" stroke-width="2" /><path d="M +473.83456030860543,153.6529222363606 L 477.57012316957116,172.6194921368733 " fill="rgb(75,73,31)" stroke="rgb(75,73,31)" stroke-width="2" /><path d="M +477.57012316957116,172.6194921368733 L 481.8954128958285,191.3837734097615 " fill="rgb(75,73,31)" stroke="rgb(75,73,31)" stroke-width="2" /><path d="M +481.8954128958285,191.3837734097615 L 487.091740462929,209.8164943093434 " fill="rgb(75,73,31)" stroke="rgb(75,73,31)" stroke-width="2" /><path d="M +487.091740462929,209.8164943093434 L 493.0853486992419,231.63081201259047 " fill="rgb(75,73,31)" stroke="rgb(75,73,31)" stroke-width="2" /><path d="M +493.0853486992419,231.63081201259047 L 497.29631105437875,250.67009719554335 " fill="rgb(75,73,31)" stroke="rgb(75,73,31)" stroke-width="2" /><path d="M +497.29631105437875,250.67009719554335 L 500.19248524680734,270.89433225337416 " fill="rgb(75,73,31)" stroke="rgb(75,73,31)" stroke-width="2" /><path d="M +500.19248524680734,270.89433225337416 L 501.1783524788916,286.3267401093617 " fill="rgb(75,73,31)" stroke="rgb(75,73,31)" stroke-width="2" /><path d="M +501.1783524788916,286.3267401093617 L 500.706319604069,301.24759706202894 " fill="rgb(75,73,31)" stroke="rgb(75,73,31)" stroke-width="2" /><path d="M +500.706319604069,301.24759706202894 L 498.93202224746346,312.44327100459486 " fill="rgb(75,73,31)" stroke="rgb(75,73,31)" stroke-width="2" /><path d="M +498.93202224746346,312.44327100459486 L 495.7054931856692,319.78329511824995 " fill="rgb(75,73,31)" stroke="rgb(75,73,31)" stroke-width="2" /><path d="M +495.7054931856692,319.78329511824995 L 491.7965138889849,324.2533642286435 " fill="rgb(75,73,31)" stroke="rgb(75,73,31)" stroke-width="2" /><path d="M +491.7965138889849,324.2533642286435 L 486.1240870691836,325.60986729804426 " fill="rgb(75,73,31)" stroke="rgb(75,73,31)" stroke-width="2" /><path d="M +486.1240870691836,325.60986729804426 L 479.09289130941033,322.83249529544264 " fill="rgb(75,73,31)" stroke="rgb(75,73,31)" stroke-width="2" /><path d="M +479.09289130941033,322.83249529544264 L 470.10352263227105,313.72745903674513 " fill="rgb(75,73,31)" stroke="rgb(75,73,31)" stroke-width="2" /><path d="M 496.38096461072564,136.8361702794209 " fill="rgb(57,173,170)" stroke="rgb(57,173,170)" stroke-width="2" /><path d="M +496.38096461072564,136.8361702794209 L 495.23739801719785,136.64576203096658 " fill="rgb(57,173,170)" stroke="rgb(57,173,170)" stroke-width="2" /><path d="M +495.23739801719785,136.64576203096658 L 494.9002597294748,135.4554917709902 " fill="rgb(57,173,170)" stroke="rgb(57,173,170)" stroke-width="2" /><path d="M +494.9002597294748,135.4554917709902 L 494.69934958964586,134.2116028117016 " fill="rgb(57,173,170)" stroke="rgb(57,173,170)" stroke-width="2" /><path d="M +494.69934958964586,134.2116028117016 L 493.89256309717894,134.2417889717035 " fill="rgb(57,173,170)" stroke="rgb(57,173,170)" stroke-width="2" /><path d="M 547.9557211324573,174.246061432641 " fill="rgb(69,110,221)" stroke="rgb(69,110,221)" stroke-width="2" /><path d="M +547.9557211324573,174.246061432641 L 545.3613097593188,173.71244898764417 " fill="rgb(69,110,221)" stroke="rgb(69,110,221)" stroke-width="2" /><path d="M +545.3613097593188,173.71244898764417 L 541.2774811312556,173.28214711276814 " fill="rgb(69,110,221)" stroke="rgb(69,110,221)" stroke-width="2" /><path d="M +541.2774811312556,173.28214711276814 L 535.3811405226588,175.08414259878919 " fill="rgb(69,110,221)" stroke="rgb(69,110,221)" stroke-width="2" /><path d="M +535.3811405226588,175.08414259878919 L 528.7185029312968,179.58307108609006 " fill="rgb(69,110,221)" stroke="rgb(69,110,221)" stroke-width="2" /><path d="M +528.7185029312968,179.58307108609006 L 523.1745968386531,190.0194354983978 " fill="rgb(69,110,221)" stroke="rgb(69,110,221)" stroke-width="2" /><path d="M +523.1745968386531,190.0194354983978 L 519.414747171104,203.53088817326352 " fill="rgb(69,110,221)" stroke="rgb(69,110,221)" stroke-width="2" /><path d="M +519.414747171104,203.53088817326352 L 518.652804903686,216.46799764363095 " fill="rgb(69,110,221)" stroke="rgb(69,110,221)" stroke-width="2" /><path d="M +518.652804903686,216.46799764363095 L 522.3369623348117,227.379531476181 " fill="rgb(69,110,221)" stroke="rgb(69,110,221)" stroke-width="2" /><path d="M +522.3369623348117,227.379531476181 L 529.5715613290668,234.51905748574063 " fill="rgb(69,110,221)" stroke="rgb(69,110,221)" stroke-width="2" /><path d="M +529.5715613290668,234.51905748574063 L 540.1814396306872,237.7450971934013 " fill="rgb(69,110,221)" stroke="rgb(69,110,221)" stroke-width="2" /><path d="M +540.1814396306872,237.7450971934013 L 552.0954282209277,235.9783164295368 " fill="rgb(69,110,221)" stroke="rgb(69,110,221)" stroke-width="2" /><path d="M +552.0954282209277,235.9783164295368 L 563.3505077287555,229.75043988553807 " fill="rgb(69,110,221)" stroke="rgb(69,110,221)" stroke-width="2" /><path d="M +563.3505077287555,229.75043988553807 L 572.5492848083377,221.42837858526036 " fill="rgb(69,110,221)" stroke="rgb(69,110,221)" stroke-width="2" /><path d="M +572.5492848083377,221.42837858526036 L 578.7751914188266,211.3716301950626 " fill="rgb(69,110,221)" stroke="rgb(69,110,221)" stroke-width="2" /><path d="M +578.7751914188266,211.3716301950626 L 580.6249567493796,200.59501386014745 " fill="rgb(69,110,221)" stroke="rgb(69,110,221)" stroke-width="2" /><path d="M +580.6249567493796,200.59501386014745 L 578.0868500098586,191.31036675302312 " fill="rgb(69,110,221)" stroke="rgb(69,110,221)" stroke-width="2" /><path d="M +578.0868500098586,191.31036675302312 L 571.8693041428924,184.38832915155217 " fill="rgb(69,110,221)" stroke="rgb(69,110,221)" stroke-width="2" /><path d="M +571.8693041428924,184.38832915155217 L 563.8354950770736,179.04023027746007 " fill="rgb(69,110,221)" stroke="rgb(69,110,221)" stroke-width="2" /><path d="M 602.5022798404098,167.86798453656957 " fill="rgb(216,66,197)" stroke="rgb(216,66,197)" stroke-width="2" /><path d="M +602.5022798404098,167.86798453656957 L 602.3103597946465,172.59183562127873 " fill="rgb(216,66,197)" stroke="rgb(216,66,197)" stroke-width="2" /><path d="M +602.3103597946465,172.59183562127873 L 603.2740961201489,181.19852161733434 " fill="rgb(216,66,197)" stroke="rgb(216,66,197)" stroke-width="2" /><path d="M +603.2740961201489,181.19852161733434 L 603.0194880254567,191.28929710714146 " fill="rgb(216,66,197)" stroke="rgb(216,66,197)" stroke-width="2" /><path d="M +603.0194880254567,191.28929710714146 L 605.115109551698,204.87574792234227 " fill="rgb(216,66,197)" stroke="rgb(216,66,197)" stroke-width="2" /><path d="M +605.115109551698,204.87574792234227 L 607.6398162730038,213.8534507784061 " fill="rgb(216,66,197)" stroke="rgb(216,66,197)" stroke-width="2" /><path d="M +607.6398162730038,213.8534507784061 L 612.0722319371998,218.66378820268437 " fill="rgb(216,66,197)" stroke="rgb(216,66,197)" stroke-width="2" /><path d="M +612.0722319371998,218.66378820268437 L 618.4497077949345,221.44251889316365 " fill="rgb(216,66,197)" stroke="rgb(216,66,197)" stroke-width="2" /><path d="M +618.4497077949345,221.44251889316365 L 626.5388174541295,219.27940196124837 " fill="rgb(216,66,197)" stroke="rgb(216,66,197)" stroke-width="2" /><path d="M +626.5388174541295,219.27940196124837 L 635.0656385906041,213.79393405048177 " fill="rgb(216,66,197)" stroke="rgb(216,66,197)" stroke-width="2" /><path d="M +635.0656385906041,213.79393405048177 L 643.7167312391102,205.8308774861507 " fill="rgb(216,66,197)" stroke="rgb(216,66,197)" stroke-width="2" /><path d="M +643.7167312391102,205.8308774861507 L 650.4962493665516,195.08074468700215 " fill="rgb(216,66,197)" stroke="rgb(216,66,197)" stroke-width="2" /><path d="M +650.4962493665516,195.08074468700215 L 656.6819973476231,185.0352198514156 " fill="rgb(216,66,197)" stroke="rgb(216,66,197)" stroke-width="2" /><path d="M +656.6819973476231,185.0352198514156 L 660.074164737016,177.30073041049764 " fill="rgb(216,66,197)" stroke="rgb(216,66,197)" stroke-width="2" /><path d="M +660.074164737016,177.30073041049764 L 661.8644380755723,175.32403862802312 " fill="rgb(216,66,197)" stroke="rgb(216,66,197)" stroke-width="2" /><path d="M +661.8644380755723,175.32403862802312 L 662.371130976826,173.61997521249577 " fill="rgb(216,66,197)" stroke="rgb(216,66,197)" stroke-width="2" /><path d="M +662.371130976826,173.61997521249577 L 662.8533948771656,175.60190520016477 " fill="rgb(216,66,197)" stroke="rgb(216,66,197)" stroke-width="2" /><path d="M +662.8533948771656,175.60190520016477 L 663.7254525534809,178.8621317478828 " fill="rgb(216,66,197)" stroke="rgb(216,66,197)" stroke-width="2" /><path d="M +663.7254525534809,178.8621317478828 L 666.9901482574642,187.01980045763776 " fill="rgb(216,66,197)" stroke="rgb(216,66,197)" stroke-width="2" /><path d="M +666.9901482574642,187.01980045763776 L 671.0210270993412,195.3157155844383 " fill="rgb(216,66,197)" stroke="rgb(216,66,197)" stroke-width="2" /><path d="M +671.0210270993412,195.3157155844383 L 677.3431969992816,203.65382245508954 " fill="rgb(216,66,197)" stroke="rgb(216,66,197)" stroke-width="2" /><path d="M +677.3431969992816,203.65382245508954 L 684.0743560902774,207.7118783327751 " fill="rgb(216,66,197)" stroke="rgb(216,66,197)" stroke-width="2" /><path d="M +684.0743560902774,207.7118783327751 L 691.7465896718204,208.69122228352353 " fill="rgb(216,66,197)" stroke="rgb(216,66,197)" stroke-width="2" /><path d="M 719.0845913998783,169.51744756428525 " fill="rgb(26,92,168)" stroke="rgb(26,92,168)" stroke-width="2" /><path d="M +719.0845913998783,169.51744756428525 L 719.7949798963964,175.76968512265012 " fill="rgb(26,92,168)" stroke="rgb(26,92,168)" stroke-width="2" /><path d="M +719.7949798963964,175.76968512265012 L 722.1318418346345,184.49097773758695 " fill="rgb(26,92,168)" stroke="rgb(26,92,168)" stroke-width="2" /><path d="M +722.1318418346345,184.49097773758695 L 723.8318367861211,192.80196687905118 " fill="rgb(26,92,168)" stroke="rgb(26,92,168)" stroke-width="2" /><path d="M +723.8318367861211,192.80196687905118 L 726.1050730012357,201.65116331307217 " fill="rgb(26,92,168)" stroke="rgb(26,92,168)" stroke-width="2" /><path d="M +726.1050730012357,201.65116331307217 L 728.0959578417242,207.10302254883572 " fill="rgb(26,92,168)" stroke="rgb(26,92,168)" stroke-width="2" /><path d="M +728.0959578417242,207.10302254883572 L 729.6727151237428,207.8320990386419 " fill="rgb(26,92,168)" stroke="rgb(26,92,168)" stroke-width="2" /><path d="M +729.6727151237428,207.8320990386419 L 730.4813308827579,208.34990470437333 " fill="rgb(26,92,168)" stroke="rgb(26,92,168)" stroke-width="2" /><path d="M +730.4813308827579,208.34990470437333 L 731.1779989860952,206.92959665087983 " fill="rgb(26,92,168)" stroke="rgb(26,92,168)" stroke-width="2" /><path d="M +731.1779989860952,206.92959665087983 L 732.6478620432317,201.3435453060083 " fill="rgb(26,92,168)" stroke="rgb(26,92,168)" stroke-width="2" /><path d="M +732.6478620432317,201.3435453060083 L 735.0781696103513,192.6754259946756 " fill="rgb(26,92,168)" stroke="rgb(26,92,168)" stroke-width="2" /></svg>