<?xml version="1.0" encoding="utf-8" ?>
<svg baseProfile="full" height="453.4279614314437" version="1.1" width="1616.6294827705133" xmlns="http://www.w3.org/2000/svg" xmlns:ev="http://www.w3.org/2001/xml-events" xmlns:xlink="http://www.w3.org/1999/xlink"><defs /><rect fill="white" height="453.4279614314437" width="1616.6294827705133" x="0" y="0" /><path d="M 25.0,137.59496688842773 " fill="rgb(78,45,35)" stroke="rgb(78,45,35)" stroke-width="2" /><path d="M 66.79961204528809,25.0 " fill="rgb(43,194,201)" stroke="rgb(43,194,201)" stroke-width="2" /><path d="M +66.79961204528809,25.0 L 65.86259953677654,28.691485822200775 " fill="rgb(43,194,201)" stroke="rgb(43,194,201)" stroke-width="2" /><path d="M +65.86259953677654,28.691485822200775 L 67.07697376608849,42.1604785323143 " fill="rgb(43,194,201)" stroke="rgb(43,194,201)" stroke-width="2" /><path d="M +67.07697376608849,42.1604785323143 L 69.62341353297234,64.24471944570541 " fill="rgb(43,194,201)" stroke="rgb(43,194,201)" stroke-width="2" /><path d="M +69.62341353297234,64.24471944570541 L 72.9835544526577,92.22847789525986 " fill="rgb(43,194,201)" stroke="rgb(43,194,201)" stroke-width="2" /><path d="M +72.9835544526577,92.22847789525986 L 78.56566414237022,123.69841426610947 " fill="rgb(43,194,201)" stroke="rgb(43,194,201)" stroke-width="2" /><path d="M +78.56566414237022,123.69841426610947 L 81.91001251339912,153.2889661192894 " fill="rgb(43,194,201)" stroke="rgb(43,194,201)" stroke-width="2" /><path d="M +81.91001251339912,153.2889661192894 L 83.9776511490345,181.23971551656723 " fill="rgb(43,194,201)" stroke="rgb(43,194,201)" stroke-width="2" /><path d="M +83.9776511490345,181.23971551656723 L 85.50499647855759,203.229041993618 " fill="rgb(43,194,201)" stroke="rgb(43,194,201)" stroke-width="2" /><path d="M +85.50499647855759,203.229041993618 L 86.47492788732052,215.89306443929672 " fill="rgb(43,194,201)" stroke="rgb(43,194,201)" stroke-width="2" /><path d="M +86.47492788732052,215.89306443929672 L 87.18377098441124,216.8860524147749 " fill="rgb(43,194,201)" stroke="rgb(43,194,201)" stroke-width="2" /><path d="M +87.18377098441124,216.8860524147749 L 88.39721143245697,215.8655222505331 " fill="rgb(43,194,201)" stroke="rgb(43,194,201)" stroke-width="2" /><path d="M +88.39721143245697,215.8655222505331 L 92.83743798732758,205.22132478654385 " fill="rgb(43,194,201)" stroke="rgb(43,194,201)" stroke-width="2" /><path d="M +92.83743798732758,205.22132478654385 L 98.84615182876587,188.20702515542507 " fill="rgb(43,194,201)" stroke="rgb(43,194,201)" stroke-width="2" /><path d="M +98.84615182876587,188.20702515542507 L 105.28762459754944,168.06956015527248 " fill="rgb(43,194,201)" stroke="rgb(43,194,201)" stroke-width="2" /><path d="M +105.28762459754944,168.06956015527248 L 111.43005728721619,153.0177839845419 " fill="rgb(43,194,201)" stroke="rgb(43,194,201)" stroke-width="2" /><path d="M +111.43005728721619,153.0177839845419 L 116.158087849617,141.97507940232754 " fill="rgb(43,194,201)" stroke="rgb(43,194,201)" stroke-width="2" /><path d="M +116.158087849617,141.97507940232754 L 120.96793293952942,138.7529169768095 " fill="rgb(43,194,201)" stroke="rgb(43,194,201)" stroke-width="2" /><path d="M +120.96793293952942,138.7529169768095 L 126.26441955566406,141.1581216007471 " fill="rgb(43,194,201)" stroke="rgb(43,194,201)" stroke-width="2" /><path d="M +126.26441955566406,141.1581216007471 L 131.63937628269196,147.37617053091526 " fill="rgb(43,194,201)" stroke="rgb(43,194,201)" stroke-width="2" /><path d="M +131.63937628269196,147.37617053091526 L 137.34810948371887,163.56042303144932 " fill="rgb(43,194,201)" stroke="rgb(43,194,201)" stroke-width="2" /><path d="M +137.34810948371887,163.56042303144932 L 142.1103373169899,183.235080614686 " fill="rgb(43,194,201)" stroke="rgb(43,194,201)" stroke-width="2" /><path d="M +142.1103373169899,183.235080614686 L 146.81034803390503,201.93861283361912 " fill="rgb(43,194,201)" stroke="rgb(43,194,201)" stroke-width="2" /><path d="M +146.81034803390503,201.93861283361912 L 149.22456070780754,212.40790881216526 " fill="rgb(43,194,201)" stroke="rgb(43,194,201)" stroke-width="2" /><path d="M +149.22456070780754,212.40790881216526 L 149.21300466521643,218.60042609274387 " fill="rgb(43,194,201)" stroke="rgb(43,194,201)" stroke-width="2" /><path d="M 206.68434675200842,150.77400244772434 " fill="rgb(178,208,55)" stroke="rgb(178,208,55)" stroke-width="2" /><path d="M +206.68434675200842,150.77400244772434 L 206.8303378985729,155.2186144143343 " fill="rgb(178,208,55)" stroke="rgb(178,208,55)" stroke-width="2" /><path d="M +206.8303378985729,155.2186144143343 L 204.21641643508337,162.32174463570118 " fill="rgb(178,208,55)" stroke="rgb(178,208,55)" stroke-width="2" /><path d="M +204.21641643508337,162.32174463570118 L 203.49986444576643,175.9417349845171 " fill="rgb(178,208,55)" stroke="rgb(178,208,55)" stroke-width="2" /><path d="M +203.49986444576643,175.9417349845171 L 204.43517188890837,190.49115605652332 " fill="rgb(178,208,55)" stroke="rgb(178,208,55)" stroke-width="2" /><path d="M +204.43517188890837,190.49115605652332 L 208.89670173986815,205.66665954887867 " fill="rgb(178,208,55)" stroke="rgb(178,208,55)" stroke-width="2" /><path d="M +208.89670173986815,205.66665954887867 L 215.951717303833,217.05757804214954 " fill="rgb(178,208,55)" stroke="rgb(178,208,55)" stroke-width="2" /><path d="M +215.951717303833,217.05757804214954 L 226.81046287878416,223.76294560730457 " fill="rgb(178,208,55)" stroke="rgb(178,208,55)" stroke-width="2" /><path d="M +226.81046287878416,223.76294560730457 L 239.02010123594664,224.5309666544199 " fill="rgb(178,208,55)" stroke="rgb(178,208,55)" stroke-width="2" /><path d="M +239.02010123594664,224.5309666544199 L 251.17492358549498,219.1894868761301 " fill="rgb(178,208,55)" stroke="rgb(178,208,55)" stroke-width="2" /><path d="M +251.17492358549498,219.1894868761301 L 260.99432747229,210.5322978645563 " fill="rgb(178,208,55)" stroke="rgb(178,208,55)" stroke-width="2" /><path d="M +260.99432747229,210.5322978645563 L 267.3709742294159,197.31530286371708 " fill="rgb(178,208,55)" stroke="rgb(178,208,55)" stroke-width="2" /><path d="M +267.3709742294159,197.31530286371708 L 269.16161562665366,181.77605010569096 " fill="rgb(178,208,55)" stroke="rgb(178,208,55)" stroke-width="2" /><path d="M +269.16161562665366,181.77605010569096 L 266.9080745743122,166.43548347055912 " fill="rgb(178,208,55)" stroke="rgb(178,208,55)" stroke-width="2" /><path d="M +266.9080745743122,166.43548347055912 L 258.1809883879032,149.987628236413 " fill="rgb(178,208,55)" stroke="rgb(178,208,55)" stroke-width="2" /><path d="M +258.1809883879032,149.987628236413 L 244.79480560286902,140.36458171904087 " fill="rgb(178,208,55)" stroke="rgb(178,208,55)" stroke-width="2" /><path d="M +244.79480560286902,140.36458171904087 L 227.45738919242285,137.05985106527805 " fill="rgb(178,208,55)" stroke="rgb(178,208,55)" stroke-width="2" /><path d="M +227.45738919242285,137.05985106527805 L 212.74940188392065,140.57237155735493 " fill="rgb(178,208,55)" stroke="rgb(178,208,55)" stroke-width="2" /><path d="M +212.74940188392065,140.57237155735493 L 202.90580566390418,147.69625134766102 " fill="rgb(178,208,55)" stroke="rgb(178,208,55)" stroke-width="2" /><path d="M +202.90580566390418,147.69625134766102 L 198.2897421286907,156.60192854702473 " fill="rgb(178,208,55)" stroke="rgb(178,208,55)" stroke-width="2" /><path d="M +198.2897421286907,156.60192854702473 L 198.98129853769206,167.17727191746235 " fill="rgb(178,208,55)" stroke="rgb(178,208,55)" stroke-width="2" /><path d="M 301.8909398035612,150.7948375493288 " fill="rgb(68,98,140)" stroke="rgb(68,98,140)" stroke-width="2" /><path d="M +301.8909398035612,150.7948375493288 L 298.71814105077647,151.05267573148012 " fill="rgb(68,98,140)" stroke="rgb(68,98,140)" stroke-width="2" /><path d="M +298.71814105077647,151.05267573148012 L 296.112110944232,155.04491318017244 " fill="rgb(68,98,140)" stroke="rgb(68,98,140)" stroke-width="2" /><path d="M +296.112110944232,155.04491318017244 L 294.44563764496706,165.76972115784883 " fill="rgb(68,98,140)" stroke="rgb(68,98,140)" stroke-width="2" /><path d="M +294.44563764496706,165.76972115784883 L 293.4141465590801,179.1744016483426 " fill="rgb(68,98,140)" stroke="rgb(68,98,140)" stroke-width="2" /><path d="M +293.4141465590801,179.1744016483426 L 293.8920115993824,194.31808222085238 " fill="rgb(68,98,140)" stroke="rgb(68,98,140)" stroke-width="2" /><path d="M +293.8920115993824,194.31808222085238 L 296.58878769143485,209.91899240761995 " fill="rgb(68,98,140)" stroke="rgb(68,98,140)" stroke-width="2" /><path d="M +296.58878769143485,209.91899240761995 L 302.2435298131313,221.21465671807528 " fill="rgb(68,98,140)" stroke="rgb(68,98,140)" stroke-width="2" /><path d="M +302.2435298131313,221.21465671807528 L 309.9181416200008,227.96956706792116 " fill="rgb(68,98,140)" stroke="rgb(68,98,140)" stroke-width="2" /><path d="M +309.9181416200008,227.96956706792116 L 318.74943460687064,228.9265037700534 " fill="rgb(68,98,140)" stroke="rgb(68,98,140)" stroke-width="2" /><path d="M +318.74943460687064,228.9265037700534 L 326.37906159623526,223.25411330908537 " fill="rgb(68,98,140)" stroke="rgb(68,98,140)" stroke-width="2" /><path d="M +326.37906159623526,223.25411330908537 L 334.1960814164486,216.41056191176176 " fill="rgb(68,98,140)" stroke="rgb(68,98,140)" stroke-width="2" /><path d="M +334.1960814164486,216.41056191176176 L 339.51883222325705,204.4232226535678 " fill="rgb(68,98,140)" stroke="rgb(68,98,140)" stroke-width="2" /><path d="M +339.51883222325705,204.4232226535678 L 343.20288564427756,191.89786326140165 " fill="rgb(68,98,140)" stroke="rgb(68,98,140)" stroke-width="2" /><path d="M +343.20288564427756,191.89786326140165 L 345.05800719722174,178.76801382750273 " fill="rgb(68,98,140)" stroke="rgb(68,98,140)" stroke-width="2" /><path d="M +345.05800719722174,178.76801382750273 L 345.5342331097927,168.50791346281767 " fill="rgb(68,98,140)" stroke="rgb(68,98,140)" stroke-width="2" /><path d="M +345.5342331097927,168.50791346281767 L 344.8806090967264,163.28774582594633 " fill="rgb(68,98,140)" stroke="rgb(68,98,140)" stroke-width="2" /><path d="M +344.8806090967264,163.28774582594633 L 343.84308564825915,161.6813487932086 " fill="rgb(68,98,140)" stroke="rgb(68,98,140)" stroke-width="2" /><path d="M +343.84308564825915,161.6813487932086 L 345.0980565266218,165.40353279560804 " fill="rgb(68,98,140)" stroke="rgb(68,98,140)" stroke-width="2" /><path d="M +345.0980565266218,165.40353279560804 L 347.4810034350958,176.17393236607313 " fill="rgb(68,98,140)" stroke="rgb(68,98,140)" stroke-width="2" /><path d="M +347.4810034350958,176.17393236607313 L 351.80242958827876,190.90129118412733 " fill="rgb(68,98,140)" stroke="rgb(68,98,140)" stroke-width="2" /><path d="M +351.80242958827876,190.90129118412733 L 357.9955524520483,207.01070170849562 " fill="rgb(68,98,140)" stroke="rgb(68,98,140)" stroke-width="2" /><path d="M +357.9955524520483,207.01070170849562 L 366.0561722831335,219.82352953404188 " fill="rgb(68,98,140)" stroke="rgb(68,98,140)" stroke-width="2" /><path d="M +366.0561722831335,219.82352953404188 L 375.72243276401423,228.25392942875624 " fill="rgb(68,98,140)" stroke="rgb(68,98,140)" stroke-width="2" /><path d="M +375.72243276401423,228.25392942875624 L 385.9245711879339,231.61761354655027 " fill="rgb(68,98,140)" stroke="rgb(68,98,140)" stroke-width="2" /><path d="M +385.9245711879339,231.61761354655027 L 396.73924866481684,231.1066146939993 " fill="rgb(68,98,140)" stroke="rgb(68,98,140)" stroke-width="2" /><path d="M +396.73924866481684,231.1066146939993 L 406.97940650745295,226.72796301543713 " fill="rgb(68,98,140)" stroke="rgb(68,98,140)" stroke-width="2" /><path d="M +406.97940650745295,226.72796301543713 L 415.6670576648321,216.36544160544872 " fill="rgb(68,98,140)" stroke="rgb(68,98,140)" stroke-width="2" /><path d="M +415.6670576648321,216.36544160544872 L 422.6575053052511,203.3096831291914 " fill="rgb(68,98,140)" stroke="rgb(68,98,140)" stroke-width="2" /><path d="M +422.6575053052511,203.3096831291914 L 425.6057975010481,187.35926918685436 " fill="rgb(68,98,140)" stroke="rgb(68,98,140)" stroke-width="2" /><path d="M +425.6057975010481,187.35926918685436 L 424.21593833132647,169.94541458785534 " fill="rgb(68,98,140)" stroke="rgb(68,98,140)" stroke-width="2" /><path d="M +424.21593833132647,169.94541458785534 L 419.417008938035,157.3147814720869 " fill="rgb(68,98,140)" stroke="rgb(68,98,140)" stroke-width="2" /><path d="M +419.417008938035,157.3147814720869 L 412.09064382477663,147.83365719020367 " fill="rgb(68,98,140)" stroke="rgb(68,98,140)" stroke-width="2" /><path d="M 608.5519589798059,159.21061150729656 " fill="rgb(211,215,94)" stroke="rgb(211,215,94)" stroke-width="2" /><path d="M +608.5519589798059,159.21061150729656 L 601.1812450306024,155.46138308942318 " fill="rgb(211,215,94)" stroke="rgb(211,215,94)" stroke-width="2" /><path d="M +601.1812450306024,155.46138308942318 L 592.8896136896219,151.37024633586407 " fill="rgb(211,215,94)" stroke="rgb(211,215,94)" stroke-width="2" /><path d="M +592.8896136896219,151.37024633586407 L 585.5590237991419,150.0874549895525 " fill="rgb(211,215,94)" stroke="rgb(211,215,94)" stroke-width="2" /><path d="M +585.5590237991419,150.0874549895525 L 578.3816613571253,152.02179111540318 " fill="rgb(211,215,94)" stroke="rgb(211,215,94)" stroke-width="2" /><path d="M +578.3816613571253,152.02179111540318 L 571.6201336996164,159.20364297926426 " fill="rgb(211,215,94)" stroke="rgb(211,215,94)" stroke-width="2" /><path d="M +571.6201336996164,159.20364297926426 L 565.1244779245462,169.39893521368504 " fill="rgb(211,215,94)" stroke="rgb(211,215,94)" stroke-width="2" /><path d="M +565.1244779245462,169.39893521368504 L 559.7211976663675,183.84664095938206 " fill="rgb(211,215,94)" stroke="rgb(211,215,94)" stroke-width="2" /><path d="M +559.7211976663675,183.84664095938206 L 558.91694034799,201.3766924291849 " fill="rgb(211,215,94)" stroke="rgb(211,215,94)" stroke-width="2" /><path d="M +558.91694034799,201.3766924291849 L 562.6983004377689,214.56847943365574 " fill="rgb(211,215,94)" stroke="rgb(211,215,94)" stroke-width="2" /><path d="M +562.6983004377689,214.56847943365574 L 570.8177011774387,222.20234967768192 " fill="rgb(211,215,94)" stroke="rgb(211,215,94)" stroke-width="2" /><path d="M +570.8177011774387,222.20234967768192 L 580.9188657568302,223.2358269393444 " fill="rgb(211,215,94)" stroke="rgb(211,215,94)" stroke-width="2" /><path d="M +580.9188657568302,223.2358269393444 L 593.1258385942783,219.34633925557137 " fill="rgb(211,215,94)" stroke="rgb(211,215,94)" stroke-width="2" /><path d="M +593.1258385942783,219.34633925557137 L 605.5134325788822,208.9620180428028 " fill="rgb(211,215,94)" stroke="rgb(211,215,94)" stroke-width="2" /><path d="M +605.5134325788822,208.9620180428028 L 615.9327214525547,198.191706687212 " fill="rgb(211,215,94)" stroke="rgb(211,215,94)" stroke-width="2" /><path d="M +615.9327214525547,198.191706687212 L 623.5497128532734,184.62509587407112 " fill="rgb(211,215,94)" stroke="rgb(211,215,94)" stroke-width="2" /><path d="M +623.5497128532734,184.62509587407112 L 627.2120314405765,171.7874462902546 " fill="rgb(211,215,94)" stroke="rgb(211,215,94)" stroke-width="2" /><path d="M +627.2120314405765,171.7874462902546 L 628.3368782268371,162.11486354470253 " fill="rgb(211,215,94)" stroke="rgb(211,215,94)" stroke-width="2" /><path d="M +628.3368782268371,162.11486354470253 L 626.8091760145035,155.00617399811745 " fill="rgb(211,215,94)" stroke="rgb(211,215,94)" stroke-width="2" /><path d="M +626.8091760145035,155.00617399811745 L 627.3679321946111,155.6748179346323 " fill="rgb(211,215,94)" stroke="rgb(211,215,94)" stroke-width="2" /><path d="M +627.3679321946111,155.6748179346323 L 627.6412915193941,156.25345528125763 " fill="rgb(211,215,94)" stroke="rgb(211,215,94)" stroke-width="2" /><path d="M +627.6412915193941,156.25345528125763 L 628.027460774174,157.7985993027687 " fill="rgb(211,215,94)" stroke="rgb(211,215,94)" stroke-width="2" /><path d="M +628.027460774174,157.7985993027687 L 630.662325223675,166.83704644441605 " fill="rgb(211,215,94)" stroke="rgb(211,215,94)" stroke-width="2" /><path d="M +630.662325223675,166.83704644441605 L 636.0061456763651,181.4415767788887 " fill="rgb(211,215,94)" stroke="rgb(211,215,94)" stroke-width="2" /><path d="M +636.0061456763651,181.4415767788887 L 642.2407545649912,197.48382717370987 " fill="rgb(211,215,94)" stroke="rgb(211,215,94)" stroke-width="2" /><path d="M +642.2407545649912,197.48382717370987 L 649.3120177590754,210.89779168367386 " fill="rgb(211,215,94)" stroke="rgb(211,215,94)" stroke-width="2" /><path d="M +649.3120177590754,210.89779168367386 L 656.5734453999903,222.72576242685318 " fill="rgb(211,215,94)" stroke="rgb(211,215,94)" stroke-width="2" /><path d="M +656.5734453999903,222.72576242685318 L 661.7348845803645,226.64820730686188 " fill="rgb(211,215,94)" stroke="rgb(211,215,94)" stroke-width="2" /><path d="M +661.7348845803645,226.64820730686188 L 666.1803909146693,226.84476595371962 " fill="rgb(211,215,94)" stroke="rgb(211,215,94)" stroke-width="2" /><path d="M 700.7510181271937,191.391413025558 " fill="rgb(84,51,50)" stroke="rgb(84,51,50)" stroke-width="2" /><path d="M +700.7510181271937,191.391413025558 L 699.2305623495486,190.5526689812541 " fill="rgb(84,51,50)" stroke="rgb(84,51,50)" stroke-width="2" /><path d="M +699.2305623495486,190.5526689812541 L 699.8717275017407,195.0941551849246 " fill="rgb(84,51,50)" stroke="rgb(84,51,50)" stroke-width="2" /><path d="M +699.8717275017407,195.0941551849246 L 701.3037252181675,199.29139476269484 " fill="rgb(84,51,50)" stroke="rgb(84,51,50)" stroke-width="2" /><path d="M +701.3037252181675,199.29139476269484 L 702.9018118733075,204.49495416134596 " fill="rgb(84,51,50)" stroke="rgb(84,51,50)" stroke-width="2" /><path d="M +702.9018118733075,204.49495416134596 L 702.8614347090479,204.95916187763214 " fill="rgb(84,51,50)" stroke="rgb(84,51,50)" stroke-width="2" /><path d="M +702.8614347090479,204.95916187763214 L 703.0135192198213,204.79854449629784 " fill="rgb(84,51,50)" stroke="rgb(84,51,50)" stroke-width="2" /><path d="M +703.0135192198213,204.79854449629784 L 703.0496090010274,203.0965779721737 " fill="rgb(84,51,50)" stroke="rgb(84,51,50)" stroke-width="2" /><path d="M +703.0496090010274,203.0965779721737 L 702.5728717551101,197.1981279551983 " fill="rgb(84,51,50)" stroke="rgb(84,51,50)" stroke-width="2" /><path d="M +702.5728717551101,197.1981279551983 L 701.7037390277255,189.12482485175133 " fill="rgb(84,51,50)" stroke="rgb(84,51,50)" stroke-width="2" /><path d="M +701.7037390277255,189.12482485175133 L 701.814870351227,179.6684066951275 " fill="rgb(84,51,50)" stroke="rgb(84,51,50)" stroke-width="2" /><path d="M +701.814870351227,179.6684066951275 L 704.0192879375536,170.25215610861778 " fill="rgb(84,51,50)" stroke="rgb(84,51,50)" stroke-width="2" /><path d="M +704.0192879375536,170.25215610861778 L 708.0100951727945,160.18191203474998 " fill="rgb(84,51,50)" stroke="rgb(84,51,50)" stroke-width="2" /><path d="M +708.0100951727945,160.18191203474998 L 713.3178250130732,152.1550439298153 " fill="rgb(84,51,50)" stroke="rgb(84,51,50)" stroke-width="2" /><path d="M +713.3178250130732,152.1550439298153 L 719.3683479365427,145.883160084486 " fill="rgb(84,51,50)" stroke="rgb(84,51,50)" stroke-width="2" /><path d="M +719.3683479365427,145.883160084486 L 725.231672936352,143.27028676867485 " fill="rgb(84,51,50)" stroke="rgb(84,51,50)" stroke-width="2" /><path d="M +725.231672936352,143.27028676867485 L 732.0923517283518,143.7311613559723 " fill="rgb(84,51,50)" stroke="rgb(84,51,50)" stroke-width="2" /><path d="M +732.0923517283518,143.7311613559723 L 739.0796897944529,146.02926596999168 " fill="rgb(84,51,50)" stroke="rgb(84,51,50)" stroke-width="2" /><path d="M +739.0796897944529,146.02926596999168 L 746.4868948992807,149.855088442564 " fill="rgb(84,51,50)" stroke="rgb(84,51,50)" stroke-width="2" /><path d="M 770.9580252703745,171.44008323550224 " fill="rgb(204,141,94)" stroke="rgb(204,141,94)" stroke-width="2" /><path d="M +770.9580252703745,171.44008323550224 L 772.2993863758165,171.32725792005658 " fill="rgb(204,141,94)" stroke="rgb(204,141,94)" stroke-width="2" /><path d="M +772.2993863758165,171.32725792005658 L 777.1280042466242,171.82569378986955 " fill="rgb(204,141,94)" stroke="rgb(204,141,94)" stroke-width="2" /><path d="M +777.1280042466242,171.82569378986955 L 783.7794331845362,171.98880506679416 " fill="rgb(204,141,94)" stroke="rgb(204,141,94)" stroke-width="2" /><path d="M +783.7794331845362,171.98880506679416 L 792.6642213400919,169.09787161275744 " fill="rgb(204,141,94)" stroke="rgb(204,141,94)" stroke-width="2" /><path d="M +792.6642213400919,169.09787161275744 L 801.3763580855448,165.1251475326717 " fill="rgb(204,141,94)" stroke="rgb(204,141,94)" stroke-width="2" /><path d="M +801.3763580855448,165.1251475326717 L 808.7310008343775,159.77201147004962 " fill="rgb(204,141,94)" stroke="rgb(204,141,94)" stroke-width="2" /><path d="M +808.7310008343775,159.77201147004962 L 815.4907433327753,155.6509561650455 " fill="rgb(204,141,94)" stroke="rgb(204,141,94)" stroke-width="2" /><path d="M +815.4907433327753,155.6509561650455 L 819.357469790848,150.12521220371127 " fill="rgb(204,141,94)" stroke="rgb(204,141,94)" stroke-width="2" /><path d="M +819.357469790848,150.12521220371127 L 821.2244191404898,144.83965588733554 " fill="rgb(204,141,94)" stroke="rgb(204,141,94)" stroke-width="2" /><path d="M +821.2244191404898,144.83965588733554 L 820.4953197028954,141.1153901927173 " fill="rgb(204,141,94)" stroke="rgb(204,141,94)" stroke-width="2" /><path d="M +820.4953197028954,141.1153901927173 L 816.4694092061836,137.1722082607448 " fill="rgb(204,141,94)" stroke="rgb(204,141,94)" stroke-width="2" /><path d="M +816.4694092061836,137.1722082607448 L 809.0341774013359,134.29403645917773 " fill="rgb(204,141,94)" stroke="rgb(204,141,94)" stroke-width="2" /><path d="M +809.0341774013359,134.29403645917773 L 800.2299467113335,136.62416828796268 " fill="rgb(204,141,94)" stroke="rgb(204,141,94)" stroke-width="2" /><path d="M +800.2299467113335,136.62416828796268 L 788.4588757541496,141.4329512231052 " fill="rgb(204,141,94)" stroke="rgb(204,141,94)" stroke-width="2" /><path d="M +788.4588757541496,141.4329512231052 L 776.9520262267906,150.98439587280154 " fill="rgb(204,141,94)" stroke="rgb(204,141,94)" stroke-width="2" /><path d="M +776.9520262267906,150.98439587280154 L 768.1677183893044,161.72726286575198 " fill="rgb(204,141,94)" stroke="rgb(204,141,94)" stroke-width="2" /><path d="M +768.1677183893044,161.72726286575198 L 764.6951297309715,173.30420864745975 " fill="rgb(204,141,94)" stroke="rgb(204,141,94)" stroke-width="2" /><path d="M +764.6951297309715,173.30420864745975 L 767.216678300174,186.6694308631122 " fill="rgb(204,141,94)" stroke="rgb(204,141,94)" stroke-width="2" /><path d="M +767.216678300174,186.6694308631122 L 775.8330339577515,197.4566305987537 " fill="rgb(204,141,94)" stroke="rgb(204,141,94)" stroke-width="2" /><path d="M +775.8330339577515,197.4566305987537 L 789.5949989941437,203.1915963999927 " fill="rgb(204,141,94)" stroke="rgb(204,141,94)" stroke-width="2" /><path d="M +789.5949989941437,203.1915963999927 L 810.1015168812592,207.78027011081576 " fill="rgb(204,141,94)" stroke="rgb(204,141,94)" stroke-width="2" /><path d="M +810.1015168812592,207.78027011081576 L 831.477981248172,206.00988609716296 " fill="rgb(204,141,94)" stroke="rgb(204,141,94)" stroke-width="2" /><path d="M +831.477981248172,206.00988609716296 L 853.2605821278412,202.89851857349277 " fill="rgb(204,141,94)" stroke="rgb(204,141,94)" stroke-width="2" /><path d="M +853.2605821278412,202.89851857349277 L 874.2117768910248,199.0722887031734 " fill="rgb(204,141,94)" stroke="rgb(204,141,94)" stroke-width="2" /><path d="M +874.2117768910248,199.0722887031734 L 891.8024760868866,198.31017350777984 " fill="rgb(204,141,94)" stroke="rgb(204,141,94)" stroke-width="2" /><path d="M +891.8024760868866,198.31017350777984 L 905.258623996051,196.29240920767188 " fill="rgb(204,141,94)" stroke="rgb(204,141,94)" stroke-width="2" /><path d="M 1055.4737252381165,105.52061965689063 " fill="rgb(199,30,43)" stroke="rgb(199,30,43)" stroke-width="2" /><path d="M +1055.4737252381165,105.52061965689063 L 1055.7559258129913,106.83172723278403 " fill="rgb(199,30,43)" stroke="rgb(199,30,43)" stroke-width="2" /><path d="M +1055.7559258129913,106.83172723278403 L 1055.6113433942664,109.19754883274436 " fill="rgb(199,30,43)" stroke="rgb(199,30,43)" stroke-width="2" /><path d="M +1055.6113433942664,109.19754883274436 L 1059.5086041197646,117.88275858387351 " fill="rgb(199,30,43)" stroke="rgb(199,30,43)" stroke-width="2" /><path d="M +1059.5086041197646,117.88275858387351 L 1063.4514653787483,129.89740630611777 " fill="rgb(199,30,43)" stroke="rgb(199,30,43)" stroke-width="2" /><path d="M +1063.4514653787483,129.89740630611777 L 1070.7858252630103,143.2574929855764 " fill="rgb(199,30,43)" stroke="rgb(199,30,43)" stroke-width="2" /><path d="M +1070.7858252630103,143.2574929855764 L 1079.8129528865684,156.3508608005941 " fill="rgb(199,30,43)" stroke="rgb(199,30,43)" stroke-width="2" /><path d="M +1079.8129528865684,156.3508608005941 L 1090.9899574622978,166.67441269382834 " fill="rgb(199,30,43)" stroke="rgb(199,30,43)" stroke-width="2" /><path d="M +1090.9899574622978,166.67441269382834 L 1103.1621116504539,173.7810923717916 " fill="rgb(199,30,43)" stroke="rgb(199,30,43)" stroke-width="2" /><path d="M +1103.1621116504539,173.7810923717916 L 1116.3394135341514,177.50652750954032 " fill="rgb(199,30,43)" stroke="rgb(199,30,43)" stroke-width="2" /><path d="M +1116.3394135341514,177.50652750954032 L 1128.7596351013053,177.3085866495967 " fill="rgb(199,30,43)" stroke="rgb(199,30,43)" stroke-width="2" /><path d="M +1128.7596351013053,177.3085866495967 L 1139.5668596134055,172.32164811342955 " fill="rgb(199,30,43)" stroke="rgb(199,30,43)" stroke-width="2" /><path d="M +1139.5668596134055,172.32164811342955 L 1147.211450348841,164.414315931499 " fill="rgb(199,30,43)" stroke="rgb(199,30,43)" stroke-width="2" /><path d="M +1147.211450348841,164.414315931499 L 1153.7335306510795,153.99003218859434 " fill="rgb(199,30,43)" stroke="rgb(199,30,43)" stroke-width="2" /><path d="M +1153.7335306510795,153.99003218859434 L 1156.8169760808814,141.56513761729002 " fill="rgb(199,30,43)" stroke="rgb(199,30,43)" stroke-width="2" /><path d="M +1156.8169760808814,141.56513761729002 L 1157.1917672187556,128.10716819018126 " fill="rgb(199,30,43)" stroke="rgb(199,30,43)" stroke-width="2" /><path d="M +1157.1917672187556,128.10716819018126 L 1156.165874946164,117.97684382647276 " fill="rgb(199,30,43)" stroke="rgb(199,30,43)" stroke-width="2" /><path d="M +1156.165874946164,117.97684382647276 L 1153.085668134736,109.72210597246885 " fill="rgb(199,30,43)" stroke="rgb(199,30,43)" stroke-width="2" /><path d="M +1153.085668134736,109.72210597246885 L 1150.188275623368,106.4937798306346 " fill="rgb(199,30,43)" stroke="rgb(199,30,43)" stroke-width="2" /><path d="M +1150.188275623368,106.4937798306346 L 1145.843789029168,104.79443278163671 " fill="rgb(199,30,43)" stroke="rgb(199,30,43)" stroke-width="2" /><path d="M +1145.843789029168,104.79443278163671 L 1142.018002915429,108.12263485044241 " fill="rgb(199,30,43)" stroke="rgb(199,30,43)" stroke-width="2" /><path d="M +1142.018002915429,108.12263485044241 L 1139.5004886866082,119.72667332738638 " fill="rgb(199,30,43)" stroke="rgb(199,30,43)" stroke-width="2" /><path d="M +1139.5004886866082,119.72667332738638 L 1136.0972872853745,136.8557369336486 " fill="rgb(199,30,43)" stroke="rgb(199,30,43)" stroke-width="2" /><path d="M +1136.0972872853745,136.8557369336486 L 1135.0937146425713,160.4712664708495 " fill="rgb(199,30,43)" stroke="rgb(199,30,43)" stroke-width="2" /><path d="M +1135.0937146425713,160.4712664708495 L 1135.0975910873967,187.9010784253478 " fill="rgb(199,30,43)" stroke="rgb(199,30,43)" stroke-width="2" /><path d="M +1135.0975910873967,187.9010784253478 L 1137.3437860162812,219.98072024434805 " fill="rgb(199,30,43)" stroke="rgb(199,30,43)" stroke-width="2" /><path d="M +1137.3437860162812,219.98072024434805 L 1139.5141307564336,254.81779213994741 " fill="rgb(199,30,43)" stroke="rgb(199,30,43)" stroke-width="2" /><path d="M +1139.5141307564336,254.81779213994741 L 1140.4591271581012,291.3979899510741 " fill="rgb(199,30,43)" stroke="rgb(199,30,43)" stroke-width="2" /><path d="M +1140.4591271581012,291.3979899510741 L 1139.54673211294,326.53446789830923 " fill="rgb(199,30,43)" stroke="rgb(199,30,43)" stroke-width="2" /><path d="M +1139.54673211294,326.53446789830923 L 1135.7083381267148,356.86766024678946 " fill="rgb(199,30,43)" stroke="rgb(199,30,43)" stroke-width="2" /><path d="M +1135.7083381267148,356.86766024678946 L 1130.492968663748,383.9378010854125 " fill="rgb(199,30,43)" stroke="rgb(199,30,43)" stroke-width="2" /><path d="M +1130.492968663748,383.9378010854125 L 1122.818845018919,402.66550179570913 " fill="rgb(199,30,43)" stroke="rgb(199,30,43)" stroke-width="2" /><path d="M +1122.818845018919,402.66550179570913 L 1113.8312460036832,416.3809835538268 " fill="rgb(199,30,43)" stroke="rgb(199,30,43)" stroke-width="2" /><path d="M +1113.8312460036832,416.3809835538268 L 1103.7366927714902,424.9293738231063 " fill="rgb(199,30,43)" stroke="rgb(199,30,43)" stroke-width="2" /><path d="M +1103.7366927714902,424.9293738231063 L 1092.825946912344,428.4279614314437 " fill="rgb(199,30,43)" stroke="rgb(199,30,43)" stroke-width="2" /><path d="M +1092.825946912344,428.4279614314437 L 1082.693268165167,426.8867680057883 " fill="rgb(199,30,43)" stroke="rgb(199,30,43)" stroke-width="2" /><path d="M +1082.693268165167,426.8867680057883 L 1072.5419140906888,418.9227142557502 " fill="rgb(199,30,43)" stroke="rgb(199,30,43)" stroke-width="2" /><path d="M +1072.5419140906888,418.9227142557502 L 1065.2480895371991,404.12745740264654 " fill="rgb(199,30,43)" stroke="rgb(199,30,43)" stroke-width="2" /><path d="M +1065.2480895371991,404.12745740264654 L 1062.9626965077478,388.83775498718023 " fill="rgb(199,30,43)" stroke="rgb(199,30,43)" stroke-width="2" /><path d="M +1062.9626965077478,388.83775498718023 L 1066.2674667985993,372.3490109667182 " fill="rgb(199,30,43)" stroke="rgb(199,30,43)" stroke-width="2" /><path d="M +1066.2674667985993,372.3490109667182 L 1073.0459358842927,351.8361320719123 " fill="rgb(199,30,43)" stroke="rgb(199,30,43)" stroke-width="2" /><path d="M +1073.0459358842927,351.8361320719123 L 1082.9209848793107,328.36791660636663 " fill="rgb(199,30,43)" stroke="rgb(199,30,43)" stroke-width="2" /><path d="M +1082.9209848793107,328.36791660636663 L 1095.7537111194688,301.3005104288459 " fill="rgb(199,30,43)" stroke="rgb(199,30,43)" stroke-width="2" /><path d="M +1095.7537111194688,301.3005104288459 L 1111.912463560875,274.9750867113471 " fill="rgb(199,30,43)" stroke="rgb(199,30,43)" stroke-width="2" /><path d="M +1111.912463560875,274.9750867113471 L 1128.265002623375,247.84828331321478 " fill="rgb(199,30,43)" stroke="rgb(199,30,43)" stroke-width="2" /><path d="M +1128.265002623375,247.84828331321478 L 1144.9659618290025,222.26306106895208 " fill="rgb(199,30,43)" stroke="rgb(199,30,43)" stroke-width="2" /><path d="M +1144.9659618290025,222.26306106895208 L 1160.232435122307,198.97134449332952 " fill="rgb(199,30,43)" stroke="rgb(199,30,43)" stroke-width="2" /><path d="M +1160.232435122307,198.97134449332952 L 1173.6916955860215,178.79969503730536 " fill="rgb(199,30,43)" stroke="rgb(199,30,43)" stroke-width="2" /><path d="M +1173.6916955860215,178.79969503730536 L 1184.0705057533341,160.61798121780157 " fill="rgb(199,30,43)" stroke="rgb(199,30,43)" stroke-width="2" /><path d="M +1184.0705057533341,160.61798121780157 L 1193.6503216178971,150.41282083839178 " fill="rgb(199,30,43)" stroke="rgb(199,30,43)" stroke-width="2" /><path d="M +1193.6503216178971,150.41282083839178 L 1198.272402540024,143.49759187549353 " fill="rgb(199,30,43)" stroke="rgb(199,30,43)" stroke-width="2" /><path d="M +1198.272402540024,143.49759187549353 L 1200.5098248572904,144.550425671041 " fill="rgb(199,30,43)" stroke="rgb(199,30,43)" stroke-width="2" /><path d="M +1200.5098248572904,144.550425671041 L 1199.6313049944001,144.93857085704803 " fill="rgb(199,30,43)" stroke="rgb(199,30,43)" stroke-width="2" /><path d="M +1199.6313049944001,144.93857085704803 L 1197.1105467827874,149.77600693702698 " fill="rgb(199,30,43)" stroke="rgb(199,30,43)" stroke-width="2" /><path d="M +1197.1105467827874,149.77600693702698 L 1194.9073184581357,163.0504333972931 " fill="rgb(199,30,43)" stroke="rgb(199,30,43)" stroke-width="2" /><path d="M +1194.9073184581357,163.0504333972931 L 1192.3002476544934,180.5779504776001 " fill="rgb(199,30,43)" stroke="rgb(199,30,43)" stroke-width="2" /><path d="M +1192.3002476544934,180.5779504776001 L 1191.1310439856607,198.4311878681183 " fill="rgb(199,30,43)" stroke="rgb(199,30,43)" stroke-width="2" /><path d="M +1191.1310439856607,198.4311878681183 L 1192.9953997881967,215.2893364429474 " fill="rgb(199,30,43)" stroke="rgb(199,30,43)" stroke-width="2" /><path d="M +1192.9953997881967,215.2893364429474 L 1199.3933093102532,229.24376606941223 " fill="rgb(199,30,43)" stroke="rgb(199,30,43)" stroke-width="2" /><path d="M +1199.3933093102532,229.24376606941223 L 1207.1392499955255,236.29041135311127 " fill="rgb(199,30,43)" stroke="rgb(199,30,43)" stroke-width="2" /><path d="M +1207.1392499955255,236.29041135311127 L 1217.1360361130792,239.92299735546112 " fill="rgb(199,30,43)" stroke="rgb(199,30,43)" stroke-width="2" /><path d="M +1217.1360361130792,239.92299735546112 L 1228.3562683613854,239.1844853013754 " fill="rgb(199,30,43)" stroke="rgb(199,30,43)" stroke-width="2" /><path d="M +1228.3562683613854,239.1844853013754 L 1239.2160939725,232.79105566442013 " fill="rgb(199,30,43)" stroke="rgb(199,30,43)" stroke-width="2" /><path d="M +1239.2160939725,232.79105566442013 L 1248.4946441205102,221.70695923268795 " fill="rgb(199,30,43)" stroke="rgb(199,30,43)" stroke-width="2" /><path d="M +1248.4946441205102,221.70695923268795 L 1255.7600122244912,205.95874927937984 " fill="rgb(199,30,43)" stroke="rgb(199,30,43)" stroke-width="2" /><path d="M +1255.7600122244912,205.95874927937984 L 1259.5023172648507,186.2169923633337 " fill="rgb(199,30,43)" stroke="rgb(199,30,43)" stroke-width="2" /><path d="M +1259.5023172648507,186.2169923633337 L 1259.6057626625407,166.59690879285336 " fill="rgb(199,30,43)" stroke="rgb(199,30,43)" stroke-width="2" /><path d="M +1259.6057626625407,166.59690879285336 L 1255.9100821634638,150.0469519942999 " fill="rgb(199,30,43)" stroke="rgb(199,30,43)" stroke-width="2" /><path d="M +1255.9100821634638,150.0469519942999 L 1248.3265480419504,137.0117499679327 " fill="rgb(199,30,43)" stroke="rgb(199,30,43)" stroke-width="2" /><path d="M +1248.3265480419504,137.0117499679327 L 1237.89582699741,128.51472876966 " fill="rgb(199,30,43)" stroke="rgb(199,30,43)" stroke-width="2" /><path d="M +1237.89582699741,128.51472876966 L 1226.3962683102,126.66060991585255 " fill="rgb(199,30,43)" stroke="rgb(199,30,43)" stroke-width="2" /><path d="M +1226.3962683102,126.66060991585255 L 1214.1744002720225,130.68471767008305 " fill="rgb(199,30,43)" stroke="rgb(199,30,43)" stroke-width="2" /><path d="M +1214.1744002720225,130.68471767008305 L 1203.6513456722605,139.89979304373264 " fill="rgb(199,30,43)" stroke="rgb(199,30,43)" stroke-width="2" /><path d="M +1203.6513456722605,139.89979304373264 L 1196.1352106949198,153.75102199614048 " fill="rgb(199,30,43)" stroke="rgb(199,30,43)" stroke-width="2" /><path d="M +1196.1352106949198,153.75102199614048 L 1192.2067257782328,165.77783025801182 " fill="rgb(199,30,43)" stroke="rgb(199,30,43)" stroke-width="2" /><path d="M 1262.7686783691752,155.26613630354404 " fill="rgb(215,37,167)" stroke="rgb(215,37,167)" stroke-width="2" /><path d="M +1262.7686783691752,155.26613630354404 L 1263.1540633385885,158.6345598846674 " fill="rgb(215,37,167)" stroke="rgb(215,37,167)" stroke-width="2" /><path d="M +1263.1540633385885,158.6345598846674 L 1263.949609438132,167.45088554918766 " fill="rgb(215,37,167)" stroke="rgb(215,37,167)" stroke-width="2" /><path d="M +1263.949609438132,167.45088554918766 L 1265.576071778487,182.09420777857304 " fill="rgb(215,37,167)" stroke="rgb(215,37,167)" stroke-width="2" /><path d="M +1265.576071778487,182.09420777857304 L 1269.2050975954044,199.18325044214725 " fill="rgb(215,37,167)" stroke="rgb(215,37,167)" stroke-width="2" /><path d="M +1269.2050975954044,199.18325044214725 L 1273.5646889006603,216.14969708025455 " fill="rgb(215,37,167)" stroke="rgb(215,37,167)" stroke-width="2" /><path d="M +1273.5646889006603,216.14969708025455 L 1279.1884223019588,231.34927488863468 " fill="rgb(215,37,167)" stroke="rgb(215,37,167)" stroke-width="2" /><path d="M +1279.1884223019588,231.34927488863468 L 1285.817504862498,241.1591324955225 " fill="rgb(215,37,167)" stroke="rgb(215,37,167)" stroke-width="2" /><path d="M +1285.817504862498,241.1591324955225 L 1293.851021269511,245.58367140591145 " fill="rgb(215,37,167)" stroke="rgb(215,37,167)" stroke-width="2" /><path d="M +1293.851021269511,245.58367140591145 L 1301.9825420176494,243.75183202326298 " fill="rgb(215,37,167)" stroke="rgb(215,37,167)" stroke-width="2" /><path d="M +1301.9825420176494,243.75183202326298 L 1310.422214010905,235.00421859323978 " fill="rgb(215,37,167)" stroke="rgb(215,37,167)" stroke-width="2" /><path d="M +1310.422214010905,235.00421859323978 L 1318.373725155543,222.31237031519413 " fill="rgb(215,37,167)" stroke="rgb(215,37,167)" stroke-width="2" /><path d="M +1318.373725155543,222.31237031519413 L 1325.430307725619,204.9000559002161 " fill="rgb(215,37,167)" stroke="rgb(215,37,167)" stroke-width="2" /><path d="M +1325.430307725619,204.9000559002161 L 1331.4517787491786,186.583965793252 " fill="rgb(215,37,167)" stroke="rgb(215,37,167)" stroke-width="2" /><path d="M +1331.4517787491786,186.583965793252 L 1335.5214709436405,169.52766276896 " fill="rgb(215,37,167)" stroke="rgb(215,37,167)" stroke-width="2" /><path d="M +1335.5214709436405,169.52766276896 L 1338.4719902669895,157.74338342249393 " fill="rgb(215,37,167)" stroke="rgb(215,37,167)" stroke-width="2" /><path d="M +1338.4719902669895,157.74338342249393 L 1339.1306173449266,150.39921797811985 " fill="rgb(215,37,167)" stroke="rgb(215,37,167)" stroke-width="2" /><path d="M +1339.1306173449266,150.39921797811985 L 1340.208997989248,149.66811686754227 " fill="rgb(215,37,167)" stroke="rgb(215,37,167)" stroke-width="2" /><path d="M +1340.208997989248,149.66811686754227 L 1339.080213198613,150.19246105104685 " fill="rgb(215,37,167)" stroke="rgb(215,37,167)" stroke-width="2" /><path d="M 1391.0869537686813,185.9844208136201 " fill="rgb(225,1,115)" stroke="rgb(225,1,115)" stroke-width="2" /><path d="M +1391.0869537686813,185.9844208136201 L 1390.3447468971717,186.3492437452078 " fill="rgb(225,1,115)" stroke="rgb(225,1,115)" stroke-width="2" /><path d="M +1390.3447468971717,186.3492437452078 L 1390.2173515150207,185.94391006976366 " fill="rgb(225,1,115)" stroke="rgb(225,1,115)" stroke-width="2" /><path d="M +1390.2173515150207,185.94391006976366 L 1392.0856704303878,191.87691289931536 " fill="rgb(225,1,115)" stroke="rgb(225,1,115)" stroke-width="2" /><path d="M +1392.0856704303878,191.87691289931536 L 1391.9342071397114,201.67251843959093 " fill="rgb(225,1,115)" stroke="rgb(225,1,115)" stroke-width="2" /><path d="M +1391.9342071397114,201.67251843959093 L 1393.6807641966152,220.174167342484 " fill="rgb(225,1,115)" stroke="rgb(225,1,115)" stroke-width="2" /><path d="M +1393.6807641966152,220.174167342484 L 1395.0329118056106,242.55858201533556 " fill="rgb(225,1,115)" stroke="rgb(225,1,115)" stroke-width="2" /><path d="M +1395.0329118056106,242.55858201533556 L 1395.62736412714,267.2016956284642 " fill="rgb(225,1,115)" stroke="rgb(225,1,115)" stroke-width="2" /><path d="M +1395.62736412714,267.2016956284642 L 1392.5312035364914,288.73908061534166 " fill="rgb(225,1,115)" stroke="rgb(225,1,115)" stroke-width="2" /><path d="M +1392.5312035364914,288.73908061534166 L 1388.0129917545128,307.7633513882756 " fill="rgb(225,1,115)" stroke="rgb(225,1,115)" stroke-width="2" /><path d="M +1388.0129917545128,307.7633513882756 L 1382.7050854844856,321.72301072627306 " fill="rgb(225,1,115)" stroke="rgb(225,1,115)" stroke-width="2" /><path d="M +1382.7050854844856,321.72301072627306 L 1379.4712199849891,329.3288888409734 " fill="rgb(225,1,115)" stroke="rgb(225,1,115)" stroke-width="2" /><path d="M +1379.4712199849891,329.3288888409734 L 1378.812441213231,330.88317040354013 " fill="rgb(225,1,115)" stroke="rgb(225,1,115)" stroke-width="2" /><path d="M +1378.812441213231,330.88317040354013 L 1379.1767735985923,329.4866784289479 " fill="rgb(225,1,115)" stroke="rgb(225,1,115)" stroke-width="2" /><path d="M +1379.1767735985923,329.4866784289479 L 1380.3267652002978,322.7350099757314 " fill="rgb(225,1,115)" stroke="rgb(225,1,115)" stroke-width="2" /><path d="M +1380.3267652002978,322.7350099757314 L 1382.8123814074206,309.14717871695757 " fill="rgb(225,1,115)" stroke="rgb(225,1,115)" stroke-width="2" /><path d="M +1382.8123814074206,309.14717871695757 L 1390.4368871657061,293.8188584521413 " fill="rgb(225,1,115)" stroke="rgb(225,1,115)" stroke-width="2" /><path d="M +1390.4368871657061,293.8188584521413 L 1398.927654644649,277.00678545981646 " fill="rgb(225,1,115)" stroke="rgb(225,1,115)" stroke-width="2" /><path d="M +1398.927654644649,277.00678545981646 L 1409.9221986738848,260.29870230704546 " fill="rgb(225,1,115)" stroke="rgb(225,1,115)" stroke-width="2" /><path d="M 1510.7466882673907,97.17509467154741 " fill="rgb(6,61,27)" stroke="rgb(6,61,27)" stroke-width="2" /><path d="M +1510.7466882673907,97.17509467154741 L 1509.3743412403273,97.96743143349886 " fill="rgb(6,61,27)" stroke="rgb(6,61,27)" stroke-width="2" /><path d="M +1509.3743412403273,97.96743143349886 L 1511.6912891177344,102.5589044764638 " fill="rgb(6,61,27)" stroke="rgb(6,61,27)" stroke-width="2" /><path d="M +1511.6912891177344,102.5589044764638 L 1511.174022166233,114.25057847052813 " fill="rgb(6,61,27)" stroke="rgb(6,61,27)" stroke-width="2" /><path d="M +1511.174022166233,114.25057847052813 L 1510.8420687002945,135.21338660269976 " fill="rgb(6,61,27)" stroke="rgb(6,61,27)" stroke-width="2" /><path d="M +1510.8420687002945,135.21338660269976 L 1511.2238946763682,158.4793635085225 " fill="rgb(6,61,27)" stroke="rgb(6,61,27)" stroke-width="2" /><path d="M +1511.2238946763682,158.4793635085225 L 1510.4187689183163,180.7581802085042 " fill="rgb(6,61,27)" stroke="rgb(6,61,27)" stroke-width="2" /><path d="M +1510.4187689183163,180.7581802085042 L 1512.2892094610143,203.8272686675191 " fill="rgb(6,61,27)" stroke="rgb(6,61,27)" stroke-width="2" /><path d="M +1512.2892094610143,203.8272686675191 L 1511.7036275399732,223.0306227877736 " fill="rgb(6,61,27)" stroke="rgb(6,61,27)" stroke-width="2" /><path d="M +1511.7036275399732,223.0306227877736 L 1512.7276775820064,239.10096485167742 " fill="rgb(6,61,27)" stroke="rgb(6,61,27)" stroke-width="2" /><path d="M +1512.7276775820064,239.10096485167742 L 1514.4079943580437,250.05655486136675 " fill="rgb(6,61,27)" stroke="rgb(6,61,27)" stroke-width="2" /><path d="M +1514.4079943580437,250.05655486136675 L 1515.7930012626457,255.24634797126055 " fill="rgb(6,61,27)" stroke="rgb(6,61,27)" stroke-width="2" /><path d="M +1515.7930012626457,255.24634797126055 L 1516.375738514762,254.80850499123335 " fill="rgb(6,61,27)" stroke="rgb(6,61,27)" stroke-width="2" /><path d="M +1516.375738514762,254.80850499123335 L 1518.5040663016844,254.0361226722598 " fill="rgb(6,61,27)" stroke="rgb(6,61,27)" stroke-width="2" /><path d="M +1518.5040663016844,254.0361226722598 L 1519.2270185632515,246.56604122370481 " fill="rgb(6,61,27)" stroke="rgb(6,61,27)" stroke-width="2" /><path d="M +1519.2270185632515,246.56604122370481 L 1522.2800614518928,235.494455806911 " fill="rgb(6,61,27)" stroke="rgb(6,61,27)" stroke-width="2" /><path d="M +1522.2800614518928,235.494455806911 L 1524.4281370026874,220.59121560305357 " fill="rgb(6,61,27)" stroke="rgb(6,61,27)" stroke-width="2" /><path d="M +1524.4281370026874,220.59121560305357 L 1528.0556902868557,207.79140543192625 " fill="rgb(6,61,27)" stroke="rgb(6,61,27)" stroke-width="2" /><path d="M +1528.0556902868557,207.79140543192625 L 1530.4828090054798,198.26402615755796 " fill="rgb(6,61,27)" stroke="rgb(6,61,27)" stroke-width="2" /><path d="M +1530.4828090054798,198.26402615755796 L 1533.59050100873,192.52905797213316 " fill="rgb(6,61,27)" stroke="rgb(6,61,27)" stroke-width="2" /><path d="M +1533.59050100873,192.52905797213316 L 1537.9531261904049,193.6282615736127 " fill="rgb(6,61,27)" stroke="rgb(6,61,27)" stroke-width="2" /><path d="M +1537.9531261904049,193.6282615736127 L 1542.8489426357555,198.04418344050646 " fill="rgb(6,61,27)" stroke="rgb(6,61,27)" stroke-width="2" /><path d="M +1542.8489426357555,198.04418344050646 L 1549.113812802534,206.06346387416124 " fill="rgb(6,61,27)" stroke="rgb(6,61,27)" stroke-width="2" /><path d="M +1549.113812802534,206.06346387416124 L 1556.9780848009395,219.07045979052782 " fill="rgb(6,61,27)" stroke="rgb(6,61,27)" stroke-width="2" /><path d="M +1556.9780848009395,219.07045979052782 L 1563.7517199499416,233.4449078515172 " fill="rgb(6,61,27)" stroke="rgb(6,61,27)" stroke-width="2" /><path d="M +1563.7517199499416,233.4449078515172 L 1568.8433567268657,246.99116606265306 " fill="rgb(6,61,27)" stroke="rgb(6,61,27)" stroke-width="2" /><path d="M +1568.8433567268657,246.99116606265306 L 1572.0555624944973,256.2944074347615 " fill="rgb(6,61,27)" stroke="rgb(6,61,27)" stroke-width="2" /><path d="M +1572.0555624944973,256.2944074347615 L 1574.7540903670597,261.79802794009447 " fill="rgb(6,61,27)" stroke="rgb(6,61,27)" stroke-width="2" /><path d="M +1574.7540903670597,261.79802794009447 L 1575.0246908908593,262.5300310924649 " fill="rgb(6,61,27)" stroke="rgb(6,61,27)" stroke-width="2" /><path d="M 1591.6294827705133,177.11661327630281 " fill="rgb(85,52,128)" stroke="rgb(85,52,128)" stroke-width="2" /><path d="M +1591.6294827705133,177.11661327630281 L 1591.0689957460272,178.28502882272005 " fill="rgb(85,52,128)" stroke="rgb(85,52,128)" stroke-width="2" /><path d="M +1591.0689957460272,178.28502882272005 L 1590.966980124067,181.77096504718065 " fill="rgb(85,52,128)" stroke="rgb(85,52,128)" stroke-width="2" /></svg>