<?xml version="1.0" encoding="utf-8" ?>
<svg baseProfile="full" height="318.344321991317" version="1.1" width="2125.1116635184735" xmlns="http://www.w3.org/2000/svg" xmlns:ev="http://www.w3.org/2001/xml-events" xmlns:xlink="http://www.w3.org/1999/xlink"><defs /><rect fill="white" height="318.344321991317" width="2125.1116635184735" x="0" y="0" /><path d="M 25.0,121.30331747699529 " fill="rgb(123,189,152)" stroke="rgb(123,189,152)" stroke-width="2" /><path d="M 48.974387645721436,114.50003974605352 " fill="rgb(201,24,121)" stroke="rgb(201,24,121)" stroke-width="2" /><path d="M +48.974387645721436,114.50003974605352 L 48.5777098685503,115.57748690713197 " fill="rgb(201,24,121)" stroke="rgb(201,24,121)" stroke-width="2" /><path d="M +48.5777098685503,115.57748690713197 L 47.28875629603863,117.41578326094896 " fill="rgb(201,24,121)" stroke="rgb(201,24,121)" stroke-width="2" /><path d="M +47.28875629603863,117.41578326094896 L 44.12477634847164,131.1607800470665 " fill="rgb(201,24,121)" stroke="rgb(201,24,121)" stroke-width="2" /><path d="M +44.12477634847164,131.1607800470665 L 39.34906296432018,153.13413724768907 " fill="rgb(201,24,121)" stroke="rgb(201,24,121)" stroke-width="2" /><path d="M +39.34906296432018,153.13413724768907 L 36.49486534297466,173.97897825110704 " fill="rgb(201,24,121)" stroke="rgb(201,24,121)" stroke-width="2" /><path d="M +36.49486534297466,173.97897825110704 L 37.788390442728996,192.14184031356126 " fill="rgb(201,24,121)" stroke="rgb(201,24,121)" stroke-width="2" /><path d="M +37.788390442728996,192.14184031356126 L 44.46866385638714,204.77336034644395 " fill="rgb(201,24,121)" stroke="rgb(201,24,121)" stroke-width="2" /><path d="M +44.46866385638714,204.77336034644395 L 55.14825098216534,208.90045270789415 " fill="rgb(201,24,121)" stroke="rgb(201,24,121)" stroke-width="2" /><path d="M +55.14825098216534,208.90045270789415 L 65.9475540369749,203.7427590833977 " fill="rgb(201,24,121)" stroke="rgb(201,24,121)" stroke-width="2" /><path d="M +65.9475540369749,203.7427590833977 L 78.14849488437176,197.72883579600602 " fill="rgb(201,24,121)" stroke="rgb(201,24,121)" stroke-width="2" /><path d="M +78.14849488437176,197.72883579600602 L 87.02978663146496,186.65281460154802 " fill="rgb(201,24,121)" stroke="rgb(201,24,121)" stroke-width="2" /><path d="M +87.02978663146496,186.65281460154802 L 92.18444518744946,172.2465841518715 " fill="rgb(201,24,121)" stroke="rgb(201,24,121)" stroke-width="2" /><path d="M +92.18444518744946,172.2465841518715 L 93.003890812397,156.9692711578682 " fill="rgb(201,24,121)" stroke="rgb(201,24,121)" stroke-width="2" /><path d="M +93.003890812397,156.9692711578682 L 90.04621833562851,142.95176789630204 " fill="rgb(201,24,121)" stroke="rgb(201,24,121)" stroke-width="2" /><path d="M +90.04621833562851,142.95176789630204 L 84.10861283540726,132.34345123637468 " fill="rgb(201,24,121)" stroke="rgb(201,24,121)" stroke-width="2" /><path d="M +84.10861283540726,132.34345123637468 L 76.13293677568436,126.50617942679673 " fill="rgb(201,24,121)" stroke="rgb(201,24,121)" stroke-width="2" /><path d="M +76.13293677568436,126.50617942679673 L 67.67971724271774,124.45457593072206 " fill="rgb(201,24,121)" stroke="rgb(201,24,121)" stroke-width="2" /><path d="M 132.0392295718193,110.17348424065858 " fill="rgb(136,6,238)" stroke="rgb(136,6,238)" stroke-width="2" /><path d="M +132.0392295718193,110.17348424065858 L 131.22352294623852,111.11527406144887 " fill="rgb(136,6,238)" stroke="rgb(136,6,238)" stroke-width="2" /><path d="M +131.22352294623852,111.11527406144887 L 133.76467786729336,118.41691814828664 " fill="rgb(136,6,238)" stroke="rgb(136,6,238)" stroke-width="2" /><path d="M +133.76467786729336,118.41691814828664 L 134.7247588634491,129.26795684266835 " fill="rgb(136,6,238)" stroke="rgb(136,6,238)" stroke-width="2" /><path d="M +134.7247588634491,129.26795684266835 L 136.15647196769714,143.3797999517992 " fill="rgb(136,6,238)" stroke="rgb(136,6,238)" stroke-width="2" /><path d="M +136.15647196769714,143.3797999517992 L 136.4339897222817,156.83174454141408 " fill="rgb(136,6,238)" stroke="rgb(136,6,238)" stroke-width="2" /><path d="M +136.4339897222817,156.83174454141408 L 140.19897313788533,170.34632169175893 " fill="rgb(136,6,238)" stroke="rgb(136,6,238)" stroke-width="2" /><path d="M +140.19897313788533,170.34632169175893 L 141.7834378965199,178.08771275449544 " fill="rgb(136,6,238)" stroke="rgb(136,6,238)" stroke-width="2" /><path d="M +141.7834378965199,178.08771275449544 L 142.02045157551765,180.43635584879667 " fill="rgb(136,6,238)" stroke="rgb(136,6,238)" stroke-width="2" /><path d="M +142.02045157551765,180.43635584879667 L 141.9134702719748,180.52533144596964 " fill="rgb(136,6,238)" stroke="rgb(136,6,238)" stroke-width="2" /><path d="M +141.9134702719748,180.52533144596964 L 142.72349717095494,179.73972546402365 " fill="rgb(136,6,238)" stroke="rgb(136,6,238)" stroke-width="2" /><path d="M +142.72349717095494,179.73972546402365 L 144.35253323987126,172.19220268074423 " fill="rgb(136,6,238)" stroke="rgb(136,6,238)" stroke-width="2" /><path d="M +144.35253323987126,172.19220268074423 L 147.09487499669194,160.60838805977255 " fill="rgb(136,6,238)" stroke="rgb(136,6,238)" stroke-width="2" /><path d="M +147.09487499669194,160.60838805977255 L 153.00781490281224,151.86040925327688 " fill="rgb(136,6,238)" stroke="rgb(136,6,238)" stroke-width="2" /><path d="M +153.00781490281224,151.86040925327688 L 156.16349877789617,148.60500948969275 " fill="rgb(136,6,238)" stroke="rgb(136,6,238)" stroke-width="2" /><path d="M +156.16349877789617,148.60500948969275 L 156.84078173711896,149.3289821082726 " fill="rgb(136,6,238)" stroke="rgb(136,6,238)" stroke-width="2" /><path d="M +156.84078173711896,149.3289821082726 L 157.54361549392343,154.21881812158972 " fill="rgb(136,6,238)" stroke="rgb(136,6,238)" stroke-width="2" /><path d="M +157.54361549392343,154.21881812158972 L 158.7307103164494,167.09319966379553 " fill="rgb(136,6,238)" stroke="rgb(136,6,238)" stroke-width="2" /><path d="M +158.7307103164494,167.09319966379553 L 162.35832707956433,180.59379594866186 " fill="rgb(136,6,238)" stroke="rgb(136,6,238)" stroke-width="2" /><path d="M +162.35832707956433,180.59379594866186 L 169.50225906446576,193.8313533598557 " fill="rgb(136,6,238)" stroke="rgb(136,6,238)" stroke-width="2" /><path d="M +169.50225906446576,193.8313533598557 L 178.26227920129895,197.7139942580834 " fill="rgb(136,6,238)" stroke="rgb(136,6,238)" stroke-width="2" /><path d="M +178.26227920129895,197.7139942580834 L 189.24632446840405,197.26706067565829 " fill="rgb(136,6,238)" stroke="rgb(136,6,238)" stroke-width="2" /><path d="M +189.24632446840405,197.26706067565829 L 201.0997618921101,188.976356186904 " fill="rgb(136,6,238)" stroke="rgb(136,6,238)" stroke-width="2" /><path d="M +201.0997618921101,188.976356186904 L 215.67282693460584,182.22739020828158 " fill="rgb(136,6,238)" stroke="rgb(136,6,238)" stroke-width="2" /><path d="M +215.67282693460584,182.22739020828158 L 227.5650872476399,174.28795019630343 " fill="rgb(136,6,238)" stroke="rgb(136,6,238)" stroke-width="2" /><path d="M +227.5650872476399,174.28795019630343 L 236.87275366857648,164.666270413436 " fill="rgb(136,6,238)" stroke="rgb(136,6,238)" stroke-width="2" /><path d="M +236.87275366857648,164.666270413436 L 241.96239607408643,151.60998980049044 " fill="rgb(136,6,238)" stroke="rgb(136,6,238)" stroke-width="2" /><path d="M +241.96239607408643,151.60998980049044 L 243.98741455748677,138.19771925453097 " fill="rgb(136,6,238)" stroke="rgb(136,6,238)" stroke-width="2" /><path d="M +243.98741455748677,138.19771925453097 L 243.95169088384137,127.91660706046969 " fill="rgb(136,6,238)" stroke="rgb(136,6,238)" stroke-width="2" /><path d="M +243.95169088384137,127.91660706046969 L 243.93288858234882,121.95808867458254 " fill="rgb(136,6,238)" stroke="rgb(136,6,238)" stroke-width="2" /><path d="M +243.93288858234882,121.95808867458254 L 242.30342380702496,118.65939865354449 " fill="rgb(136,6,238)" stroke="rgb(136,6,238)" stroke-width="2" /><path d="M +242.30342380702496,118.65939865354449 L 238.93177919089794,114.0528933191672 " fill="rgb(136,6,238)" stroke="rgb(136,6,238)" stroke-width="2" /><path d="M +238.93177919089794,114.0528933191672 L 236.8401012569666,113.41839517001063 " fill="rgb(136,6,238)" stroke="rgb(136,6,238)" stroke-width="2" /><path d="M 469.8375568538904,129.988226541318 " fill="rgb(114,74,236)" stroke="rgb(114,74,236)" stroke-width="2" /><path d="M +469.8375568538904,129.988226541318 L 464.91280533373356,135.23141706828028 " fill="rgb(114,74,236)" stroke="rgb(114,74,236)" stroke-width="2" /><path d="M +464.91280533373356,135.23141706828028 L 461.1479399353266,146.48288572672755 " fill="rgb(114,74,236)" stroke="rgb(114,74,236)" stroke-width="2" /><path d="M +461.1479399353266,146.48288572672755 L 458.6989501863718,159.93782008532435 " fill="rgb(114,74,236)" stroke="rgb(114,74,236)" stroke-width="2" /><path d="M +458.6989501863718,159.93782008532435 L 459.7884102165699,175.68915689829737 " fill="rgb(114,74,236)" stroke="rgb(114,74,236)" stroke-width="2" /><path d="M +459.7884102165699,175.68915689829737 L 460.6677458435297,185.79798782709986 " fill="rgb(114,74,236)" stroke="rgb(114,74,236)" stroke-width="2" /><path d="M +460.6677458435297,185.79798782709986 L 465.19802041351795,194.13048351649195 " fill="rgb(114,74,236)" stroke="rgb(114,74,236)" stroke-width="2" /><path d="M +465.19802041351795,194.13048351649195 L 471.5957624465227,197.33111853245646 " fill="rgb(114,74,236)" stroke="rgb(114,74,236)" stroke-width="2" /><path d="M +471.5957624465227,197.33111853245646 L 477.2090006619692,194.07766337040812 " fill="rgb(114,74,236)" stroke="rgb(114,74,236)" stroke-width="2" /><path d="M +477.2090006619692,194.07766337040812 L 485.10988362133503,188.8584708655253 " fill="rgb(114,74,236)" stroke="rgb(114,74,236)" stroke-width="2" /><path d="M +485.10988362133503,188.8584708655253 L 493.7017435580492,180.61462278012186 " fill="rgb(114,74,236)" stroke="rgb(114,74,236)" stroke-width="2" /><path d="M +493.7017435580492,180.61462278012186 L 500.00494964420795,168.8542031729594 " fill="rgb(114,74,236)" stroke="rgb(114,74,236)" stroke-width="2" /><path d="M +500.00494964420795,168.8542031729594 L 505.2699387818575,155.61747069004923 " fill="rgb(114,74,236)" stroke="rgb(114,74,236)" stroke-width="2" /><path d="M +505.2699387818575,155.61747069004923 L 505.6890396028757,140.09750122670084 " fill="rgb(114,74,236)" stroke="rgb(114,74,236)" stroke-width="2" /><path d="M +505.6890396028757,140.09750122670084 L 505.5073479935527,131.04993159417063 " fill="rgb(114,74,236)" stroke="rgb(114,74,236)" stroke-width="2" /><path d="M +505.5073479935527,131.04993159417063 L 504.0854274854064,129.21827281359583 " fill="rgb(114,74,236)" stroke="rgb(114,74,236)" stroke-width="2" /><path d="M +504.0854274854064,129.21827281359583 L 502.2194115445018,128.7325012916699 " fill="rgb(114,74,236)" stroke="rgb(114,74,236)" stroke-width="2" /><path d="M +502.2194115445018,128.7325012916699 L 499.94695108383894,132.2434741491452 " fill="rgb(114,74,236)" stroke="rgb(114,74,236)" stroke-width="2" /><path d="M +499.94695108383894,132.2434741491452 L 498.65099783986807,144.541364335455 " fill="rgb(114,74,236)" stroke="rgb(114,74,236)" stroke-width="2" /><path d="M +498.65099783986807,144.541364335455 L 499.7414858266711,161.14662232343107 " fill="rgb(114,74,236)" stroke="rgb(114,74,236)" stroke-width="2" /><path d="M +499.7414858266711,161.14662232343107 L 503.2874334976077,174.1789192194119 " fill="rgb(114,74,236)" stroke="rgb(114,74,236)" stroke-width="2" /><path d="M +503.2874334976077,174.1789192194119 L 509.973238222301,183.1454116338864 " fill="rgb(114,74,236)" stroke="rgb(114,74,236)" stroke-width="2" /><path d="M +509.973238222301,183.1454116338864 L 517.9984630271792,185.6084110075608 " fill="rgb(114,74,236)" stroke="rgb(114,74,236)" stroke-width="2" /><path d="M +517.9984630271792,185.6084110075608 L 529.22322999686,184.7510695690289 " fill="rgb(114,74,236)" stroke="rgb(114,74,236)" stroke-width="2" /><path d="M +529.22322999686,184.7510695690289 L 544.271465651691,186.23329850379378 " fill="rgb(114,74,236)" stroke="rgb(114,74,236)" stroke-width="2" /><path d="M +544.271465651691,186.23329850379378 L 556.0835767909884,182.51772853080183 " fill="rgb(114,74,236)" stroke="rgb(114,74,236)" stroke-width="2" /><path d="M +556.0835767909884,182.51772853080183 L 566.0466141626239,177.6946440571919 " fill="rgb(114,74,236)" stroke="rgb(114,74,236)" stroke-width="2" /><path d="M +566.0466141626239,177.6946440571919 L 574.9438304826617,169.83120175544173 " fill="rgb(114,74,236)" stroke="rgb(114,74,236)" stroke-width="2" /><path d="M +574.9438304826617,169.83120175544173 L 582.9135121032596,162.69230159465224 " fill="rgb(114,74,236)" stroke="rgb(114,74,236)" stroke-width="2" /><path d="M +582.9135121032596,162.69230159465224 L 588.6391050741076,157.2439274424687 " fill="rgb(114,74,236)" stroke="rgb(114,74,236)" stroke-width="2" /><path d="M +588.6391050741076,157.2439274424687 L 591.8398336693645,156.32372895721346 " fill="rgb(114,74,236)" stroke="rgb(114,74,236)" stroke-width="2" /><path d="M +591.8398336693645,156.32372895721346 L 594.8113600537181,158.8482097769156 " fill="rgb(114,74,236)" stroke="rgb(114,74,236)" stroke-width="2" /><path d="M +594.8113600537181,158.8482097769156 L 598.6258004233241,165.37849167827517 " fill="rgb(114,74,236)" stroke="rgb(114,74,236)" stroke-width="2" /><path d="M +598.6258004233241,165.37849167827517 L 601.9966603443027,173.35518816951662 " fill="rgb(114,74,236)" stroke="rgb(114,74,236)" stroke-width="2" /><path d="M +601.9966603443027,173.35518816951662 L 603.9257284626365,179.74350134376436 " fill="rgb(114,74,236)" stroke="rgb(114,74,236)" stroke-width="2" /><path d="M +603.9257284626365,179.74350134376436 L 604.9445439502597,184.07025585416704 " fill="rgb(114,74,236)" stroke="rgb(114,74,236)" stroke-width="2" /><path d="M +604.9445439502597,184.07025585416704 L 606.5126330778003,186.3261545682326 " fill="rgb(114,74,236)" stroke="rgb(114,74,236)" stroke-width="2" /><path d="M +606.5126330778003,186.3261545682326 L 606.6579245682806,184.9906765902415 " fill="rgb(114,74,236)" stroke="rgb(114,74,236)" stroke-width="2" /><path d="M +606.6579245682806,184.9906765902415 L 606.5033095423132,179.47382802609354 " fill="rgb(114,74,236)" stroke="rgb(114,74,236)" stroke-width="2" /><path d="M +606.5033095423132,179.47382802609354 L 605.811175191775,169.91567129734904 " fill="rgb(114,74,236)" stroke="rgb(114,74,236)" stroke-width="2" /><path d="M +605.811175191775,169.91567129734904 L 605.3377388510853,159.42192191723734 " fill="rgb(114,74,236)" stroke="rgb(114,74,236)" stroke-width="2" /><path d="M +605.3377388510853,159.42192191723734 L 605.2417384181172,150.5717449868098 " fill="rgb(114,74,236)" stroke="rgb(114,74,236)" stroke-width="2" /><path d="M +605.2417384181172,150.5717449868098 L 609.2376484069973,144.31053692940623 " fill="rgb(114,74,236)" stroke="rgb(114,74,236)" stroke-width="2" /><path d="M +609.2376484069973,144.31053692940623 L 613.6354445014149,139.215723820962 " fill="rgb(114,74,236)" stroke="rgb(114,74,236)" stroke-width="2" /><path d="M +613.6354445014149,139.215723820962 L 619.6464555058628,138.51638975087553 " fill="rgb(114,74,236)" stroke="rgb(114,74,236)" stroke-width="2" /><path d="M +619.6464555058628,138.51638975087553 L 627.1373401675373,137.90479554329067 " fill="rgb(114,74,236)" stroke="rgb(114,74,236)" stroke-width="2" /><path d="M +627.1373401675373,137.90479554329067 L 636.1622606310993,137.8354826522991 " fill="rgb(114,74,236)" stroke="rgb(114,74,236)" stroke-width="2" /><path d="M +636.1622606310993,137.8354826522991 L 646.9931088481098,138.35906885098666 " fill="rgb(114,74,236)" stroke="rgb(114,74,236)" stroke-width="2" /><path d="M +646.9931088481098,138.35906885098666 L 658.8621901068836,137.19030454289168 " fill="rgb(114,74,236)" stroke="rgb(114,74,236)" stroke-width="2" /><path d="M 671.8291400466114,168.58641936909407 " fill="rgb(109,86,212)" stroke="rgb(109,86,212)" stroke-width="2" /><path d="M +671.8291400466114,168.58641936909407 L 677.0958332810551,173.00076826941222 " fill="rgb(109,86,212)" stroke="rgb(109,86,212)" stroke-width="2" /><path d="M +677.0958332810551,173.00076826941222 L 687.5543598923832,174.59982871543616 " fill="rgb(109,86,212)" stroke="rgb(109,86,212)" stroke-width="2" /><path d="M +687.5543598923832,174.59982871543616 L 698.8649492058903,172.6123921526596 " fill="rgb(109,86,212)" stroke="rgb(109,86,212)" stroke-width="2" /><path d="M +698.8649492058903,172.6123921526596 L 710.7697443757206,168.40082451235503 " fill="rgb(109,86,212)" stroke="rgb(109,86,212)" stroke-width="2" /><path d="M +710.7697443757206,168.40082451235503 L 719.2898921761662,162.06966325175017 " fill="rgb(109,86,212)" stroke="rgb(109,86,212)" stroke-width="2" /><path d="M +719.2898921761662,162.06966325175017 L 725.288297990337,154.25838335882872 " fill="rgb(109,86,212)" stroke="rgb(109,86,212)" stroke-width="2" /><path d="M +725.288297990337,154.25838335882872 L 729.3279861006886,149.48014363180846 " fill="rgb(109,86,212)" stroke="rgb(109,86,212)" stroke-width="2" /><path d="M +729.3279861006886,149.48014363180846 L 729.8677833843976,146.45295187365264 " fill="rgb(109,86,212)" stroke="rgb(109,86,212)" stroke-width="2" /><path d="M +729.8677833843976,146.45295187365264 L 729.3239996675402,142.8145970357582 " fill="rgb(109,86,212)" stroke="rgb(109,86,212)" stroke-width="2" /><path d="M +729.3239996675402,142.8145970357582 L 727.3842179123312,139.57879051100463 " fill="rgb(109,86,212)" stroke="rgb(109,86,212)" stroke-width="2" /><path d="M +727.3842179123312,139.57879051100463 L 722.832290166989,136.3879896653816 " fill="rgb(109,86,212)" stroke="rgb(109,86,212)" stroke-width="2" /><path d="M +722.832290166989,136.3879896653816 L 717.0135732833296,137.43699445854872 " fill="rgb(109,86,212)" stroke="rgb(109,86,212)" stroke-width="2" /><path d="M +717.0135732833296,137.43699445854872 L 709.802572960034,142.72974147927016 " fill="rgb(109,86,212)" stroke="rgb(109,86,212)" stroke-width="2" /><path d="M +709.802572960034,142.72974147927016 L 701.071065897122,149.2130298865959 " fill="rgb(109,86,212)" stroke="rgb(109,86,212)" stroke-width="2" /><path d="M +701.071065897122,149.2130298865959 L 696.9558545295149,162.0764799369499 " fill="rgb(109,86,212)" stroke="rgb(109,86,212)" stroke-width="2" /><path d="M +696.9558545295149,162.0764799369499 L 694.4614010397345,176.21046378742903 " fill="rgb(109,86,212)" stroke="rgb(109,86,212)" stroke-width="2" /><path d="M +694.4614010397345,176.21046378742903 L 695.1706829760224,188.67649867665023 " fill="rgb(109,86,212)" stroke="rgb(109,86,212)" stroke-width="2" /><path d="M +695.1706829760224,188.67649867665023 L 702.030833074823,198.29835310112685 " fill="rgb(109,86,212)" stroke="rgb(109,86,212)" stroke-width="2" /><path d="M +702.030833074823,198.29835310112685 L 712.8365185949951,200.61167001258582 " fill="rgb(109,86,212)" stroke="rgb(109,86,212)" stroke-width="2" /><path d="M +712.8365185949951,200.61167001258582 L 727.4556925985962,198.20912688504905 " fill="rgb(109,86,212)" stroke="rgb(109,86,212)" stroke-width="2" /><path d="M 823.7299922201782,139.5981630636379 " fill="rgb(17,218,171)" stroke="rgb(17,218,171)" stroke-width="2" /><path d="M +823.7299922201782,139.5981630636379 L 820.9110885951668,158.25874059926718 " fill="rgb(17,218,171)" stroke="rgb(17,218,171)" stroke-width="2" /><path d="M +820.9110885951668,158.25874059926718 L 829.7574424836785,174.49647157918662 " fill="rgb(17,218,171)" stroke="rgb(17,218,171)" stroke-width="2" /><path d="M +829.7574424836785,174.49647157918662 L 856.6607618425041,202.76143759023398 " fill="rgb(17,218,171)" stroke="rgb(17,218,171)" stroke-width="2" /><path d="M +856.6607618425041,202.76143759023398 L 868.0352676007897,206.51126086246222 " fill="rgb(17,218,171)" stroke="rgb(17,218,171)" stroke-width="2" /><path d="M 914.666146049276,128.93923937808722 " fill="rgb(216,219,39)" stroke="rgb(216,219,39)" stroke-width="2" /><path d="M +914.666146049276,128.93923937808722 L 906.8363851401955,136.22829555999488 " fill="rgb(216,219,39)" stroke="rgb(216,219,39)" stroke-width="2" /><path d="M +906.8363851401955,136.22829555999488 L 909.1740793082863,129.38871085178107 " fill="rgb(216,219,39)" stroke="rgb(216,219,39)" stroke-width="2" /><path d="M +909.1740793082863,129.38871085178107 L 907.5955833587795,144.152123327367 " fill="rgb(216,219,39)" stroke="rgb(216,219,39)" stroke-width="2" /><path d="M +907.5955833587795,144.152123327367 L 904.2795677576214,164.57811772357672 " fill="rgb(216,219,39)" stroke="rgb(216,219,39)" stroke-width="2" /><path d="M +904.2795677576214,164.57811772357672 L 899.4697137270123,185.89085042010993 " fill="rgb(216,219,39)" stroke="rgb(216,219,39)" stroke-width="2" /><path d="M +899.4697137270123,185.89085042010993 L 881.2201972398907,225.40230690967292 " fill="rgb(216,219,39)" stroke="rgb(216,219,39)" stroke-width="2" /><path d="M +881.2201972398907,225.40230690967292 L 872.5113971624523,249.4343727780506 " fill="rgb(216,219,39)" stroke="rgb(216,219,39)" stroke-width="2" /><path d="M +872.5113971624523,249.4343727780506 L 863.4708495531231,268.71839105617255 " fill="rgb(216,219,39)" stroke="rgb(216,219,39)" stroke-width="2" /><path d="M +863.4708495531231,268.71839105617255 L 857.3197610769421,283.64209591876715 " fill="rgb(216,219,39)" stroke="rgb(216,219,39)" stroke-width="2" /><path d="M +857.3197610769421,283.64209591876715 L 854.8515820596367,291.5526044322178 " fill="rgb(216,219,39)" stroke="rgb(216,219,39)" stroke-width="2" /><path d="M +854.8515820596367,291.5526044322178 L 855.751243615523,293.344321991317 " fill="rgb(216,219,39)" stroke="rgb(216,219,39)" stroke-width="2" /><path d="M +855.751243615523,293.344321991317 L 857.0893371943384,289.7970373881981 " fill="rgb(216,219,39)" stroke="rgb(216,219,39)" stroke-width="2" /><path d="M 956.7846382502466,134.50178935658187 " fill="rgb(170,61,228)" stroke="rgb(170,61,228)" stroke-width="2" /><path d="M +956.7846382502466,134.50178935658187 L 943.8993872050196,137.54070922266692 " fill="rgb(170,61,228)" stroke="rgb(170,61,228)" stroke-width="2" /><path d="M +943.8993872050196,137.54070922266692 L 935.9599650744349,145.60748680960387 " fill="rgb(170,61,228)" stroke="rgb(170,61,228)" stroke-width="2" /><path d="M +935.9599650744349,145.60748680960387 L 963.7331760767847,135.8550701988861 " fill="rgb(170,61,228)" stroke="rgb(170,61,228)" stroke-width="2" /><path d="M +963.7331760767847,135.8550701988861 L 963.2053722534329,138.15888955723494 " fill="rgb(170,61,228)" stroke="rgb(170,61,228)" stroke-width="2" /><path d="M +963.2053722534329,138.15888955723494 L 963.4286610875279,142.72167428862303 " fill="rgb(170,61,228)" stroke="rgb(170,61,228)" stroke-width="2" /><path d="M +963.4286610875279,142.72167428862303 L 965.5323773715645,151.61488458048552 " fill="rgb(170,61,228)" stroke="rgb(170,61,228)" stroke-width="2" /><path d="M +965.5323773715645,151.61488458048552 L 970.0889441464096,162.07560941111296 " fill="rgb(170,61,228)" stroke="rgb(170,61,228)" stroke-width="2" /><path d="M +970.0889441464096,162.07560941111296 L 977.7250239346176,170.91359242331237 " fill="rgb(170,61,228)" stroke="rgb(170,61,228)" stroke-width="2" /><path d="M +977.7250239346176,170.91359242331237 L 987.9786583874375,174.622723008506 " fill="rgb(170,61,228)" stroke="rgb(170,61,228)" stroke-width="2" /><path d="M +987.9786583874375,174.622723008506 L 998.9933177921921,170.76470538508147 " fill="rgb(170,61,228)" stroke="rgb(170,61,228)" stroke-width="2" /><path d="M +998.9933177921921,170.76470538508147 L 1034.3364688847214,156.45773216616362 " fill="rgb(170,61,228)" stroke="rgb(170,61,228)" stroke-width="2" /><path d="M +1034.3364688847214,156.45773216616362 L 1041.2435290310532,142.992402757518 " fill="rgb(170,61,228)" stroke="rgb(170,61,228)" stroke-width="2" /><path d="M +1041.2435290310532,142.992402757518 L 1047.006612131372,134.39184233080596 " fill="rgb(170,61,228)" stroke="rgb(170,61,228)" stroke-width="2" /><path d="M +1047.006612131372,134.39184233080596 L 1046.5216657985002,124.91843804251403 " fill="rgb(170,61,228)" stroke="rgb(170,61,228)" stroke-width="2" /><path d="M +1046.5216657985002,124.91843804251403 L 1042.4490699637681,118.4378634346649 " fill="rgb(170,61,228)" stroke="rgb(170,61,228)" stroke-width="2" /><path d="M +1042.4490699637681,118.4378634346649 L 1034.039982901886,114.54048737417907 " fill="rgb(170,61,228)" stroke="rgb(170,61,228)" stroke-width="2" /><path d="M +1034.039982901886,114.54048737417907 L 1024.3080410826951,116.59265681635588 " fill="rgb(170,61,228)" stroke="rgb(170,61,228)" stroke-width="2" /><path d="M +1024.3080410826951,116.59265681635588 L 988.3084640372545,151.7879383219406 " fill="rgb(170,61,228)" stroke="rgb(170,61,228)" stroke-width="2" /><path d="M +988.3084640372545,151.7879383219406 L 1050.1660642493516,193.05662557017058 " fill="rgb(170,61,228)" stroke="rgb(170,61,228)" stroke-width="2" /><path d="M +1050.1660642493516,193.05662557017058 L 1054.5078704226762,182.48152896296233 " fill="rgb(170,61,228)" stroke="rgb(170,61,228)" stroke-width="2" /><path d="M +1054.5078704226762,182.48152896296233 L 1054.1674022842199,167.78706475626677 " fill="rgb(170,61,228)" stroke="rgb(170,61,228)" stroke-width="2" /><path d="M +1054.1674022842199,167.78706475626677 L 1055.3819086868316,150.39781495463103 " fill="rgb(170,61,228)" stroke="rgb(170,61,228)" stroke-width="2" /><path d="M +1055.3819086868316,150.39781495463103 L 1057.3484395164996,135.5735211027786 " fill="rgb(170,61,228)" stroke="rgb(170,61,228)" stroke-width="2" /><path d="M +1057.3484395164996,135.5735211027786 L 1057.8725801501423,134.0211449516937 " fill="rgb(170,61,228)" stroke="rgb(170,61,228)" stroke-width="2" /><path d="M +1057.8725801501423,134.0211449516937 L 1062.2151403222233,142.67372354399413 " fill="rgb(170,61,228)" stroke="rgb(170,61,228)" stroke-width="2" /><path d="M +1062.2151403222233,142.67372354399413 L 1064.88462314941,156.80686458479613 " fill="rgb(170,61,228)" stroke="rgb(170,61,228)" stroke-width="2" /><path d="M +1064.88462314941,156.80686458479613 L 1069.9806331191212,171.2657032860443 " fill="rgb(170,61,228)" stroke="rgb(170,61,228)" stroke-width="2" /><path d="M +1069.9806331191212,171.2657032860443 L 1077.3055617604405,183.2718251598999 " fill="rgb(170,61,228)" stroke="rgb(170,61,228)" stroke-width="2" /><path d="M +1077.3055617604405,183.2718251598999 L 1083.8932727370411,192.26608678232878 " fill="rgb(170,61,228)" stroke="rgb(170,61,228)" stroke-width="2" /><path d="M +1083.8932727370411,192.26608678232878 L 1091.0659514460713,198.32090839277953 " fill="rgb(170,61,228)" stroke="rgb(170,61,228)" stroke-width="2" /><path d="M +1091.0659514460713,198.32090839277953 L 1097.356471279636,199.983908678405 " fill="rgb(170,61,228)" stroke="rgb(170,61,228)" stroke-width="2" /><path d="M +1097.356471279636,199.983908678405 L 1102.122247973457,197.77765735518187 " fill="rgb(170,61,228)" stroke="rgb(170,61,228)" stroke-width="2" /><path d="M +1102.122247973457,197.77765735518187 L 1105.3563489113003,191.2437443388626 " fill="rgb(170,61,228)" stroke="rgb(170,61,228)" stroke-width="2" /><path d="M +1105.3563489113003,191.2437443388626 L 1109.8069618735462,180.04691406618804 " fill="rgb(170,61,228)" stroke="rgb(170,61,228)" stroke-width="2" /><path d="M +1109.8069618735462,180.04691406618804 L 1115.1827333960682,170.28374954592437 " fill="rgb(170,61,228)" stroke="rgb(170,61,228)" stroke-width="2" /><path d="M +1115.1827333960682,170.28374954592437 L 1119.1417215857655,164.84320625197142 " fill="rgb(170,61,228)" stroke="rgb(170,61,228)" stroke-width="2" /><path d="M +1119.1417215857655,164.84320625197142 L 1122.7226685080677,165.1760583324358 " fill="rgb(170,61,228)" stroke="rgb(170,61,228)" stroke-width="2" /><path d="M +1122.7226685080677,165.1760583324358 L 1125.45819000341,167.37491718959063 " fill="rgb(170,61,228)" stroke="rgb(170,61,228)" stroke-width="2" /><path d="M +1125.45819000341,167.37491718959063 L 1130.832500020042,178.38944784831256 " fill="rgb(170,61,228)" stroke="rgb(170,61,228)" stroke-width="2" /><path d="M +1130.832500020042,178.38944784831256 L 1136.9922794494778,192.91414372157305 " fill="rgb(170,61,228)" stroke="rgb(170,61,228)" stroke-width="2" /><path d="M 1183.0385698471218,148.2097779912874 " fill="rgb(39,35,84)" stroke="rgb(39,35,84)" stroke-width="2" /><path d="M +1183.0385698471218,148.2097779912874 L 1188.686800757423,153.53094033431262 " fill="rgb(39,35,84)" stroke="rgb(39,35,84)" stroke-width="2" /><path d="M +1188.686800757423,153.53094033431262 L 1194.51440946199,160.50566426943988 " fill="rgb(39,35,84)" stroke="rgb(39,35,84)" stroke-width="2" /><path d="M +1194.51440946199,160.50566426943988 L 1204.8895575199276,172.18708268832415 " fill="rgb(39,35,84)" stroke="rgb(39,35,84)" stroke-width="2" /><path d="M +1204.8895575199276,172.18708268832415 L 1214.4065226707608,182.79293171595782 " fill="rgb(39,35,84)" stroke="rgb(39,35,84)" stroke-width="2" /><path d="M +1214.4065226707608,182.79293171595782 L 1224.234578171745,195.9460162324831 " fill="rgb(39,35,84)" stroke="rgb(39,35,84)" stroke-width="2" /><path d="M +1224.234578171745,195.9460162324831 L 1229.2856092844158,206.28214470576495 " fill="rgb(39,35,84)" stroke="rgb(39,35,84)" stroke-width="2" /><path d="M +1229.2856092844158,206.28214470576495 L 1232.1045477781445,216.6262625856325 " fill="rgb(39,35,84)" stroke="rgb(39,35,84)" stroke-width="2" /><path d="M +1232.1045477781445,216.6262625856325 L 1234.1818937752396,226.66533223818988 " fill="rgb(39,35,84)" stroke="rgb(39,35,84)" stroke-width="2" /><path d="M 1479.306024024263,96.12683049868792 " fill="rgb(230,220,79)" stroke="rgb(230,220,79)" stroke-width="2" /><path d="M +1479.306024024263,96.12683049868792 L 1474.209581920877,115.17157069873065 " fill="rgb(230,220,79)" stroke="rgb(230,220,79)" stroke-width="2" /><path d="M +1474.209581920877,115.17157069873065 L 1468.2104918453842,139.86057750415057 " fill="rgb(230,220,79)" stroke="rgb(230,220,79)" stroke-width="2" /><path d="M +1468.2104918453842,139.86057750415057 L 1465.0654059741646,164.86010066699237 " fill="rgb(230,220,79)" stroke="rgb(230,220,79)" stroke-width="2" /><path d="M +1465.0654059741646,164.86010066699237 L 1465.3322491329163,184.51106540393084 " fill="rgb(230,220,79)" stroke="rgb(230,220,79)" stroke-width="2" /><path d="M +1465.3322491329163,184.51106540393084 L 1463.713277010247,191.958904187195 " fill="rgb(230,220,79)" stroke="rgb(230,220,79)" stroke-width="2" /><path d="M +1463.713277010247,191.958904187195 L 1463.461895128712,194.11798811983317 " fill="rgb(230,220,79)" stroke="rgb(230,220,79)" stroke-width="2" /><path d="M +1463.461895128712,194.11798811983317 L 1463.7290403898805,193.12903366517276 " fill="rgb(230,220,79)" stroke="rgb(230,220,79)" stroke-width="2" /><path d="M +1463.7290403898805,193.12903366517276 L 1459.561564391479,187.06925235223025 " fill="rgb(230,220,79)" stroke="rgb(230,220,79)" stroke-width="2" /><path d="M 1413.8046283181757,80.5080112023279 " fill="rgb(31,10,54)" stroke="rgb(31,10,54)" stroke-width="2" /><path d="M +1413.8046283181757,80.5080112023279 L 1417.6928711589426,75.49405835103244 " fill="rgb(31,10,54)" stroke="rgb(31,10,54)" stroke-width="2" /><path d="M +1417.6928711589426,75.49405835103244 L 1432.075258558616,73.97642887663096 " fill="rgb(31,10,54)" stroke="rgb(31,10,54)" stroke-width="2" /><path d="M +1432.075258558616,73.97642887663096 L 1449.300818508491,73.73661001678556 " fill="rgb(31,10,54)" stroke="rgb(31,10,54)" stroke-width="2" /><path d="M +1449.300818508491,73.73661001678556 L 1471.039681499824,75.72485228534788 " fill="rgb(31,10,54)" stroke="rgb(31,10,54)" stroke-width="2" /><path d="M +1471.039681499824,75.72485228534788 L 1490.754698580131,79.00008966680616 " fill="rgb(31,10,54)" stroke="rgb(31,10,54)" stroke-width="2" /><path d="M +1490.754698580131,79.00008966680616 L 1507.0965111907572,81.15325545426458 " fill="rgb(31,10,54)" stroke="rgb(31,10,54)" stroke-width="2" /><path d="M +1507.0965111907572,81.15325545426458 L 1520.3715861495584,82.97305037733167 " fill="rgb(31,10,54)" stroke="rgb(31,10,54)" stroke-width="2" /><path d="M +1520.3715861495584,82.97305037733167 L 1527.8729671891779,84.58722492214292 " fill="rgb(31,10,54)" stroke="rgb(31,10,54)" stroke-width="2" /><path d="M 1477.3242706712335,197.6486243819818 " fill="rgb(126,176,8)" stroke="rgb(126,176,8)" stroke-width="2" /><path d="M +1477.3242706712335,197.6486243819818 L 1473.8626132067293,198.26171876396984 " fill="rgb(126,176,8)" stroke="rgb(126,176,8)" stroke-width="2" /><path d="M +1473.8626132067293,198.26171876396984 L 1475.6389591749758,200.0235374411568 " fill="rgb(126,176,8)" stroke="rgb(126,176,8)" stroke-width="2" /><path d="M +1475.6389591749758,200.0235374411568 L 1479.5975915249437,202.50191749539226 " fill="rgb(126,176,8)" stroke="rgb(126,176,8)" stroke-width="2" /><path d="M +1479.5975915249437,202.50191749539226 L 1487.472845679149,203.7915896018967 " fill="rgb(126,176,8)" stroke="rgb(126,176,8)" stroke-width="2" /><path d="M +1487.472845679149,203.7915896018967 L 1499.2743471916765,203.50398126523942 " fill="rgb(126,176,8)" stroke="rgb(126,176,8)" stroke-width="2" /><path d="M +1499.2743471916765,203.50398126523942 L 1514.059783583507,201.01265269797295 " fill="rgb(126,176,8)" stroke="rgb(126,176,8)" stroke-width="2" /><path d="M +1514.059783583507,201.01265269797295 L 1526.7150572594255,193.97071320097893 " fill="rgb(126,176,8)" stroke="rgb(126,176,8)" stroke-width="2" /><path d="M +1526.7150572594255,193.97071320097893 L 1541.0927943047136,185.29222685378045 " fill="rgb(126,176,8)" stroke="rgb(126,176,8)" stroke-width="2" /><path d="M 1562.3168901260942,161.85798365157098 " fill="rgb(94,77,93)" stroke="rgb(94,77,93)" stroke-width="2" /><path d="M +1562.3168901260942,161.85798365157098 L 1562.385968756862,169.35750144999474 " fill="rgb(94,77,93)" stroke="rgb(94,77,93)" stroke-width="2" /><path d="M +1562.385968756862,169.35750144999474 L 1558.1883283378556,178.92137187998742 " fill="rgb(94,77,93)" stroke="rgb(94,77,93)" stroke-width="2" /><path d="M +1558.1883283378556,178.92137187998742 L 1557.1288180770352,188.43990105669945 " fill="rgb(94,77,93)" stroke="rgb(94,77,93)" stroke-width="2" /><path d="M +1557.1288180770352,188.43990105669945 L 1559.2655152501538,196.46588641684502 " fill="rgb(94,77,93)" stroke="rgb(94,77,93)" stroke-width="2" /><path d="M +1559.2655152501538,196.46588641684502 L 1566.814217013307,200.93946683686227 " fill="rgb(94,77,93)" stroke="rgb(94,77,93)" stroke-width="2" /><path d="M +1566.814217013307,200.93946683686227 L 1577.954512280412,201.15445386152714 " fill="rgb(94,77,93)" stroke="rgb(94,77,93)" stroke-width="2" /><path d="M +1577.954512280412,201.15445386152714 L 1591.3770753564313,196.87220762949437 " fill="rgb(94,77,93)" stroke="rgb(94,77,93)" stroke-width="2" /><path d="M +1591.3770753564313,196.87220762949437 L 1605.5055255116895,187.52683769445866 " fill="rgb(94,77,93)" stroke="rgb(94,77,93)" stroke-width="2" /><path d="M +1605.5055255116895,187.52683769445866 L 1616.4908189000562,177.5253153918311 " fill="rgb(94,77,93)" stroke="rgb(94,77,93)" stroke-width="2" /><path d="M +1616.4908189000562,177.5253153918311 L 1621.7059404077008,164.60894237738103 " fill="rgb(94,77,93)" stroke="rgb(94,77,93)" stroke-width="2" /><path d="M +1621.7059404077008,164.60894237738103 L 1623.152742725797,152.6516343234107 " fill="rgb(94,77,93)" stroke="rgb(94,77,93)" stroke-width="2" /><path d="M +1623.152742725797,152.6516343234107 L 1616.8350926460698,140.65590273123235 " fill="rgb(94,77,93)" stroke="rgb(94,77,93)" stroke-width="2" /><path d="M +1616.8350926460698,140.65590273123235 L 1605.8624116005376,134.85078762751073 " fill="rgb(94,77,93)" stroke="rgb(94,77,93)" stroke-width="2" /><path d="M +1605.8624116005376,134.85078762751073 L 1587.938092094846,134.907035427168 " fill="rgb(94,77,93)" stroke="rgb(94,77,93)" stroke-width="2" /><path d="M +1587.938092094846,134.907035427168 L 1569.246355635114,141.4034314919263 " fill="rgb(94,77,93)" stroke="rgb(94,77,93)" stroke-width="2" /><path d="M +1569.246355635114,141.4034314919263 L 1554.4114950718358,150.61429639346898 " fill="rgb(94,77,93)" stroke="rgb(94,77,93)" stroke-width="2" /><path d="M 1605.5948141636327,162.42256899364293 " fill="rgb(121,193,171)" stroke="rgb(121,193,171)" stroke-width="2" /><path d="M +1605.5948141636327,162.42256899364293 L 1609.61589042563,174.1884793806821 " fill="rgb(121,193,171)" stroke="rgb(121,193,171)" stroke-width="2" /><path d="M +1609.61589042563,174.1884793806821 L 1613.536796909757,185.74257750995457 " fill="rgb(121,193,171)" stroke="rgb(121,193,171)" stroke-width="2" /><path d="M +1613.536796909757,185.74257750995457 L 1622.5988552393392,198.51050634868443 " fill="rgb(121,193,171)" stroke="rgb(121,193,171)" stroke-width="2" /><path d="M +1622.5988552393392,198.51050634868443 L 1638.2535288156942,208.13232203014195 " fill="rgb(121,193,171)" stroke="rgb(121,193,171)" stroke-width="2" /><path d="M +1638.2535288156942,208.13232203014195 L 1650.0675902189687,207.98488756641746 " fill="rgb(121,193,171)" stroke="rgb(121,193,171)" stroke-width="2" /><path d="M +1650.0675902189687,207.98488756641746 L 1660.8244762243703,202.86258598789573 " fill="rgb(121,193,171)" stroke="rgb(121,193,171)" stroke-width="2" /><path d="M +1660.8244762243703,202.86258598789573 L 1670.903140050359,194.00588473305106 " fill="rgb(121,193,171)" stroke="rgb(121,193,171)" stroke-width="2" /><path d="M +1670.903140050359,194.00588473305106 L 1678.7383875669912,183.01255544647574 " fill="rgb(121,193,171)" stroke="rgb(121,193,171)" stroke-width="2" /><path d="M +1678.7383875669912,183.01255544647574 L 1684.4582465710118,172.03614791855216 " fill="rgb(121,193,171)" stroke="rgb(121,193,171)" stroke-width="2" /><path d="M +1684.4582465710118,172.03614791855216 L 1689.2353207292035,164.14521595463157 " fill="rgb(121,193,171)" stroke="rgb(121,193,171)" stroke-width="2" /><path d="M +1689.2353207292035,164.14521595463157 L 1688.7691476242617,159.20732399448752 " fill="rgb(121,193,171)" stroke="rgb(121,193,171)" stroke-width="2" /><path d="M +1688.7691476242617,159.20732399448752 L 1690.062530268915,158.01481438800693 " fill="rgb(121,193,171)" stroke="rgb(121,193,171)" stroke-width="2" /><path d="M +1690.062530268915,158.01481438800693 L 1691.3628848688677,157.9429430887103 " fill="rgb(121,193,171)" stroke="rgb(121,193,171)" stroke-width="2" /><path d="M +1691.3628848688677,157.9429430887103 L 1693.0336894886568,158.6309876665473 " fill="rgb(121,193,171)" stroke="rgb(121,193,171)" stroke-width="2" /><path d="M +1693.0336894886568,158.6309876665473 L 1701.2331643002108,160.68175416439772 " fill="rgb(121,193,171)" stroke="rgb(121,193,171)" stroke-width="2" /><path d="M +1701.2331643002108,160.68175416439772 L 1714.3722131149843,167.17861097306013 " fill="rgb(121,193,171)" stroke="rgb(121,193,171)" stroke-width="2" /><path d="M 1754.0631105797365,152.57403295487165 " fill="rgb(235,95,194)" stroke="rgb(235,95,194)" stroke-width="2" /><path d="M +1754.0631105797365,152.57403295487165 L 1748.4957333700731,155.4999403283 " fill="rgb(235,95,194)" stroke="rgb(235,95,194)" stroke-width="2" /><path d="M +1748.4957333700731,155.4999403283 L 1740.7618900435045,158.6310676857829 " fill="rgb(235,95,194)" stroke="rgb(235,95,194)" stroke-width="2" /><path d="M +1740.7618900435045,158.6310676857829 L 1736.2442203657702,166.13448482006788 " fill="rgb(235,95,194)" stroke="rgb(235,95,194)" stroke-width="2" /><path d="M +1736.2442203657702,166.13448482006788 L 1734.204129804857,175.03189962357283 " fill="rgb(235,95,194)" stroke="rgb(235,95,194)" stroke-width="2" /><path d="M +1734.204129804857,175.03189962357283 L 1734.5741831185296,187.57680337876081 " fill="rgb(235,95,194)" stroke="rgb(235,95,194)" stroke-width="2" /><path d="M +1734.5741831185296,187.57680337876081 L 1735.8828521193936,195.45814376324415 " fill="rgb(235,95,194)" stroke="rgb(235,95,194)" stroke-width="2" /><path d="M +1735.8828521193936,195.45814376324415 L 1744.8393834056333,200.4830251261592 " fill="rgb(235,95,194)" stroke="rgb(235,95,194)" stroke-width="2" /><path d="M +1744.8393834056333,200.4830251261592 L 1755.7981205405667,197.0428554341197 " fill="rgb(235,95,194)" stroke="rgb(235,95,194)" stroke-width="2" /><path d="M +1755.7981205405667,197.0428554341197 L 1767.0861685695127,186.01544182747602 " fill="rgb(235,95,194)" stroke="rgb(235,95,194)" stroke-width="2" /><path d="M +1767.0861685695127,186.01544182747602 L 1776.6593724908307,170.74309270828962 " fill="rgb(235,95,194)" stroke="rgb(235,95,194)" stroke-width="2" /><path d="M +1776.6593724908307,170.74309270828962 L 1786.487181824632,157.1928934380412 " fill="rgb(235,95,194)" stroke="rgb(235,95,194)" stroke-width="2" /><path d="M +1786.487181824632,157.1928934380412 L 1790.4222077550367,143.728038482368 " fill="rgb(235,95,194)" stroke="rgb(235,95,194)" stroke-width="2" /><path d="M +1790.4222077550367,143.728038482368 L 1790.7772172661498,136.36606436222792 " fill="rgb(235,95,194)" stroke="rgb(235,95,194)" stroke-width="2" /><path d="M +1790.7772172661498,136.36606436222792 L 1788.006494161673,133.58024787157774 " fill="rgb(235,95,194)" stroke="rgb(235,95,194)" stroke-width="2" /><path d="M +1788.006494161673,133.58024787157774 L 1782.4149800511077,134.6806274726987 " fill="rgb(235,95,194)" stroke="rgb(235,95,194)" stroke-width="2" /><path d="M +1782.4149800511077,134.6806274726987 L 1774.0313507290557,139.51605070382357 " fill="rgb(235,95,194)" stroke="rgb(235,95,194)" stroke-width="2" /><path d="M 1969.898584005423,32.78857458382845 " fill="rgb(146,154,171)" stroke="rgb(146,154,171)" stroke-width="2" /><path d="M +1969.898584005423,32.78857458382845 L 1965.5695743532851,25.58978248387575 " fill="rgb(146,154,171)" stroke="rgb(146,154,171)" stroke-width="2" /><path d="M +1965.5695743532851,25.58978248387575 L 1964.765629065223,25.0 " fill="rgb(146,154,171)" stroke="rgb(146,154,171)" stroke-width="2" /><path d="M +1964.765629065223,25.0 L 1966.9885191740468,30.521886944770813 " fill="rgb(146,154,171)" stroke="rgb(146,154,171)" stroke-width="2" /><path d="M +1966.9885191740468,30.521886944770813 L 1967.7337832422927,43.95644009113312 " fill="rgb(146,154,171)" stroke="rgb(146,154,171)" stroke-width="2" /><path d="M +1967.7337832422927,43.95644009113312 L 1969.1224310966209,65.70578634738922 " fill="rgb(146,154,171)" stroke="rgb(146,154,171)" stroke-width="2" /><path d="M +1969.1224310966209,65.70578634738922 L 1968.9182007173076,91.01230204105377 " fill="rgb(146,154,171)" stroke="rgb(146,154,171)" stroke-width="2" /><path d="M +1968.9182007173076,91.01230204105377 L 1971.7459198692814,115.28578817844391 " fill="rgb(146,154,171)" stroke="rgb(146,154,171)" stroke-width="2" /><path d="M +1971.7459198692814,115.28578817844391 L 1971.7731856461614,133.12839329242706 " fill="rgb(146,154,171)" stroke="rgb(146,154,171)" stroke-width="2" /><path d="M +1971.7731856461614,133.12839329242706 L 1971.3471864443272,144.4515460729599 " fill="rgb(146,154,171)" stroke="rgb(146,154,171)" stroke-width="2" /><path d="M +1971.3471864443272,144.4515460729599 L 1971.9107072334737,150.46705722808838 " fill="rgb(146,154,171)" stroke="rgb(146,154,171)" stroke-width="2" /><path d="M +1971.9107072334737,150.46705722808838 L 1973.026143712923,152.99505442380905 " fill="rgb(146,154,171)" stroke="rgb(146,154,171)" stroke-width="2" /><path d="M +1973.026143712923,152.99505442380905 L 1973.960389373824,153.91315676271915 " fill="rgb(146,154,171)" stroke="rgb(146,154,171)" stroke-width="2" /><path d="M 1999.2133300285786,61.36823870241642 " fill="rgb(120,114,75)" stroke="rgb(120,114,75)" stroke-width="2" /><path d="M +1999.2133300285786,61.36823870241642 L 2010.6021110992879,60.6935028731823 " fill="rgb(120,114,75)" stroke="rgb(120,114,75)" stroke-width="2" /><path d="M +2010.6021110992879,60.6935028731823 L 2022.0203368645161,77.0960359275341 " fill="rgb(120,114,75)" stroke="rgb(120,114,75)" stroke-width="2" /><path d="M +2022.0203368645161,77.0960359275341 L 2025.5226494651288,99.24342200160027 " fill="rgb(120,114,75)" stroke="rgb(120,114,75)" stroke-width="2" /><path d="M +2025.5226494651288,99.24342200160027 L 2028.9658935647458,121.0375528037548 " fill="rgb(120,114,75)" stroke="rgb(120,114,75)" stroke-width="2" /><path d="M +2028.9658935647458,121.0375528037548 L 2026.534976689145,137.53004238009453 " fill="rgb(120,114,75)" stroke="rgb(120,114,75)" stroke-width="2" /><path d="M +2026.534976689145,137.53004238009453 L 2021.6017523687333,146.63357004523277 " fill="rgb(120,114,75)" stroke="rgb(120,114,75)" stroke-width="2" /><path d="M +2021.6017523687333,146.63357004523277 L 2017.1778536122292,151.5897037088871 " fill="rgb(120,114,75)" stroke="rgb(120,114,75)" stroke-width="2" /><path d="M 2006.7163181584328,125.58833613991737 " fill="rgb(234,33,43)" stroke="rgb(234,33,43)" stroke-width="2" /><path d="M +2006.7163181584328,125.58833613991737 L 2009.7077414672822,120.62357649207115 " fill="rgb(234,33,43)" stroke="rgb(234,33,43)" stroke-width="2" /><path d="M +2009.7077414672822,120.62357649207115 L 2015.3975734394044,115.6637091934681 " fill="rgb(234,33,43)" stroke="rgb(234,33,43)" stroke-width="2" /><path d="M +2015.3975734394044,115.6637091934681 L 2026.5556630771607,110.3370775282383 " fill="rgb(234,33,43)" stroke="rgb(234,33,43)" stroke-width="2" /><path d="M +2026.5556630771607,110.3370775282383 L 2044.0349337738007,109.66250963509083 " fill="rgb(234,33,43)" stroke="rgb(234,33,43)" stroke-width="2" /><path d="M +2044.0349337738007,109.66250963509083 L 2061.3575586955994,108.37573401629925 " fill="rgb(234,33,43)" stroke="rgb(234,33,43)" stroke-width="2" /><path d="M +2061.3575586955994,108.37573401629925 L 2077.681202618405,109.26184363663197 " fill="rgb(234,33,43)" stroke="rgb(234,33,43)" stroke-width="2" /><path d="M +2077.681202618405,109.26184363663197 L 2090.3072521369904,110.76786048710346 " fill="rgb(234,33,43)" stroke="rgb(234,33,43)" stroke-width="2" /><path d="M +2090.3072521369904,110.76786048710346 L 2094.3182456772774,111.6791957616806 " fill="rgb(234,33,43)" stroke="rgb(234,33,43)" stroke-width="2" /><path d="M +2094.3182456772774,111.6791957616806 L 2098.5248995106667,114.50618088245392 " fill="rgb(234,33,43)" stroke="rgb(234,33,43)" stroke-width="2" /><path d="M +2098.5248995106667,114.50618088245392 L 2100.1116635184735,119.12102818489075 " fill="rgb(234,33,43)" stroke="rgb(234,33,43)" stroke-width="2" /></svg>