<?xml version="1.0" encoding="utf-8" ?>
<svg baseProfile="full" height="264.64904044754803" version="1.1" width="1130.7421107124537" xmlns="http://www.w3.org/2000/svg" xmlns:ev="http://www.w3.org/2001/xml-events" xmlns:xlink="http://www.w3.org/1999/xlink"><defs /><rect fill="white" height="264.64904044754803" width="1130.7421107124537" x="0" y="0" /><path d="M 25.0,154.11136624403298 " fill="rgb(34,32,191)" stroke="rgb(34,32,191)" stroke-width="2" /><path d="M 63.09953451156616,144.68308147974312 " fill="rgb(50,65,134)" stroke="rgb(50,65,134)" stroke-width="2" /><path d="M +63.09953451156616,144.68308147974312 L 61.52777686715126,144.94710999540985 " fill="rgb(50,65,134)" stroke="rgb(50,65,134)" stroke-width="2" /><path d="M +61.52777686715126,144.94710999540985 L 58.61997589468956,151.73595267347991 " fill="rgb(50,65,134)" stroke="rgb(50,65,134)" stroke-width="2" /><path d="M +58.61997589468956,151.73595267347991 L 52.157118171453476,164.23257547430694 " fill="rgb(50,65,134)" stroke="rgb(50,65,134)" stroke-width="2" /><path d="M +52.157118171453476,164.23257547430694 L 44.65128406882286,180.0731988530606 " fill="rgb(50,65,134)" stroke="rgb(50,65,134)" stroke-width="2" /><path d="M +44.65128406882286,180.0731988530606 L 39.554441422224045,196.04191976599395 " fill="rgb(50,65,134)" stroke="rgb(50,65,134)" stroke-width="2" /><path d="M +39.554441422224045,196.04191976599395 L 38.32033298909664,210.16356545500457 " fill="rgb(50,65,134)" stroke="rgb(50,65,134)" stroke-width="2" /><path d="M +38.32033298909664,210.16356545500457 L 41.37600235641003,218.4582086186856 " fill="rgb(50,65,134)" stroke="rgb(50,65,134)" stroke-width="2" /><path d="M +41.37600235641003,218.4582086186856 L 48.85470740497112,221.82031619362533 " fill="rgb(50,65,134)" stroke="rgb(50,65,134)" stroke-width="2" /><path d="M +48.85470740497112,221.82031619362533 L 59.77757088840008,216.59653293900192 " fill="rgb(50,65,134)" stroke="rgb(50,65,134)" stroke-width="2" /><path d="M +59.77757088840008,216.59653293900192 L 73.19786421954632,205.32920229248703 " fill="rgb(50,65,134)" stroke="rgb(50,65,134)" stroke-width="2" /><path d="M +73.19786421954632,205.32920229248703 L 86.52170412242413,192.70263659767807 " fill="rgb(50,65,134)" stroke="rgb(50,65,134)" stroke-width="2" /><path d="M +86.52170412242413,192.70263659767807 L 94.65884856879711,176.51739346794784 " fill="rgb(50,65,134)" stroke="rgb(50,65,134)" stroke-width="2" /><path d="M +94.65884856879711,176.51739346794784 L 103.28257493674755,166.58961462788284 " fill="rgb(50,65,134)" stroke="rgb(50,65,134)" stroke-width="2" /><path d="M +103.28257493674755,166.58961462788284 L 108.28944198787212,159.2453687172383 " fill="rgb(50,65,134)" stroke="rgb(50,65,134)" stroke-width="2" /><path d="M +108.28944198787212,159.2453687172383 L 108.63819923251867,156.51189672760665 " fill="rgb(50,65,134)" stroke="rgb(50,65,134)" stroke-width="2" /><path d="M +108.63819923251867,156.51189672760665 L 106.87386032193899,157.01356972567737 " fill="rgb(50,65,134)" stroke="rgb(50,65,134)" stroke-width="2" /><path d="M +106.87386032193899,157.01356972567737 L 101.78617056459188,161.76869983784854 " fill="rgb(50,65,134)" stroke="rgb(50,65,134)" stroke-width="2" /><path d="M +101.78617056459188,161.76869983784854 L 95.36152120679617,176.59222717396915 " fill="rgb(50,65,134)" stroke="rgb(50,65,134)" stroke-width="2" /><path d="M +95.36152120679617,176.59222717396915 L 85.67140337079763,193.25070257298648 " fill="rgb(50,65,134)" stroke="rgb(50,65,134)" stroke-width="2" /><path d="M +85.67140337079763,193.25070257298648 L 81.6475087031722,214.30677528493106 " fill="rgb(50,65,134)" stroke="rgb(50,65,134)" stroke-width="2" /><path d="M +81.6475087031722,214.30677528493106 L 78.25022514909506,225.58615203015506 " fill="rgb(50,65,134)" stroke="rgb(50,65,134)" stroke-width="2" /><path d="M +78.25022514909506,225.58615203015506 L 81.42780866473913,233.36731071583927 " fill="rgb(50,65,134)" stroke="rgb(50,65,134)" stroke-width="2" /><path d="M +81.42780866473913,233.36731071583927 L 88.18269696086645,234.17042459361255 " fill="rgb(50,65,134)" stroke="rgb(50,65,134)" stroke-width="2" /><path d="M +88.18269696086645,234.17042459361255 L 97.91164066642523,229.42729408852756 " fill="rgb(50,65,134)" stroke="rgb(50,65,134)" stroke-width="2" /><path d="M 167.9804864153266,176.16607601754367 " fill="rgb(238,62,157)" stroke="rgb(238,62,157)" stroke-width="2" /><path d="M +167.9804864153266,176.16607601754367 L 159.03008069843054,179.7726961504668 " fill="rgb(238,62,157)" stroke="rgb(238,62,157)" stroke-width="2" /><path d="M +159.03008069843054,179.7726961504668 L 149.8354908451438,189.70745946280658 " fill="rgb(238,62,157)" stroke="rgb(238,62,157)" stroke-width="2" /><path d="M +149.8354908451438,189.70745946280658 L 140.79427685588598,200.53690220229328 " fill="rgb(238,62,157)" stroke="rgb(238,62,157)" stroke-width="2" /><path d="M +140.79427685588598,200.53690220229328 L 133.7529483065009,211.4449169766158 " fill="rgb(238,62,157)" stroke="rgb(238,62,157)" stroke-width="2" /><path d="M +133.7529483065009,211.4449169766158 L 128.87801703065634,220.13382102362812 " fill="rgb(238,62,157)" stroke="rgb(238,62,157)" stroke-width="2" /><path d="M +128.87801703065634,220.13382102362812 L 127.84201305359602,223.89472807757556 " fill="rgb(238,62,157)" stroke="rgb(238,62,157)" stroke-width="2" /><path d="M +127.84201305359602,223.89472807757556 L 129.59927927702665,224.01663613505661 " fill="rgb(238,62,157)" stroke="rgb(238,62,157)" stroke-width="2" /><path d="M +129.59927927702665,224.01663613505661 L 134.12492703646421,220.66017222590744 " fill="rgb(238,62,157)" stroke="rgb(238,62,157)" stroke-width="2" /><path d="M +134.12492703646421,220.66017222590744 L 142.06336449831724,213.11267805285752 " fill="rgb(238,62,157)" stroke="rgb(238,62,157)" stroke-width="2" /><path d="M +142.06336449831724,213.11267805285752 L 151.57176684588194,203.9560164231807 " fill="rgb(238,62,157)" stroke="rgb(238,62,157)" stroke-width="2" /><path d="M +151.57176684588194,203.9560164231807 L 162.06460904330015,194.2408807296306 " fill="rgb(238,62,157)" stroke="rgb(238,62,157)" stroke-width="2" /><path d="M +162.06460904330015,194.2408807296306 L 172.9096956178546,187.06544113345444 " fill="rgb(238,62,157)" stroke="rgb(238,62,157)" stroke-width="2" /><path d="M +172.9096956178546,187.06544113345444 L 179.61311232298613,181.98427152819932 " fill="rgb(238,62,157)" stroke="rgb(238,62,157)" stroke-width="2" /><path d="M +179.61311232298613,181.98427152819932 L 183.937178067863,180.7960468251258 " fill="rgb(238,62,157)" stroke="rgb(238,62,157)" stroke-width="2" /><path d="M +183.937178067863,180.7960468251258 L 185.651889257133,182.92293441481888 " fill="rgb(238,62,157)" stroke="rgb(238,62,157)" stroke-width="2" /><path d="M +185.651889257133,182.92293441481888 L 183.8635477051139,191.8055320996791 " fill="rgb(238,62,157)" stroke="rgb(238,62,157)" stroke-width="2" /><path d="M +183.8635477051139,191.8055320996791 L 178.5409602150321,204.47955739684403 " fill="rgb(238,62,157)" stroke="rgb(238,62,157)" stroke-width="2" /><path d="M +178.5409602150321,204.47955739684403 L 175.65390791743994,214.0461189765483 " fill="rgb(238,62,157)" stroke="rgb(238,62,157)" stroke-width="2" /><path d="M +175.65390791743994,214.0461189765483 L 173.51919200271368,217.63557952828705 " fill="rgb(238,62,157)" stroke="rgb(238,62,157)" stroke-width="2" /><path d="M +173.51919200271368,217.63557952828705 L 174.56785794347525,217.9982024151832 " fill="rgb(238,62,157)" stroke="rgb(238,62,157)" stroke-width="2" /><path d="M +174.56785794347525,217.9982024151832 L 178.84323921054602,217.10051839239895 " fill="rgb(238,62,157)" stroke="rgb(238,62,157)" stroke-width="2" /><path d="M +178.84323921054602,217.10051839239895 L 186.2500986084342,212.65390609391034 " fill="rgb(238,62,157)" stroke="rgb(238,62,157)" stroke-width="2" /><path d="M +186.2500986084342,212.65390609391034 L 198.0397519096732,203.21910833008587 " fill="rgb(238,62,157)" stroke="rgb(238,62,157)" stroke-width="2" /><path d="M +198.0397519096732,203.21910833008587 L 211.94828119128942,192.02231382019818 " fill="rgb(238,62,157)" stroke="rgb(238,62,157)" stroke-width="2" /><path d="M +211.94828119128942,192.02231382019818 L 229.6916839107871,183.17172263748944 " fill="rgb(238,62,157)" stroke="rgb(238,62,157)" stroke-width="2" /><path d="M +229.6916839107871,183.17172263748944 L 241.65544357150793,176.60778974182904 " fill="rgb(238,62,157)" stroke="rgb(238,62,157)" stroke-width="2" /><path d="M +241.65544357150793,176.60778974182904 L 249.74777426570654,176.107043819502 " fill="rgb(238,62,157)" stroke="rgb(238,62,157)" stroke-width="2" /><path d="M +249.74777426570654,176.107043819502 L 252.42222364991903,177.9209974873811 " fill="rgb(238,62,157)" stroke="rgb(238,62,157)" stroke-width="2" /><path d="M +252.42222364991903,177.9209974873811 L 253.33527896553278,186.05295454151928 " fill="rgb(238,62,157)" stroke="rgb(238,62,157)" stroke-width="2" /><path d="M +253.33527896553278,186.05295454151928 L 248.2480565086007,195.93582366593182 " fill="rgb(238,62,157)" stroke="rgb(238,62,157)" stroke-width="2" /><path d="M +248.2480565086007,195.93582366593182 L 244.81646869331598,210.47509764321148 " fill="rgb(238,62,157)" stroke="rgb(238,62,157)" stroke-width="2" /><path d="M +244.81646869331598,210.47509764321148 L 239.54007003456354,223.72579311020672 " fill="rgb(238,62,157)" stroke="rgb(238,62,157)" stroke-width="2" /><path d="M +239.54007003456354,223.72579311020672 L 240.65359827131033,233.93407677300274 " fill="rgb(238,62,157)" stroke="rgb(238,62,157)" stroke-width="2" /><path d="M +240.65359827131033,233.93407677300274 L 243.94069906324148,239.64904044754803 " fill="rgb(238,62,157)" stroke="rgb(238,62,157)" stroke-width="2" /><path d="M +243.94069906324148,239.64904044754803 L 250.16843017190695,238.2923022378236 " fill="rgb(238,62,157)" stroke="rgb(238,62,157)" stroke-width="2" /><path d="M +250.16843017190695,238.2923022378236 L 264.46560200303793,234.57683806307614 " fill="rgb(238,62,157)" stroke="rgb(238,62,157)" stroke-width="2" /><path d="M +264.46560200303793,234.57683806307614 L 278.8291757926345,225.16089980490506 " fill="rgb(238,62,157)" stroke="rgb(238,62,157)" stroke-width="2" /><path d="M +278.8291757926345,225.16089980490506 L 293.18024452775717,214.26485364325345 " fill="rgb(238,62,157)" stroke="rgb(238,62,157)" stroke-width="2" /><path d="M +293.18024452775717,214.26485364325345 L 307.1668141707778,203.81240193732083 " fill="rgb(238,62,157)" stroke="rgb(238,62,157)" stroke-width="2" /><path d="M +307.1668141707778,203.81240193732083 L 315.07704373449087,194.45210819132626 " fill="rgb(238,62,157)" stroke="rgb(238,62,157)" stroke-width="2" /><path d="M +315.07704373449087,194.45210819132626 L 321.04456897825,188.59645371325314 " fill="rgb(238,62,157)" stroke="rgb(238,62,157)" stroke-width="2" /><path d="M +321.04456897825,188.59645371325314 L 322.2948355600238,184.9966770876199 " fill="rgb(238,62,157)" stroke="rgb(238,62,157)" stroke-width="2" /><path d="M +322.2948355600238,184.9966770876199 L 321.18672866374254,183.76606178469956 " fill="rgb(238,62,157)" stroke="rgb(238,62,157)" stroke-width="2" /><path d="M +321.18672866374254,183.76606178469956 L 312.9594149067998,181.4676142949611 " fill="rgb(238,62,157)" stroke="rgb(238,62,157)" stroke-width="2" /><path d="M +312.9594149067998,181.4676142949611 L 306.8388618901372,183.82765722461045 " fill="rgb(238,62,157)" stroke="rgb(238,62,157)" stroke-width="2" /><path d="M +306.8388618901372,183.82765722461045 L 297.2718449309468,189.74610519595444 " fill="rgb(238,62,157)" stroke="rgb(238,62,157)" stroke-width="2" /><path d="M +297.2718449309468,189.74610519595444 L 289.9170919135213,199.5778424758464 " fill="rgb(238,62,157)" stroke="rgb(238,62,157)" stroke-width="2" /><path d="M +289.9170919135213,199.5778424758464 L 282.84669179469347,208.8413490075618 " fill="rgb(238,62,157)" stroke="rgb(238,62,157)" stroke-width="2" /><path d="M +282.84669179469347,208.8413490075618 L 279.682206697762,215.303304316476 " fill="rgb(238,62,157)" stroke="rgb(238,62,157)" stroke-width="2" /><path d="M +279.682206697762,215.303304316476 L 281.2440739944577,219.66787290759385 " fill="rgb(238,62,157)" stroke="rgb(238,62,157)" stroke-width="2" /><path d="M +281.2440739944577,219.66787290759385 L 288.19432724267244,223.73816383071244 " fill="rgb(238,62,157)" stroke="rgb(238,62,157)" stroke-width="2" /><path d="M +288.19432724267244,223.73816383071244 L 300.473384745419,225.73379618115723 " fill="rgb(238,62,157)" stroke="rgb(238,62,157)" stroke-width="2" /><path d="M +300.473384745419,225.73379618115723 L 315.49332845956087,225.20710253156722 " fill="rgb(238,62,157)" stroke="rgb(238,62,157)" stroke-width="2" /><path d="M +315.49332845956087,225.20710253156722 L 330.1195775344968,220.53185367025435 " fill="rgb(238,62,157)" stroke="rgb(238,62,157)" stroke-width="2" /><path d="M +330.1195775344968,220.53185367025435 L 346.61443818360567,213.09361540712416 " fill="rgb(238,62,157)" stroke="rgb(238,62,157)" stroke-width="2" /><path d="M 448.00763238221407,99.29489218629897 " fill="rgb(33,89,144)" stroke="rgb(33,89,144)" stroke-width="2" /><path d="M +448.00763238221407,99.29489218629897 L 447.8556951601058,100.6312268320471 " fill="rgb(33,89,144)" stroke="rgb(33,89,144)" stroke-width="2" /><path d="M +447.8556951601058,100.6312268320471 L 448.02960018627346,100.83040651865304 " fill="rgb(33,89,144)" stroke="rgb(33,89,144)" stroke-width="2" /><path d="M +448.02960018627346,100.83040651865304 L 445.9375737141818,103.19409486837685 " fill="rgb(33,89,144)" stroke="rgb(33,89,144)" stroke-width="2" /><path d="M +445.9375737141818,103.19409486837685 L 446.2239075731486,114.91541740484536 " fill="rgb(33,89,144)" stroke="rgb(33,89,144)" stroke-width="2" /><path d="M +446.2239075731486,114.91541740484536 L 441.620383663103,128.14815399236977 " fill="rgb(33,89,144)" stroke="rgb(33,89,144)" stroke-width="2" /><path d="M +441.620383663103,128.14815399236977 L 436.4033935498446,144.9048971850425 " fill="rgb(33,89,144)" stroke="rgb(33,89,144)" stroke-width="2" /><path d="M +436.4033935498446,144.9048971850425 L 428.65639369003475,161.45076868124306 " fill="rgb(33,89,144)" stroke="rgb(33,89,144)" stroke-width="2" /><path d="M +428.65639369003475,161.45076868124306 L 423.3388004731387,176.09390017576516 " fill="rgb(33,89,144)" stroke="rgb(33,89,144)" stroke-width="2" /><path d="M +423.3388004731387,176.09390017576516 L 418.92911831848323,186.44882676191628 " fill="rgb(33,89,144)" stroke="rgb(33,89,144)" stroke-width="2" /><path d="M +418.92911831848323,186.44882676191628 L 417.59925360791385,194.53763243742287 " fill="rgb(33,89,144)" stroke="rgb(33,89,144)" stroke-width="2" /><path d="M +417.59925360791385,194.53763243742287 L 417.21166647039354,200.63050863333046 " fill="rgb(33,89,144)" stroke="rgb(33,89,144)" stroke-width="2" /><path d="M +417.21166647039354,200.63050863333046 L 415.6892242189497,204.87067279405892 " fill="rgb(33,89,144)" stroke="rgb(33,89,144)" stroke-width="2" /><path d="M 393.3712854143232,200.73723343200982 " fill="rgb(164,177,198)" stroke="rgb(164,177,198)" stroke-width="2" /><path d="M +393.3712854143232,200.73723343200982 L 395.8903594966978,197.22127345390618 " fill="rgb(164,177,198)" stroke="rgb(164,177,198)" stroke-width="2" /><path d="M +395.8903594966978,197.22127345390618 L 402.38273344002664,191.60115090198815 " fill="rgb(164,177,198)" stroke="rgb(164,177,198)" stroke-width="2" /><path d="M +402.38273344002664,191.60115090198815 L 415.4192193504423,187.81021592207253 " fill="rgb(164,177,198)" stroke="rgb(164,177,198)" stroke-width="2" /><path d="M +415.4192193504423,187.81021592207253 L 430.9795149322599,183.54348686523736 " fill="rgb(164,177,198)" stroke="rgb(164,177,198)" stroke-width="2" /><path d="M +430.9795149322599,183.54348686523736 L 445.76129636727273,178.04351774044335 " fill="rgb(164,177,198)" stroke="rgb(164,177,198)" stroke-width="2" /><path d="M +445.76129636727273,178.04351774044335 L 461.6287191864103,173.27238795347512 " fill="rgb(164,177,198)" stroke="rgb(164,177,198)" stroke-width="2" /><path d="M +461.6287191864103,173.27238795347512 L 474.23921070061624,170.17610338516533 " fill="rgb(164,177,198)" stroke="rgb(164,177,198)" stroke-width="2" /><path d="M +474.23921070061624,170.17610338516533 L 481.0400231834501,167.22755727358162 " fill="rgb(164,177,198)" stroke="rgb(164,177,198)" stroke-width="2" /><path d="M 481.25656752847135,177.69912061281502 " fill="rgb(227,201,140)" stroke="rgb(227,201,140)" stroke-width="2" /><path d="M +481.25656752847135,177.69912061281502 L 479.4218666758388,183.45318612642586 " fill="rgb(227,201,140)" stroke="rgb(227,201,140)" stroke-width="2" /><path d="M +479.4218666758388,183.45318612642586 L 478.1355681922287,189.42512270994484 " fill="rgb(227,201,140)" stroke="rgb(227,201,140)" stroke-width="2" /><path d="M +478.1355681922287,189.42512270994484 L 476.16150497458875,198.38794049806893 " fill="rgb(227,201,140)" stroke="rgb(227,201,140)" stroke-width="2" /><path d="M +476.16150497458875,198.38794049806893 L 475.96646760590374,208.18600055761635 " fill="rgb(227,201,140)" stroke="rgb(227,201,140)" stroke-width="2" /><path d="M 508.1194565165788,95.36004421301186 " fill="rgb(78,181,181)" stroke="rgb(78,181,181)" stroke-width="2" /><path d="M +508.1194565165788,95.36004421301186 L 506.96937282569706,93.15750715322793 " fill="rgb(78,181,181)" stroke="rgb(78,181,181)" stroke-width="2" /><path d="M +506.96937282569706,93.15750715322793 L 508.68601341731846,94.02541940100491 " fill="rgb(78,181,181)" stroke="rgb(78,181,181)" stroke-width="2" /><path d="M +508.68601341731846,94.02541940100491 L 506.89972539432347,94.2185255791992 " fill="rgb(78,181,181)" stroke="rgb(78,181,181)" stroke-width="2" /><path d="M +506.89972539432347,94.2185255791992 L 507.1784531790763,97.33873574994504 " fill="rgb(78,181,181)" stroke="rgb(78,181,181)" stroke-width="2" /><path d="M 537.2388374526054,164.38710897229612 " fill="rgb(181,10,193)" stroke="rgb(181,10,193)" stroke-width="2" /><path d="M +537.2388374526054,164.38710897229612 L 539.8714148718864,163.49891326390207 " fill="rgb(181,10,193)" stroke="rgb(181,10,193)" stroke-width="2" /><path d="M +539.8714148718864,163.49891326390207 L 540.9666804689914,160.41176191531122 " fill="rgb(181,10,193)" stroke="rgb(181,10,193)" stroke-width="2" /><path d="M +540.9666804689914,160.41176191531122 L 543.414645018056,158.82122240029275 " fill="rgb(181,10,193)" stroke="rgb(181,10,193)" stroke-width="2" /><path d="M +543.414645018056,158.82122240029275 L 544.607046963647,158.259537210688 " fill="rgb(181,10,193)" stroke="rgb(181,10,193)" stroke-width="2" /><path d="M +544.607046963647,158.259537210688 L 544.0696925763041,158.39688829146326 " fill="rgb(181,10,193)" stroke="rgb(181,10,193)" stroke-width="2" /><path d="M +544.0696925763041,158.39688829146326 L 542.8112987522036,159.40485439263284 " fill="rgb(181,10,193)" stroke="rgb(181,10,193)" stroke-width="2" /><path d="M +542.8112987522036,159.40485439263284 L 542.8317959513515,169.8034544941038 " fill="rgb(181,10,193)" stroke="rgb(181,10,193)" stroke-width="2" /><path d="M +542.8317959513515,169.8034544941038 L 539.3695448245853,177.6734074112028 " fill="rgb(181,10,193)" stroke="rgb(181,10,193)" stroke-width="2" /><path d="M +539.3695448245853,177.6734074112028 L 536.5015940275043,184.05582985840738 " fill="rgb(181,10,193)" stroke="rgb(181,10,193)" stroke-width="2" /><path d="M +536.5015940275043,184.05582985840738 L 536.4384994329885,188.88777962885797 " fill="rgb(181,10,193)" stroke="rgb(181,10,193)" stroke-width="2" /><path d="M +536.4384994329885,188.88777962885797 L 538.2773848297074,191.0273516830057 " fill="rgb(181,10,193)" stroke="rgb(181,10,193)" stroke-width="2" /><path d="M +538.2773848297074,191.0273516830057 L 541.0451661469415,189.73203889094293 " fill="rgb(181,10,193)" stroke="rgb(181,10,193)" stroke-width="2" /><path d="M +541.0451661469415,189.73203889094293 L 546.8515293719247,185.60245445929468 " fill="rgb(181,10,193)" stroke="rgb(181,10,193)" stroke-width="2" /><path d="M +546.8515293719247,185.60245445929468 L 557.190710795112,177.70061901770532 " fill="rgb(181,10,193)" stroke="rgb(181,10,193)" stroke-width="2" /><path d="M +557.190710795112,177.70061901770532 L 569.8972575785592,165.22972992621362 " fill="rgb(181,10,193)" stroke="rgb(181,10,193)" stroke-width="2" /><path d="M +569.8972575785592,165.22972992621362 L 582.5526504637673,153.53193572722375 " fill="rgb(181,10,193)" stroke="rgb(181,10,193)" stroke-width="2" /><path d="M +582.5526504637673,153.53193572722375 L 594.1357855917886,145.9062813874334 " fill="rgb(181,10,193)" stroke="rgb(181,10,193)" stroke-width="2" /><path d="M +594.1357855917886,145.9062813874334 L 599.5183180691674,143.49926120601594 " fill="rgb(181,10,193)" stroke="rgb(181,10,193)" stroke-width="2" /><path d="M +599.5183180691674,143.49926120601594 L 601.4429022790864,144.1870158072561 " fill="rgb(181,10,193)" stroke="rgb(181,10,193)" stroke-width="2" /><path d="M +601.4429022790864,144.1870158072561 L 602.6307708444074,149.01040605269372 " fill="rgb(181,10,193)" stroke="rgb(181,10,193)" stroke-width="2" /><path d="M +602.6307708444074,149.01040605269372 L 600.9222943009809,157.41918078623712 " fill="rgb(181,10,193)" stroke="rgb(181,10,193)" stroke-width="2" /><path d="M +600.9222943009809,157.41918078623712 L 599.3018246116117,165.9552603121847 " fill="rgb(181,10,193)" stroke="rgb(181,10,193)" stroke-width="2" /><path d="M +599.3018246116117,165.9552603121847 L 594.6729204477742,171.78873828612268 " fill="rgb(181,10,193)" stroke="rgb(181,10,193)" stroke-width="2" /><path d="M +594.6729204477742,171.78873828612268 L 596.0320245148614,174.67324337922037 " fill="rgb(181,10,193)" stroke="rgb(181,10,193)" stroke-width="2" /><path d="M +596.0320245148614,174.67324337922037 L 600.635166359134,174.43790604360402 " fill="rgb(181,10,193)" stroke="rgb(181,10,193)" stroke-width="2" /><path d="M +600.635166359134,174.43790604360402 L 608.5729559184983,169.34141446836293 " fill="rgb(181,10,193)" stroke="rgb(181,10,193)" stroke-width="2" /><path d="M +608.5729559184983,169.34141446836293 L 618.3948208810762,160.12294520623982 " fill="rgb(181,10,193)" stroke="rgb(181,10,193)" stroke-width="2" /><path d="M +618.3948208810762,160.12294520623982 L 632.0950116636232,151.2528829742223 " fill="rgb(181,10,193)" stroke="rgb(181,10,193)" stroke-width="2" /><path d="M +632.0950116636232,151.2528829742223 L 645.9306504251435,142.92799999006093 " fill="rgb(181,10,193)" stroke="rgb(181,10,193)" stroke-width="2" /><path d="M +645.9306504251435,142.92799999006093 L 655.6247194530442,137.31563915498555 " fill="rgb(181,10,193)" stroke="rgb(181,10,193)" stroke-width="2" /><path d="M +655.6247194530442,137.31563915498555 L 664.7046454669908,137.22772616893053 " fill="rgb(181,10,193)" stroke="rgb(181,10,193)" stroke-width="2" /><path d="M +664.7046454669908,137.22772616893053 L 667.5507723214105,139.8332818225026 " fill="rgb(181,10,193)" stroke="rgb(181,10,193)" stroke-width="2" /><path d="M +667.5507723214105,139.8332818225026 L 669.3448782386258,145.3947587683797 " fill="rgb(181,10,193)" stroke="rgb(181,10,193)" stroke-width="2" /><path d="M +669.3448782386258,145.3947587683797 L 665.3584400238469,153.4289725497365 " fill="rgb(181,10,193)" stroke="rgb(181,10,193)" stroke-width="2" /><path d="M +665.3584400238469,153.4289725497365 L 663.258233112283,162.76516277343035 " fill="rgb(181,10,193)" stroke="rgb(181,10,193)" stroke-width="2" /><path d="M +663.258233112283,162.76516277343035 L 662.1386875631288,170.7149090245366 " fill="rgb(181,10,193)" stroke="rgb(181,10,193)" stroke-width="2" /><path d="M 715.2581848623231,149.57966703921556 " fill="rgb(74,137,177)" stroke="rgb(74,137,177)" stroke-width="2" /><path d="M +715.2581848623231,149.57966703921556 L 713.0947523238137,149.0543471649289 " fill="rgb(74,137,177)" stroke="rgb(74,137,177)" stroke-width="2" /><path d="M +713.0947523238137,149.0543471649289 L 716.6717361332849,149.7016578540206 " fill="rgb(74,137,177)" stroke="rgb(74,137,177)" stroke-width="2" /><path d="M +716.6717361332849,149.7016578540206 L 721.4868797780946,149.93318086490035 " fill="rgb(74,137,177)" stroke="rgb(74,137,177)" stroke-width="2" /><path d="M +721.4868797780946,149.93318086490035 L 730.1165439607576,149.40412754192948 " fill="rgb(74,137,177)" stroke="rgb(74,137,177)" stroke-width="2" /><path d="M 746.2018491746858,132.06091040745378 " fill="rgb(178,34,186)" stroke="rgb(178,34,186)" stroke-width="2" /><path d="M +746.2018491746858,132.06091040745378 L 746.220405427739,129.38842618837953 " fill="rgb(178,34,186)" stroke="rgb(178,34,186)" stroke-width="2" /><path d="M +746.220405427739,129.38842618837953 L 739.6716454904526,126.15120345726609 " fill="rgb(178,34,186)" stroke="rgb(178,34,186)" stroke-width="2" /><path d="M +739.6716454904526,126.15120345726609 L 735.8299783151597,129.6549611724913 " fill="rgb(178,34,186)" stroke="rgb(178,34,186)" stroke-width="2" /><path d="M +735.8299783151597,129.6549611724913 L 728.5374519508332,137.02990168705583 " fill="rgb(178,34,186)" stroke="rgb(178,34,186)" stroke-width="2" /><path d="M +728.5374519508332,137.02990168705583 L 718.9279035013169,148.49330896511674 " fill="rgb(178,34,186)" stroke="rgb(178,34,186)" stroke-width="2" /><path d="M +718.9279035013169,148.49330896511674 L 713.5099038761109,162.15537065640092 " fill="rgb(178,34,186)" stroke="rgb(178,34,186)" stroke-width="2" /><path d="M +713.5099038761109,162.15537065640092 L 710.8732703607529,173.66739267483354 " fill="rgb(178,34,186)" stroke="rgb(178,34,186)" stroke-width="2" /><path d="M +710.8732703607529,173.66739267483354 L 715.9520426671952,181.40299255028367 " fill="rgb(178,34,186)" stroke="rgb(178,34,186)" stroke-width="2" /><path d="M +715.9520426671952,181.40299255028367 L 721.8151703756303,182.85680482164025 " fill="rgb(178,34,186)" stroke="rgb(178,34,186)" stroke-width="2" /><path d="M +721.8151703756303,182.85680482164025 L 732.6583019178361,183.1022110581398 " fill="rgb(178,34,186)" stroke="rgb(178,34,186)" stroke-width="2" /><path d="M +732.6583019178361,183.1022110581398 L 742.3253211658448,179.51924920082092 " fill="rgb(178,34,186)" stroke="rgb(178,34,186)" stroke-width="2" /><path d="M 962.0918616931885,113.50241780281067 " fill="rgb(43,39,115)" stroke="rgb(43,39,115)" stroke-width="2" /><path d="M +962.0918616931885,113.50241780281067 L 948.8427242916077,115.89152336120605 " fill="rgb(43,39,115)" stroke="rgb(43,39,115)" stroke-width="2" /><path d="M +948.8427242916077,115.89152336120605 L 938.2236919086426,122.02834904193878 " fill="rgb(43,39,115)" stroke="rgb(43,39,115)" stroke-width="2" /><path d="M +938.2236919086426,122.02834904193878 L 927.9573557060212,129.62407231330872 " fill="rgb(43,39,115)" stroke="rgb(43,39,115)" stroke-width="2" /><path d="M +927.9573557060212,129.62407231330872 L 917.91887733154,137.90090322494507 " fill="rgb(43,39,115)" stroke="rgb(43,39,115)" stroke-width="2" /><path d="M +917.91887733154,137.90090322494507 L 911.4827803056687,146.96913480758667 " fill="rgb(43,39,115)" stroke="rgb(43,39,115)" stroke-width="2" /><path d="M +911.4827803056687,146.96913480758667 L 906.7364362161607,156.26583456993103 " fill="rgb(43,39,115)" stroke="rgb(43,39,115)" stroke-width="2" /><path d="M +906.7364362161607,156.26583456993103 L 905.1403588335961,164.89239037036896 " fill="rgb(43,39,115)" stroke="rgb(43,39,115)" stroke-width="2" /><path d="M +905.1403588335961,164.89239037036896 L 907.2535327356309,170.97434043884277 " fill="rgb(43,39,115)" stroke="rgb(43,39,115)" stroke-width="2" /><path d="M +907.2535327356309,170.97434043884277 L 912.0457089226693,175.04165053367615 " fill="rgb(43,39,115)" stroke="rgb(43,39,115)" stroke-width="2" /><path d="M +912.0457089226693,175.04165053367615 L 917.1258539240807,176.5309239923954 " fill="rgb(43,39,115)" stroke="rgb(43,39,115)" stroke-width="2" /><path d="M +917.1258539240807,176.5309239923954 L 922.1925682108849,174.35038566589355 " fill="rgb(43,39,115)" stroke="rgb(43,39,115)" stroke-width="2" /><path d="M +922.1925682108849,174.35038566589355 L 931.2222296278924,170.68328857421875 " fill="rgb(43,39,115)" stroke="rgb(43,39,115)" stroke-width="2" /><path d="M 1056.1888510268182,25.0 " fill="rgb(24,94,82)" stroke="rgb(24,94,82)" stroke-width="2" /><path d="M +1056.1888510268182,25.0 L 1056.5741418953985,25.695974305272102 " fill="rgb(24,94,82)" stroke="rgb(24,94,82)" stroke-width="2" /><path d="M +1056.5741418953985,25.695974305272102 L 1055.9710895176977,31.92123420536518 " fill="rgb(24,94,82)" stroke="rgb(24,94,82)" stroke-width="2" /><path d="M +1055.9710895176977,31.92123420536518 L 1052.716363882646,44.31361086666584 " fill="rgb(24,94,82)" stroke="rgb(24,94,82)" stroke-width="2" /><path d="M +1052.716363882646,44.31361086666584 L 1049.0833034273237,60.65014250576496 " fill="rgb(24,94,82)" stroke="rgb(24,94,82)" stroke-width="2" /><path d="M +1049.0833034273237,60.65014250576496 L 1044.5960595365614,80.09033568203449 " fill="rgb(24,94,82)" stroke="rgb(24,94,82)" stroke-width="2" /><path d="M +1044.5960595365614,80.09033568203449 L 1035.2857341524214,97.61667497456074 " fill="rgb(24,94,82)" stroke="rgb(24,94,82)" stroke-width="2" /><path d="M +1035.2857341524214,97.61667497456074 L 1030.6548740621656,115.12499578297138 " fill="rgb(24,94,82)" stroke="rgb(24,94,82)" stroke-width="2" /><path d="M +1030.6548740621656,115.12499578297138 L 1024.6327837463468,129.03321273624897 " fill="rgb(24,94,82)" stroke="rgb(24,94,82)" stroke-width="2" /><path d="M +1024.6327837463468,129.03321273624897 L 1022.9744704719633,139.21905882656574 " fill="rgb(24,94,82)" stroke="rgb(24,94,82)" stroke-width="2" /><path d="M +1022.9744704719633,139.21905882656574 L 1022.9134897422045,142.3532945662737 " fill="rgb(24,94,82)" stroke="rgb(24,94,82)" stroke-width="2" /><path d="M +1022.9134897422045,142.3532945662737 L 1025.8812070917338,143.0310459434986 " fill="rgb(24,94,82)" stroke="rgb(24,94,82)" stroke-width="2" /><path d="M +1025.8812070917338,143.0310459434986 L 1031.4128006529063,140.5869720876217 " fill="rgb(24,94,82)" stroke="rgb(24,94,82)" stroke-width="2" /><path d="M +1031.4128006529063,140.5869720876217 L 1038.6852283310145,134.25270482897758 " fill="rgb(24,94,82)" stroke="rgb(24,94,82)" stroke-width="2" /><path d="M +1038.6852283310145,134.25270482897758 L 1050.964731676504,123.36435720324516 " fill="rgb(24,94,82)" stroke="rgb(24,94,82)" stroke-width="2" /><path d="M +1050.964731676504,123.36435720324516 L 1069.088488323614,116.06595441699028 " fill="rgb(24,94,82)" stroke="rgb(24,94,82)" stroke-width="2" /><path d="M +1069.088488323614,116.06595441699028 L 1081.4877421688288,109.88899156451225 " fill="rgb(24,94,82)" stroke="rgb(24,94,82)" stroke-width="2" /><path d="M +1081.4877421688288,109.88899156451225 L 1095.3691251110286,108.10138389468193 " fill="rgb(24,94,82)" stroke="rgb(24,94,82)" stroke-width="2" /><path d="M +1095.3691251110286,108.10138389468193 L 1105.7421107124537,110.52929997444153 " fill="rgb(24,94,82)" stroke="rgb(24,94,82)" stroke-width="2" /></svg>