<?xml version="1.0" encoding="utf-8" ?>
<svg baseProfile="full" height="210.42604204267263" version="1.1" width="613.65812870441" xmlns="http://www.w3.org/2000/svg" xmlns:ev="http://www.w3.org/2001/xml-events" xmlns:xlink="http://www.w3.org/1999/xlink"><defs /><rect fill="white" height="210.42604204267263" width="613.65812870441" x="0" y="0" /><path d="M 25.0,58.18455672822893 " fill="rgb(187,188,104)" stroke="rgb(187,188,104)" stroke-width="2" /><path d="M 60.20911693572998,37.91661477647722 " fill="rgb(104,106,43)" stroke="rgb(104,106,43)" stroke-width="2" /><path d="M +60.20911693572998,37.91661477647722 L 60.9113734960556,39.22697923146188 " fill="rgb(104,106,43)" stroke="rgb(104,106,43)" stroke-width="2" /><path d="M +60.9113734960556,39.22697923146188 L 61.228173300623894,41.553636556491256 " fill="rgb(104,106,43)" stroke="rgb(104,106,43)" stroke-width="2" /><path d="M +61.228173300623894,41.553636556491256 L 60.60222648084164,49.24674189649522 " fill="rgb(104,106,43)" stroke="rgb(104,106,43)" stroke-width="2" /><path d="M +60.60222648084164,49.24674189649522 L 58.24252910912037,64.96975696645677 " fill="rgb(104,106,43)" stroke="rgb(104,106,43)" stroke-width="2" /><path d="M +58.24252910912037,64.96975696645677 L 53.76652516424656,82.35322154127061 " fill="rgb(104,106,43)" stroke="rgb(104,106,43)" stroke-width="2" /><path d="M +53.76652516424656,82.35322154127061 L 49.23604674637318,97.6971999462694 " fill="rgb(104,106,43)" stroke="rgb(104,106,43)" stroke-width="2" /><path d="M +49.23604674637318,97.6971999462694 L 46.19610048830509,108.20986903272569 " fill="rgb(104,106,43)" stroke="rgb(104,106,43)" stroke-width="2" /><path d="M +46.19610048830509,108.20986903272569 L 45.150044932961464,115.39971983991563 " fill="rgb(104,106,43)" stroke="rgb(104,106,43)" stroke-width="2" /><path d="M +45.150044932961464,115.39971983991563 L 45.97831904888153,118.82490671239793 " fill="rgb(104,106,43)" stroke="rgb(104,106,43)" stroke-width="2" /><path d="M +45.97831904888153,118.82490671239793 L 46.16931173950434,117.23619795404375 " fill="rgb(104,106,43)" stroke="rgb(104,106,43)" stroke-width="2" /><path d="M +46.16931173950434,117.23619795404375 L 46.33657542988658,113.16017246805131 " fill="rgb(104,106,43)" stroke="rgb(104,106,43)" stroke-width="2" /><path d="M +46.33657542988658,113.16017246805131 L 47.293344270437956,101.76472879014909 " fill="rgb(104,106,43)" stroke="rgb(104,106,43)" stroke-width="2" /><path d="M +47.293344270437956,101.76472879014909 L 50.74485404416919,86.93936443887651 " fill="rgb(104,106,43)" stroke="rgb(104,106,43)" stroke-width="2" /><path d="M +50.74485404416919,86.93936443887651 L 55.46535862609744,70.51896429620683 " fill="rgb(104,106,43)" stroke="rgb(104,106,43)" stroke-width="2" /><path d="M +55.46535862609744,70.51896429620683 L 60.88199747726321,56.00301957689226 " fill="rgb(104,106,43)" stroke="rgb(104,106,43)" stroke-width="2" /><path d="M +60.88199747726321,56.00301957689226 L 65.83051038905978,46.54016471467912 " fill="rgb(104,106,43)" stroke="rgb(104,106,43)" stroke-width="2" /><path d="M +65.83051038905978,46.54016471467912 L 69.39269555732608,43.37213790975511 " fill="rgb(104,106,43)" stroke="rgb(104,106,43)" stroke-width="2" /><path d="M +69.39269555732608,43.37213790975511 L 70.37908790633082,43.738638972863555 " fill="rgb(104,106,43)" stroke="rgb(104,106,43)" stroke-width="2" /><path d="M +70.37908790633082,43.738638972863555 L 71.08367575332522,47.639913177117705 " fill="rgb(104,106,43)" stroke="rgb(104,106,43)" stroke-width="2" /><path d="M +71.08367575332522,47.639913177117705 L 70.66647106781602,56.859387373551726 " fill="rgb(104,106,43)" stroke="rgb(104,106,43)" stroke-width="2" /><path d="M +70.66647106781602,56.859387373551726 L 71.2883366830647,70.71236393414438 " fill="rgb(104,106,43)" stroke="rgb(104,106,43)" stroke-width="2" /><path d="M +71.2883366830647,70.71236393414438 L 70.6672483868897,82.98080465756357 " fill="rgb(104,106,43)" stroke="rgb(104,106,43)" stroke-width="2" /><path d="M +70.6672483868897,82.98080465756357 L 72.07936452701688,93.6105205770582 " fill="rgb(104,106,43)" stroke="rgb(104,106,43)" stroke-width="2" /><path d="M +72.07936452701688,93.6105205770582 L 74.53871177509427,97.9045411106199 " fill="rgb(104,106,43)" stroke="rgb(104,106,43)" stroke-width="2" /><path d="M +74.53871177509427,97.9045411106199 L 80.87214099243283,99.95698533020914 " fill="rgb(104,106,43)" stroke="rgb(104,106,43)" stroke-width="2" /><path d="M +80.87214099243283,99.95698533020914 L 89.95749639347196,97.03389219008386 " fill="rgb(104,106,43)" stroke="rgb(104,106,43)" stroke-width="2" /><path d="M +89.95749639347196,97.03389219008386 L 99.78349732235074,86.87207392416894 " fill="rgb(104,106,43)" stroke="rgb(104,106,43)" stroke-width="2" /><path d="M +99.78349732235074,86.87207392416894 L 110.00176714733243,72.97738960944116 " fill="rgb(104,106,43)" stroke="rgb(104,106,43)" stroke-width="2" /><path d="M +110.00176714733243,72.97738960944116 L 119.41471504047513,61.96342042647302 " fill="rgb(104,106,43)" stroke="rgb(104,106,43)" stroke-width="2" /><path d="M +119.41471504047513,61.96342042647302 L 126.81540535762906,55.6500422116369 " fill="rgb(104,106,43)" stroke="rgb(104,106,43)" stroke-width="2" /><path d="M +126.81540535762906,55.6500422116369 L 131.36493043974042,52.8026335593313 " fill="rgb(104,106,43)" stroke="rgb(104,106,43)" stroke-width="2" /><path d="M +131.36493043974042,52.8026335593313 L 133.6204663105309,52.05785765312612 " fill="rgb(104,106,43)" stroke="rgb(104,106,43)" stroke-width="2" /><path d="M +133.6204663105309,52.05785765312612 L 135.3910985775292,55.363584300503135 " fill="rgb(104,106,43)" stroke="rgb(104,106,43)" stroke-width="2" /><path d="M +135.3910985775292,55.363584300503135 L 135.29962821863592,62.051394721493125 " fill="rgb(104,106,43)" stroke="rgb(104,106,43)" stroke-width="2" /><path d="M +135.29962821863592,62.051394721493125 L 134.88744704984128,74.5141418185085 " fill="rgb(104,106,43)" stroke="rgb(104,106,43)" stroke-width="2" /><path d="M +134.88744704984128,74.5141418185085 L 132.49001695774496,87.42676331661642 " fill="rgb(104,106,43)" stroke="rgb(104,106,43)" stroke-width="2" /><path d="M +132.49001695774496,87.42676331661642 L 129.48213591240346,96.63877262733877 " fill="rgb(104,106,43)" stroke="rgb(104,106,43)" stroke-width="2" /><path d="M +129.48213591240346,96.63877262733877 L 129.7518649045378,103.65880562923849 " fill="rgb(104,106,43)" stroke="rgb(104,106,43)" stroke-width="2" /><path d="M +129.7518649045378,103.65880562923849 L 128.9372179750353,103.1694510485977 " fill="rgb(104,106,43)" stroke="rgb(104,106,43)" stroke-width="2" /><path d="M +128.9372179750353,103.1694510485977 L 129.72989947535098,100.38750587962568 " fill="rgb(104,106,43)" stroke="rgb(104,106,43)" stroke-width="2" /><path d="M +129.72989947535098,100.38750587962568 L 133.04435283876956,95.5766177084297 " fill="rgb(104,106,43)" stroke="rgb(104,106,43)" stroke-width="2" /><path d="M +133.04435283876956,95.5766177084297 L 136.67083949781954,85.4823291208595 " fill="rgb(104,106,43)" stroke="rgb(104,106,43)" stroke-width="2" /><path d="M +136.67083949781954,85.4823291208595 L 142.08785207010806,73.31113099120557 " fill="rgb(104,106,43)" stroke="rgb(104,106,43)" stroke-width="2" /><path d="M +142.08785207010806,73.31113099120557 L 148.8705971930176,62.41049884818494 " fill="rgb(104,106,43)" stroke="rgb(104,106,43)" stroke-width="2" /><path d="M +148.8705971930176,62.41049884818494 L 154.30786401964724,54.359178533777595 " fill="rgb(104,106,43)" stroke="rgb(104,106,43)" stroke-width="2" /><path d="M +154.30786401964724,54.359178533777595 L 160.33806235529482,50.886250725016 " fill="rgb(104,106,43)" stroke="rgb(104,106,43)" stroke-width="2" /><path d="M +160.33806235529482,50.886250725016 L 164.17177976109087,48.53974058292806 " fill="rgb(104,106,43)" stroke="rgb(104,106,43)" stroke-width="2" /><path d="M +164.17177976109087,48.53974058292806 L 168.35034192539752,49.757455280050635 " fill="rgb(104,106,43)" stroke="rgb(104,106,43)" stroke-width="2" /><path d="M +168.35034192539752,49.757455280050635 L 170.76820791698992,50.339176049456 " fill="rgb(104,106,43)" stroke="rgb(104,106,43)" stroke-width="2" /><path d="M +170.76820791698992,50.339176049456 L 175.9891998860985,56.99534832499921 " fill="rgb(104,106,43)" stroke="rgb(104,106,43)" stroke-width="2" /><path d="M +175.9891998860985,56.99534832499921 L 181.93810642696917,66.04514359496534 " fill="rgb(104,106,43)" stroke="rgb(104,106,43)" stroke-width="2" /><path d="M +181.93810642696917,66.04514359496534 L 183.91091437079012,71.16199015639722 " fill="rgb(104,106,43)" stroke="rgb(104,106,43)" stroke-width="2" /><path d="M +183.91091437079012,71.16199015639722 L 189.2285689804703,79.57453130744398 " fill="rgb(104,106,43)" stroke="rgb(104,106,43)" stroke-width="2" /><path d="M +189.2285689804703,79.57453130744398 L 192.22083897329867,84.72185372374952 " fill="rgb(104,106,43)" stroke="rgb(104,106,43)" stroke-width="2" /><path d="M +192.22083897329867,84.72185372374952 L 193.9362892601639,87.34007655642927 " fill="rgb(104,106,43)" stroke="rgb(104,106,43)" stroke-width="2" /><path d="M +193.9362892601639,87.34007655642927 L 196.28833682276309,90.10361968539655 " fill="rgb(104,106,43)" stroke="rgb(104,106,43)" stroke-width="2" /><path d="M +196.28833682276309,90.10361968539655 L 197.3615035507828,89.0695075597614 " fill="rgb(104,106,43)" stroke="rgb(104,106,43)" stroke-width="2" /><path d="M +197.3615035507828,89.0695075597614 L 201.2195882294327,85.18429203890264 " fill="rgb(104,106,43)" stroke="rgb(104,106,43)" stroke-width="2" /><path d="M +201.2195882294327,85.18429203890264 L 206.07154787518084,73.18913265131414 " fill="rgb(104,106,43)" stroke="rgb(104,106,43)" stroke-width="2" /><path d="M +206.07154787518084,73.18913265131414 L 213.7916272971779,61.131591042503715 " fill="rgb(104,106,43)" stroke="rgb(104,106,43)" stroke-width="2" /><path d="M +213.7916272971779,61.131591042503715 L 222.28840888477862,51.9974838104099 " fill="rgb(104,106,43)" stroke="rgb(104,106,43)" stroke-width="2" /><path d="M +222.28840888477862,51.9974838104099 L 230.34783304668963,46.15170641802251 " fill="rgb(104,106,43)" stroke="rgb(104,106,43)" stroke-width="2" /><path d="M +230.34783304668963,46.15170641802251 L 237.68847943283617,46.305283196270466 " fill="rgb(104,106,43)" stroke="rgb(104,106,43)" stroke-width="2" /><path d="M +237.68847943283617,46.305283196270466 L 240.91165603138506,47.4072128161788 " fill="rgb(104,106,43)" stroke="rgb(104,106,43)" stroke-width="2" /><path d="M +240.91165603138506,47.4072128161788 L 243.60167623497546,53.594477735459805 " fill="rgb(104,106,43)" stroke="rgb(104,106,43)" stroke-width="2" /><path d="M +243.60167623497546,53.594477735459805 L 241.94926501251757,61.31202932447195 " fill="rgb(104,106,43)" stroke="rgb(104,106,43)" stroke-width="2" /><path d="M +241.94926501251757,61.31202932447195 L 243.28637615777552,74.63172312825918 " fill="rgb(104,106,43)" stroke="rgb(104,106,43)" stroke-width="2" /><path d="M +243.28637615777552,74.63172312825918 L 239.45824311114848,84.51681610196829 " fill="rgb(104,106,43)" stroke="rgb(104,106,43)" stroke-width="2" /><path d="M +239.45824311114848,84.51681610196829 L 240.15945211984217,98.72628685086966 " fill="rgb(104,106,43)" stroke="rgb(104,106,43)" stroke-width="2" /><path d="M +240.15945211984217,98.72628685086966 L 239.2563667241484,109.56660505384207 " fill="rgb(104,106,43)" stroke="rgb(104,106,43)" stroke-width="2" /><path d="M +239.2563667241484,109.56660505384207 L 241.6859030071646,122.1025013551116 " fill="rgb(104,106,43)" stroke="rgb(104,106,43)" stroke-width="2" /><path d="M +241.6859030071646,122.1025013551116 L 245.01807534135878,133.29965945333242 " fill="rgb(104,106,43)" stroke="rgb(104,106,43)" stroke-width="2" /><path d="M +245.01807534135878,133.29965945333242 L 248.5652717296034,142.84029956907034 " fill="rgb(104,106,43)" stroke="rgb(104,106,43)" stroke-width="2" /><path d="M +248.5652717296034,142.84029956907034 L 252.22577624954283,150.92394527047873 " fill="rgb(104,106,43)" stroke="rgb(104,106,43)" stroke-width="2" /><path d="M +252.22577624954283,150.92394527047873 L 253.87029358185828,157.14502688497305 " fill="rgb(104,106,43)" stroke="rgb(104,106,43)" stroke-width="2" /><path d="M +253.87029358185828,157.14502688497305 L 253.79389165900648,164.7704541310668 " fill="rgb(104,106,43)" stroke="rgb(104,106,43)" stroke-width="2" /><path d="M +253.79389165900648,164.7704541310668 L 247.7752762939781,170.4890250787139 " fill="rgb(104,106,43)" stroke="rgb(104,106,43)" stroke-width="2" /><path d="M +247.7752762939781,170.4890250787139 L 241.48815630935133,180.51416393369436 " fill="rgb(104,106,43)" stroke="rgb(104,106,43)" stroke-width="2" /><path d="M +241.48815630935133,180.51416393369436 L 231.0866069700569,184.02436938136816 " fill="rgb(104,106,43)" stroke="rgb(104,106,43)" stroke-width="2" /><path d="M +231.0866069700569,184.02436938136816 L 221.88164829276502,185.42604204267263 " fill="rgb(104,106,43)" stroke="rgb(104,106,43)" stroke-width="2" /><path d="M +221.88164829276502,185.42604204267263 L 214.50743316672742,185.093377456069 " fill="rgb(104,106,43)" stroke="rgb(104,106,43)" stroke-width="2" /><path d="M +214.50743316672742,185.093377456069 L 208.638274660334,181.24256812036037 " fill="rgb(104,106,43)" stroke="rgb(104,106,43)" stroke-width="2" /><path d="M +208.638274660334,181.24256812036037 L 206.1574539449066,176.29885278642178 " fill="rgb(104,106,43)" stroke="rgb(104,106,43)" stroke-width="2" /><path d="M +206.1574539449066,176.29885278642178 L 203.81733580492437,166.54993079602718 " fill="rgb(104,106,43)" stroke="rgb(104,106,43)" stroke-width="2" /><path d="M 268.44019575975835,124.74799178540707 " fill="rgb(31,135,131)" stroke="rgb(31,135,131)" stroke-width="2" /><path d="M +268.44019575975835,124.74799178540707 L 269.07113826833665,130.13002954423428 " fill="rgb(31,135,131)" stroke="rgb(31,135,131)" stroke-width="2" /><path d="M +269.07113826833665,130.13002954423428 L 270.0535427685827,129.7694931551814 " fill="rgb(31,135,131)" stroke="rgb(31,135,131)" stroke-width="2" /><path d="M +270.0535427685827,129.7694931551814 L 270.91972685419023,129.6495943889022 " fill="rgb(31,135,131)" stroke="rgb(31,135,131)" stroke-width="2" /><path d="M +270.91972685419023,129.6495943889022 L 273.43178189359605,126.53360184282064 " fill="rgb(31,135,131)" stroke="rgb(31,135,131)" stroke-width="2" /><path d="M +273.43178189359605,126.53360184282064 L 278.3026976045221,116.81053157895803 " fill="rgb(31,135,131)" stroke="rgb(31,135,131)" stroke-width="2" /><path d="M +278.3026976045221,116.81053157895803 L 285.445209806785,104.39142223447561 " fill="rgb(31,135,131)" stroke="rgb(31,135,131)" stroke-width="2" /><path d="M +285.445209806785,104.39142223447561 L 293.3716375287622,87.97062989324331 " fill="rgb(31,135,131)" stroke="rgb(31,135,131)" stroke-width="2" /><path d="M +293.3716375287622,87.97062989324331 L 301.91921061836183,72.69635673612356 " fill="rgb(31,135,131)" stroke="rgb(31,135,131)" stroke-width="2" /><path d="M +301.91921061836183,72.69635673612356 L 305.5498418863863,61.104086600244045 " fill="rgb(31,135,131)" stroke="rgb(31,135,131)" stroke-width="2" /><path d="M +305.5498418863863,61.104086600244045 L 307.8029779251665,58.83556600660086 " fill="rgb(31,135,131)" stroke="rgb(31,135,131)" stroke-width="2" /><path d="M +307.8029779251665,58.83556600660086 L 306.41542143188417,59.9549775198102 " fill="rgb(31,135,131)" stroke="rgb(31,135,131)" stroke-width="2" /><path d="M +306.41542143188417,59.9549775198102 L 304.4034200068563,61.37799326330423 " fill="rgb(31,135,131)" stroke="rgb(31,135,131)" stroke-width="2" /><path d="M +304.4034200068563,61.37799326330423 L 301.377198016271,69.65527717024088 " fill="rgb(31,135,131)" stroke="rgb(31,135,131)" stroke-width="2" /><path d="M +301.377198016271,69.65527717024088 L 298.996207928285,85.02494040876627 " fill="rgb(31,135,131)" stroke="rgb(31,135,131)" stroke-width="2" /><path d="M +298.996207928285,85.02494040876627 L 295.4863246437162,98.50587788969278 " fill="rgb(31,135,131)" stroke="rgb(31,135,131)" stroke-width="2" /><path d="M +295.4863246437162,98.50587788969278 L 294.5303331967443,111.87715951353312 " fill="rgb(31,135,131)" stroke="rgb(31,135,131)" stroke-width="2" /><path d="M +294.5303331967443,111.87715951353312 L 295.56075430475175,119.17368594557047 " fill="rgb(31,135,131)" stroke="rgb(31,135,131)" stroke-width="2" /><path d="M +295.56075430475175,119.17368594557047 L 300.3073725756258,119.90089874714613 " fill="rgb(31,135,131)" stroke="rgb(31,135,131)" stroke-width="2" /><path d="M +300.3073725756258,119.90089874714613 L 307.35115266405046,117.70462732762098 " fill="rgb(31,135,131)" stroke="rgb(31,135,131)" stroke-width="2" /><path d="M +307.35115266405046,117.70462732762098 L 313.3894071634859,108.62966697663069 " fill="rgb(31,135,131)" stroke="rgb(31,135,131)" stroke-width="2" /><path d="M +313.3894071634859,108.62966697663069 L 321.5598145779222,96.95088427513838 " fill="rgb(31,135,131)" stroke="rgb(31,135,131)" stroke-width="2" /><path d="M +321.5598145779222,96.95088427513838 L 327.89920306764543,81.75172489136457 " fill="rgb(31,135,131)" stroke="rgb(31,135,131)" stroke-width="2" /><path d="M +327.89920306764543,81.75172489136457 L 332.24843359552324,68.1781105324626 " fill="rgb(31,135,131)" stroke="rgb(31,135,131)" stroke-width="2" /><path d="M +332.24843359552324,68.1781105324626 L 334.53867233358324,58.658800534904 " fill="rgb(31,135,131)" stroke="rgb(31,135,131)" stroke-width="2" /><path d="M 356.5960482414812,78.09520523995161 " fill="rgb(79,122,239)" stroke="rgb(79,122,239)" stroke-width="2" /><path d="M +356.5960482414812,78.09520523995161 L 352.41066104732454,87.89564769715071 " fill="rgb(79,122,239)" stroke="rgb(79,122,239)" stroke-width="2" /><path d="M +352.41066104732454,87.89564769715071 L 348.4740287717432,97.7650723978877 " fill="rgb(79,122,239)" stroke="rgb(79,122,239)" stroke-width="2" /><path d="M +348.4740287717432,97.7650723978877 L 346.59349805675447,108.84283762425184 " fill="rgb(79,122,239)" stroke="rgb(79,122,239)" stroke-width="2" /><path d="M +346.59349805675447,108.84283762425184 L 349.43729526363313,117.08576362580061 " fill="rgb(79,122,239)" stroke="rgb(79,122,239)" stroke-width="2" /><path d="M +349.43729526363313,117.08576362580061 L 352.5565159972757,119.48110800236464 " fill="rgb(79,122,239)" stroke="rgb(79,122,239)" stroke-width="2" /><path d="M +352.5565159972757,119.48110800236464 L 357.68078870140016,116.19631391018629 " fill="rgb(79,122,239)" stroke="rgb(79,122,239)" stroke-width="2" /><path d="M +357.68078870140016,116.19631391018629 L 364.26891333423555,105.76238375157118 " fill="rgb(79,122,239)" stroke="rgb(79,122,239)" stroke-width="2" /><path d="M +364.26891333423555,105.76238375157118 L 373.0712694581598,91.9861600920558 " fill="rgb(79,122,239)" stroke="rgb(79,122,239)" stroke-width="2" /><path d="M +373.0712694581598,91.9861600920558 L 379.592405622825,79.223204664886 " fill="rgb(79,122,239)" stroke="rgb(79,122,239)" stroke-width="2" /><path d="M +379.592405622825,79.223204664886 L 383.5950619634241,74.55290716141462 " fill="rgb(79,122,239)" stroke="rgb(79,122,239)" stroke-width="2" /><path d="M +383.5950619634241,74.55290716141462 L 384.20220515690744,76.76702465862036 " fill="rgb(79,122,239)" stroke="rgb(79,122,239)" stroke-width="2" /><path d="M +384.20220515690744,76.76702465862036 L 381.79269722662866,83.89215733855963 " fill="rgb(79,122,239)" stroke="rgb(79,122,239)" stroke-width="2" /><path d="M +381.79269722662866,83.89215733855963 L 379.6873944159597,95.74718501418829 " fill="rgb(79,122,239)" stroke="rgb(79,122,239)" stroke-width="2" /><path d="M +379.6873944159597,95.74718501418829 L 377.08166173659265,108.33422567695379 " fill="rgb(79,122,239)" stroke="rgb(79,122,239)" stroke-width="2" /><path d="M +377.08166173659265,108.33422567695379 L 376.3325375970453,116.12599696964025 " fill="rgb(79,122,239)" stroke="rgb(79,122,239)" stroke-width="2" /><path d="M +376.3325375970453,116.12599696964025 L 378.3524282928556,119.79699399322271 " fill="rgb(79,122,239)" stroke="rgb(79,122,239)" stroke-width="2" /><path d="M +378.3524282928556,119.79699399322271 L 380.3210052009672,116.76954295486212 " fill="rgb(79,122,239)" stroke="rgb(79,122,239)" stroke-width="2" /><path d="M +380.3210052009672,116.76954295486212 L 385.67635021172464,109.5653810724616 " fill="rgb(79,122,239)" stroke="rgb(79,122,239)" stroke-width="2" /><path d="M +385.67635021172464,109.5653810724616 L 392.18674919568,98.09405114501715 " fill="rgb(79,122,239)" stroke="rgb(79,122,239)" stroke-width="2" /><path d="M +392.18674919568,98.09405114501715 L 398.2916023489088,85.76906111091375 " fill="rgb(79,122,239)" stroke="rgb(79,122,239)" stroke-width="2" /><path d="M +398.2916023489088,85.76906111091375 L 404.83003876172006,77.61253919452429 " fill="rgb(79,122,239)" stroke="rgb(79,122,239)" stroke-width="2" /><path d="M +404.83003876172006,77.61253919452429 L 409.50395754538476,75.1127840206027 " fill="rgb(79,122,239)" stroke="rgb(79,122,239)" stroke-width="2" /><path d="M +409.50395754538476,75.1127840206027 L 410.91312310658395,75.45583806931973 " fill="rgb(79,122,239)" stroke="rgb(79,122,239)" stroke-width="2" /><path d="M +410.91312310658395,75.45583806931973 L 413.31785327754915,79.61389772593975 " fill="rgb(79,122,239)" stroke="rgb(79,122,239)" stroke-width="2" /><path d="M +413.31785327754915,79.61389772593975 L 412.47981428168714,88.29928927123547 " fill="rgb(79,122,239)" stroke="rgb(79,122,239)" stroke-width="2" /><path d="M +412.47981428168714,88.29928927123547 L 412.9712677653879,101.56637243926525 " fill="rgb(79,122,239)" stroke="rgb(79,122,239)" stroke-width="2" /><path d="M +412.9712677653879,101.56637243926525 L 413.8005833979696,114.5671909302473 " fill="rgb(79,122,239)" stroke="rgb(79,122,239)" stroke-width="2" /><path d="M +413.8005833979696,114.5671909302473 L 412.2679559048265,121.16540305316448 " fill="rgb(79,122,239)" stroke="rgb(79,122,239)" stroke-width="2" /><path d="M +412.2679559048265,121.16540305316448 L 412.72845211438835,123.46239306032658 " fill="rgb(79,122,239)" stroke="rgb(79,122,239)" stroke-width="2" /><path d="M +412.72845211438835,123.46239306032658 L 413.54291322641075,123.28786447644234 " fill="rgb(79,122,239)" stroke="rgb(79,122,239)" stroke-width="2" /><path d="M +413.54291322641075,123.28786447644234 L 415.0731478910893,118.6241652071476 " fill="rgb(79,122,239)" stroke="rgb(79,122,239)" stroke-width="2" /><path d="M +415.0731478910893,118.6241652071476 L 418.11891126446426,107.8693462908268 " fill="rgb(79,122,239)" stroke="rgb(79,122,239)" stroke-width="2" /><path d="M +418.11891126446426,107.8693462908268 L 421.7068679910153,94.75373759865761 " fill="rgb(79,122,239)" stroke="rgb(79,122,239)" stroke-width="2" /><path d="M +421.7068679910153,94.75373759865761 L 429.3464525323361,83.29696789383888 " fill="rgb(79,122,239)" stroke="rgb(79,122,239)" stroke-width="2" /><path d="M +429.3464525323361,83.29696789383888 L 440.159316835925,74.41334500908852 " fill="rgb(79,122,239)" stroke="rgb(79,122,239)" stroke-width="2" /><path d="M +440.159316835925,74.41334500908852 L 451.3215835671872,66.45401373505592 " fill="rgb(79,122,239)" stroke="rgb(79,122,239)" stroke-width="2" /><path d="M 510.17670708708465,105.58276548981667 " fill="rgb(230,136,174)" stroke="rgb(230,136,174)" stroke-width="2" /><path d="M +510.17670708708465,105.58276548981667 L 511.11048000864685,99.24574628472328 " fill="rgb(230,136,174)" stroke="rgb(230,136,174)" stroke-width="2" /><path d="M +511.11048000864685,99.24574628472328 L 513.1767839472741,91.37748494744301 " fill="rgb(230,136,174)" stroke="rgb(230,136,174)" stroke-width="2" /><path d="M +513.1767839472741,91.37748494744301 L 515.858752457425,82.13868513703346 " fill="rgb(230,136,174)" stroke="rgb(230,136,174)" stroke-width="2" /><path d="M +515.858752457425,82.13868513703346 L 519.1943058650941,73.93813505768776 " fill="rgb(230,136,174)" stroke="rgb(230,136,174)" stroke-width="2" /><path d="M +519.1943058650941,73.93813505768776 L 519.1577829304151,67.88731768727303 " fill="rgb(230,136,174)" stroke="rgb(230,136,174)" stroke-width="2" /><path d="M +519.1577829304151,67.88731768727303 L 518.5855371761136,67.48881489038467 " fill="rgb(230,136,174)" stroke="rgb(230,136,174)" stroke-width="2" /><path d="M +518.5855371761136,67.48881489038467 L 510.7362891244702,70.93801945447922 " fill="rgb(230,136,174)" stroke="rgb(230,136,174)" stroke-width="2" /><path d="M +510.7362891244702,70.93801945447922 L 503.4986479091458,81.85215801000595 " fill="rgb(230,136,174)" stroke="rgb(230,136,174)" stroke-width="2" /><path d="M +503.4986479091458,81.85215801000595 L 495.9693349408917,96.0620591044426 " fill="rgb(230,136,174)" stroke="rgb(230,136,174)" stroke-width="2" /><path d="M +495.9693349408917,96.0620591044426 L 489.45244203088805,103.69811087846756 " fill="rgb(230,136,174)" stroke="rgb(230,136,174)" stroke-width="2" /><path d="M +489.45244203088805,103.69811087846756 L 488.73773547587916,106.85883790254593 " fill="rgb(230,136,174)" stroke="rgb(230,136,174)" stroke-width="2" /><path d="M +488.73773547587916,106.85883790254593 L 489.9445320176892,108.16889435052872 " fill="rgb(230,136,174)" stroke="rgb(230,136,174)" stroke-width="2" /><path d="M +489.9445320176892,108.16889435052872 L 491.9148577260785,104.1300168633461 " fill="rgb(230,136,174)" stroke="rgb(230,136,174)" stroke-width="2" /><path d="M +491.9148577260785,104.1300168633461 L 496.9915897655301,94.7378334403038 " fill="rgb(230,136,174)" stroke="rgb(230,136,174)" stroke-width="2" /><path d="M +496.9915897655301,94.7378334403038 L 502.9641223954968,84.57758754491806 " fill="rgb(230,136,174)" stroke="rgb(230,136,174)" stroke-width="2" /><path d="M +502.9641223954968,84.57758754491806 L 505.6520594167523,77.9070582985878 " fill="rgb(230,136,174)" stroke="rgb(230,136,174)" stroke-width="2" /><path d="M +505.6520594167523,77.9070582985878 L 507.21681202529,79.30737718939781 " fill="rgb(230,136,174)" stroke="rgb(230,136,174)" stroke-width="2" /><path d="M +507.21681202529,79.30737718939781 L 508.1160274404101,80.27489051222801 " fill="rgb(230,136,174)" stroke="rgb(230,136,174)" stroke-width="2" /><path d="M +508.1160274404101,80.27489051222801 L 513.0364930885844,89.0480487048626 " fill="rgb(230,136,174)" stroke="rgb(230,136,174)" stroke-width="2" /><path d="M +513.0364930885844,89.0480487048626 L 513.39267822681,97.56790861487389 " fill="rgb(230,136,174)" stroke="rgb(230,136,174)" stroke-width="2" /><path d="M +513.39267822681,97.56790861487389 L 515.3981781261973,107.20472499728203 " fill="rgb(230,136,174)" stroke="rgb(230,136,174)" stroke-width="2" /><path d="M +515.3981781261973,107.20472499728203 L 517.3149742442183,114.52295705676079 " fill="rgb(230,136,174)" stroke="rgb(230,136,174)" stroke-width="2" /><path d="M +517.3149742442183,114.52295705676079 L 520.8010693150572,117.10277631878853 " fill="rgb(230,136,174)" stroke="rgb(230,136,174)" stroke-width="2" /><path d="M +520.8010693150572,117.10277631878853 L 524.3170278030448,114.86849784851074 " fill="rgb(230,136,174)" stroke="rgb(230,136,174)" stroke-width="2" /><path d="M 587.3087279754691,25.0 " fill="rgb(57,222,217)" stroke="rgb(57,222,217)" stroke-width="2" /><path d="M +587.3087279754691,25.0 L 588.65812870441,25.35439006984234 " fill="rgb(57,222,217)" stroke="rgb(57,222,217)" stroke-width="2" /></svg>